<svg width="531" height="846" viewBox="0 0 531 846" fill="none" xmlns="http://www.w3.org/2000/svg">
<circle cx="150" cy="150" r="135" stroke="white" stroke-width="30"/>
<mask id="path-2-inside-1_1163_855" fill="white">
<path d="M150 0C185.715 0 220.259 12.7438 247.417 35.9391C274.575 59.1344 292.566 91.2591 298.153 126.535C303.74 161.811 296.557 197.922 277.896 228.375C259.235 258.827 230.32 281.622 196.353 292.658C162.385 303.695 125.594 302.25 92.5975 288.582C59.6007 274.914 32.5635 249.921 16.349 218.099C0.13454 186.276 -4.1931 149.712 4.14451 114.983C12.4821 80.2546 32.9378 49.6405 61.8322 28.6475L79.497 52.9609C56.3917 69.7479 40.0344 94.2283 33.3672 121.999C26.7001 149.77 30.1607 179.008 43.1265 204.455C56.0924 229.902 77.7126 249.887 104.098 260.817C130.484 271.746 159.904 272.902 187.066 264.076C214.228 255.251 237.349 237.023 252.272 212.672C267.194 188.321 272.938 159.444 268.47 131.236C264.002 103.028 249.616 77.3397 227.899 58.7917C206.182 40.2436 178.56 30.0531 150 30.0531V0Z"/>
</mask>
<path d="M150 0C185.715 0 220.259 12.7438 247.417 35.9391C274.575 59.1344 292.566 91.2591 298.153 126.535C303.74 161.811 296.557 197.922 277.896 228.375C259.235 258.827 230.32 281.622 196.353 292.658C162.385 303.695 125.594 302.25 92.5975 288.582C59.6007 274.914 32.5635 249.921 16.349 218.099C0.13454 186.276 -4.1931 149.712 4.14451 114.983C12.4821 80.2546 32.9378 49.6405 61.8322 28.6475L79.497 52.9609C56.3917 69.7479 40.0344 94.2283 33.3672 121.999C26.7001 149.77 30.1607 179.008 43.1265 204.455C56.0924 229.902 77.7126 249.887 104.098 260.817C130.484 271.746 159.904 272.902 187.066 264.076C214.228 255.251 237.349 237.023 252.272 212.672C267.194 188.321 272.938 159.444 268.47 131.236C264.002 103.028 249.616 77.3397 227.899 58.7917C206.182 40.2436 178.56 30.0531 150 30.0531V0Z" stroke="#CBD400" stroke-width="60" mask="url(#path-2-inside-1_1163_855)"/>
<path opacity="0.75" d="M102.469 124.016C103.029 126.965 104.746 128.44 107.621 128.44C109.599 128.44 110.999 127.563 111.821 125.808C112.642 124.053 113.053 121.197 113.053 117.24C112.231 118.397 111.111 119.293 109.693 119.928C108.274 120.563 106.687 120.88 104.933 120.88C102.543 120.88 100.415 120.395 98.5485 119.424C96.6819 118.416 95.2072 116.941 94.1245 115C93.0792 113.021 92.5565 110.632 92.5565 107.832C92.5565 105.069 93.1165 102.661 94.2365 100.608C95.3939 98.5547 97.0179 96.968 99.1085 95.848C101.237 94.728 103.738 94.168 106.613 94.168C112.138 94.168 116.002 95.8853 118.205 99.32C120.407 102.755 121.509 107.813 121.509 114.496C121.509 119.349 121.061 123.363 120.165 126.536C119.306 129.672 117.831 132.061 115.741 133.704C113.687 135.347 110.869 136.168 107.285 136.168C104.447 136.168 102.021 135.608 100.005 134.488C98.0259 133.368 96.4952 131.893 95.4125 130.064C94.3672 128.235 93.7699 126.219 93.6205 124.016H102.469ZM107.117 113.32C108.685 113.32 109.935 112.853 110.869 111.92C111.802 110.949 112.269 109.643 112.269 108C112.269 106.208 111.783 104.827 110.813 103.856C109.842 102.885 108.535 102.4 106.893 102.4C105.25 102.4 103.943 102.904 102.973 103.912C102.039 104.883 101.573 106.227 101.573 107.944C101.573 109.549 102.039 110.856 102.973 111.864C103.943 112.835 105.325 113.32 107.117 113.32ZM126.618 115C126.618 108.579 127.85 103.52 130.314 99.824C132.815 96.128 136.828 94.28 142.354 94.28C147.879 94.28 151.874 96.128 154.338 99.824C156.839 103.52 158.09 108.579 158.09 115C158.09 121.496 156.839 126.592 154.338 130.288C151.874 133.984 147.879 135.832 142.354 135.832C136.828 135.832 132.815 133.984 130.314 130.288C127.85 126.592 126.618 121.496 126.618 115ZM148.682 115C148.682 111.229 148.271 108.336 147.45 106.32C146.628 104.267 144.93 103.24 142.354 103.24C139.778 103.24 138.079 104.267 137.258 106.32C136.436 108.336 136.026 111.229 136.026 115C136.026 117.539 136.175 119.648 136.474 121.328C136.772 122.971 137.37 124.315 138.266 125.36C139.199 126.368 140.562 126.872 142.354 126.872C144.146 126.872 145.49 126.368 146.386 125.36C147.319 124.315 147.935 122.971 148.234 121.328C148.532 119.648 148.682 117.539 148.682 115ZM162.365 105.424C162.365 102.4 163.224 100.067 164.941 98.424C166.696 96.7813 168.954 95.96 171.717 95.96C174.48 95.96 176.72 96.7813 178.437 98.424C180.154 100.067 181.013 102.4 181.013 105.424C181.013 108.448 180.154 110.781 178.437 112.424C176.72 114.067 174.48 114.888 171.717 114.888C168.954 114.888 166.696 114.067 164.941 112.424C163.224 110.781 162.365 108.448 162.365 105.424ZM200.389 96.576L178.829 136H169.589L191.149 96.576H200.389ZM171.661 101.56C169.869 101.56 168.973 102.848 168.973 105.424C168.973 107.963 169.869 109.232 171.661 109.232C172.52 109.232 173.192 108.915 173.677 108.28C174.162 107.645 174.405 106.693 174.405 105.424C174.405 102.848 173.49 101.56 171.661 101.56ZM189.021 127.152C189.021 124.128 189.88 121.795 191.597 120.152C193.314 118.509 195.554 117.688 198.317 117.688C201.08 117.688 203.32 118.509 205.037 120.152C206.754 121.795 207.613 124.128 207.613 127.152C207.613 130.176 206.754 132.509 205.037 134.152C203.32 135.795 201.08 136.616 198.317 136.616C195.554 136.616 193.314 135.795 191.597 134.152C189.88 132.509 189.021 130.176 189.021 127.152ZM198.261 123.288C197.402 123.288 196.73 123.605 196.245 124.24C195.797 124.875 195.573 125.845 195.573 127.152C195.573 129.691 196.469 130.96 198.261 130.96C199.12 130.96 199.792 130.643 200.277 130.008C200.762 129.373 201.005 128.421 201.005 127.152C201.005 125.883 200.762 124.931 200.277 124.296C199.792 123.624 199.12 123.288 198.261 123.288ZM102.39 150.752C102.054 150.136 101.592 149.667 101.004 149.345C100.416 149.023 99.7299 148.862 98.9459 148.862C98.0779 148.862 97.3079 149.058 96.6359 149.45C95.9639 149.842 95.4389 150.402 95.0609 151.13C94.6829 151.858 94.4939 152.698 94.4939 153.65C94.4939 154.63 94.6829 155.484 95.0609 156.212C95.4529 156.94 95.9919 157.5 96.6779 157.892C97.3639 158.284 98.1619 158.48 99.0719 158.48C100.192 158.48 101.109 158.186 101.823 157.598C102.537 156.996 103.006 156.163 103.23 155.099H98.1899V152.852H106.128V155.414C105.932 156.436 105.512 157.381 104.868 158.249C104.224 159.117 103.391 159.817 102.369 160.349C101.361 160.867 100.227 161.126 98.9669 161.126C97.5529 161.126 96.2719 160.811 95.1239 160.181C93.9899 159.537 93.0939 158.648 92.4359 157.514C91.7919 156.38 91.4699 155.092 91.4699 153.65C91.4699 152.208 91.7919 150.92 92.4359 149.786C93.0939 148.638 93.9899 147.749 95.1239 147.119C96.2719 146.475 97.5459 146.153 98.9459 146.153C100.598 146.153 102.033 146.559 103.251 147.371C104.469 148.169 105.309 149.296 105.771 150.752H102.39ZM111.243 145.46V161H108.303V145.46H111.243ZM119.314 161.189C118.194 161.189 117.186 160.944 116.29 160.454C115.394 159.95 114.687 159.243 114.169 158.333C113.665 157.423 113.413 156.373 113.413 155.183C113.413 153.993 113.672 152.943 114.19 152.033C114.722 151.123 115.443 150.423 116.353 149.933C117.263 149.429 118.278 149.177 119.398 149.177C120.518 149.177 121.533 149.429 122.443 149.933C123.353 150.423 124.067 151.123 124.585 152.033C125.117 152.943 125.383 153.993 125.383 155.183C125.383 156.373 125.11 157.423 124.564 158.333C124.032 159.243 123.304 159.95 122.38 160.454C121.47 160.944 120.448 161.189 119.314 161.189ZM119.314 158.627C119.846 158.627 120.343 158.501 120.805 158.249C121.281 157.983 121.659 157.591 121.939 157.073C122.219 156.555 122.359 155.925 122.359 155.183C122.359 154.077 122.065 153.23 121.477 152.642C120.903 152.04 120.196 151.739 119.356 151.739C118.516 151.739 117.809 152.04 117.235 152.642C116.675 153.23 116.395 154.077 116.395 155.183C116.395 156.289 116.668 157.143 117.214 157.745C117.774 158.333 118.474 158.627 119.314 158.627ZM130.479 151.067C130.857 150.507 131.375 150.052 132.033 149.702C132.705 149.352 133.468 149.177 134.322 149.177C135.316 149.177 136.212 149.422 137.01 149.912C137.822 150.402 138.459 151.102 138.921 152.012C139.397 152.908 139.635 153.951 139.635 155.141C139.635 156.331 139.397 157.388 138.921 158.312C138.459 159.222 137.822 159.929 137.01 160.433C136.212 160.937 135.316 161.189 134.322 161.189C133.454 161.189 132.691 161.021 132.033 160.685C131.389 160.335 130.871 159.887 130.479 159.341V161H127.539V145.46H130.479V151.067ZM136.632 155.141C136.632 154.441 136.485 153.839 136.191 153.335C135.911 152.817 135.533 152.425 135.057 152.159C134.595 151.893 134.091 151.76 133.545 151.76C133.013 151.76 132.509 151.9 132.033 152.18C131.571 152.446 131.193 152.838 130.899 153.356C130.619 153.874 130.479 154.483 130.479 155.183C130.479 155.883 130.619 156.492 130.899 157.01C131.193 157.528 131.571 157.927 132.033 158.207C132.509 158.473 133.013 158.606 133.545 158.606C134.091 158.606 134.595 158.466 135.057 158.186C135.533 157.906 135.911 157.507 136.191 156.989C136.485 156.471 136.632 155.855 136.632 155.141ZM141.016 155.141C141.016 153.965 141.247 152.922 141.709 152.012C142.185 151.102 142.822 150.402 143.62 149.912C144.432 149.422 145.335 149.177 146.329 149.177C147.197 149.177 147.953 149.352 148.597 149.702C149.255 150.052 149.78 150.493 150.172 151.025V149.366H153.133V161H150.172V159.299C149.794 159.845 149.269 160.3 148.597 160.664C147.939 161.014 147.176 161.189 146.308 161.189C145.328 161.189 144.432 160.937 143.62 160.433C142.822 159.929 142.185 159.222 141.709 158.312C141.247 157.388 141.016 156.331 141.016 155.141ZM150.172 155.183C150.172 154.469 150.032 153.86 149.752 153.356C149.472 152.838 149.094 152.446 148.618 152.18C148.142 151.9 147.631 151.76 147.085 151.76C146.539 151.76 146.035 151.893 145.573 152.159C145.111 152.425 144.733 152.817 144.439 153.335C144.159 153.839 144.019 154.441 144.019 155.141C144.019 155.841 144.159 156.457 144.439 156.989C144.733 157.507 145.111 157.906 145.573 158.186C146.049 158.466 146.553 158.606 147.085 158.606C147.631 158.606 148.142 158.473 148.618 158.207C149.094 157.927 149.472 157.535 149.752 157.031C150.032 156.513 150.172 155.897 150.172 155.183ZM158.944 145.46V161H156.004V145.46H158.944ZM171.914 161.147C170.892 161.147 169.968 160.972 169.142 160.622C168.33 160.272 167.686 159.768 167.21 159.11C166.734 158.452 166.489 157.675 166.475 156.779H169.625C169.667 157.381 169.877 157.857 170.255 158.207C170.647 158.557 171.179 158.732 171.851 158.732C172.537 158.732 173.076 158.571 173.468 158.249C173.86 157.913 174.056 157.479 174.056 156.947C174.056 156.513 173.923 156.156 173.657 155.876C173.391 155.596 173.055 155.379 172.649 155.225C172.257 155.057 171.711 154.875 171.011 154.679C170.059 154.399 169.282 154.126 168.68 153.86C168.092 153.58 167.581 153.167 167.147 152.621C166.727 152.061 166.517 151.319 166.517 150.395C166.517 149.527 166.734 148.771 167.168 148.127C167.602 147.483 168.211 146.993 168.995 146.657C169.779 146.307 170.675 146.132 171.683 146.132C173.195 146.132 174.42 146.503 175.358 147.245C176.31 147.973 176.835 148.995 176.933 150.311H173.699C173.671 149.807 173.454 149.394 173.048 149.072C172.656 148.736 172.131 148.568 171.473 148.568C170.899 148.568 170.437 148.715 170.087 149.009C169.751 149.303 169.583 149.73 169.583 150.29C169.583 150.682 169.709 151.011 169.961 151.277C170.227 151.529 170.549 151.739 170.927 151.907C171.319 152.061 171.865 152.243 172.565 152.453C173.517 152.733 174.294 153.013 174.896 153.293C175.498 153.573 176.016 153.993 176.45 154.553C176.884 155.113 177.101 155.848 177.101 156.758C177.101 157.542 176.898 158.27 176.492 158.942C176.086 159.614 175.491 160.153 174.707 160.559C173.923 160.951 172.992 161.147 171.914 161.147ZM195.631 146.342V161H192.691V151.466L188.764 161H186.538L182.59 151.466V161H179.65V146.342H182.989L187.651 157.241L192.313 146.342H195.631ZM201.477 148.715V152.39H206.412V154.721H201.477V158.606H207.042V161H198.537V146.321H207.042V148.715H201.477ZM112.066 178.482C112.892 178.636 113.571 179.049 114.103 179.721C114.635 180.393 114.901 181.163 114.901 182.031C114.901 182.815 114.705 183.508 114.313 184.11C113.935 184.698 113.382 185.16 112.654 185.496C111.926 185.832 111.065 186 110.071 186H103.75V171.342H109.798C110.792 171.342 111.646 171.503 112.36 171.825C113.088 172.147 113.634 172.595 113.998 173.169C114.376 173.743 114.565 174.394 114.565 175.122C114.565 175.976 114.334 176.69 113.872 177.264C113.424 177.838 112.822 178.244 112.066 178.482ZM106.69 177.39H109.378C110.078 177.39 110.617 177.236 110.995 176.928C111.373 176.606 111.562 176.151 111.562 175.563C111.562 174.975 111.373 174.52 110.995 174.198C110.617 173.876 110.078 173.715 109.378 173.715H106.69V177.39ZM109.651 183.606C110.365 183.606 110.918 183.438 111.31 183.102C111.716 182.766 111.919 182.29 111.919 181.674C111.919 181.044 111.709 180.554 111.289 180.204C110.869 179.84 110.302 179.658 109.588 179.658H106.69V183.606H109.651ZM128.227 174.366V186H125.266V184.53C124.888 185.034 124.391 185.433 123.775 185.727C123.173 186.007 122.515 186.147 121.801 186.147C120.891 186.147 120.086 185.958 119.386 185.58C118.686 185.188 118.133 184.621 117.727 183.879C117.335 183.123 117.139 182.227 117.139 181.191V174.366H120.079V180.771C120.079 181.695 120.31 182.409 120.772 182.913C121.234 183.403 121.864 183.648 122.662 183.648C123.474 183.648 124.111 183.403 124.573 182.913C125.035 182.409 125.266 181.695 125.266 180.771V174.366H128.227ZM135.58 186.189C134.628 186.189 133.774 186.021 133.018 185.685C132.262 185.335 131.66 184.866 131.212 184.278C130.778 183.69 130.54 183.039 130.498 182.325H133.459C133.515 182.773 133.732 183.144 134.11 183.438C134.502 183.732 134.985 183.879 135.559 183.879C136.119 183.879 136.553 183.767 136.861 183.543C137.183 183.319 137.344 183.032 137.344 182.682C137.344 182.304 137.148 182.024 136.756 181.842C136.378 181.646 135.769 181.436 134.929 181.212C134.061 181.002 133.347 180.785 132.787 180.561C132.241 180.337 131.765 179.994 131.359 179.532C130.967 179.07 130.771 178.447 130.771 177.663C130.771 177.019 130.953 176.431 131.317 175.899C131.695 175.367 132.227 174.947 132.913 174.639C133.613 174.331 134.432 174.177 135.37 174.177C136.756 174.177 137.862 174.527 138.688 175.227C139.514 175.913 139.969 176.844 140.053 178.02H137.239C137.197 177.558 137.001 177.194 136.651 176.928C136.315 176.648 135.86 176.508 135.286 176.508C134.754 176.508 134.341 176.606 134.047 176.802C133.767 176.998 133.627 177.271 133.627 177.621C133.627 178.013 133.823 178.314 134.215 178.524C134.607 178.72 135.216 178.923 136.042 179.133C136.882 179.343 137.575 179.56 138.121 179.784C138.667 180.008 139.136 180.358 139.528 180.834C139.934 181.296 140.144 181.912 140.158 182.682C140.158 183.354 139.969 183.956 139.591 184.488C139.227 185.02 138.695 185.44 137.995 185.748C137.309 186.042 136.504 186.189 135.58 186.189ZM144.063 172.98C143.545 172.98 143.111 172.819 142.761 172.497C142.425 172.161 142.257 171.748 142.257 171.258C142.257 170.768 142.425 170.362 142.761 170.04C143.111 169.704 143.545 169.536 144.063 169.536C144.581 169.536 145.008 169.704 145.344 170.04C145.694 170.362 145.869 170.768 145.869 171.258C145.869 171.748 145.694 172.161 145.344 172.497C145.008 172.819 144.581 172.98 144.063 172.98ZM145.512 174.366V186H142.572V174.366H145.512ZM154.863 174.198C156.249 174.198 157.369 174.639 158.223 175.521C159.077 176.389 159.504 177.607 159.504 179.175V186H156.564V179.574C156.564 178.65 156.333 177.943 155.871 177.453C155.409 176.949 154.779 176.697 153.981 176.697C153.169 176.697 152.525 176.949 152.049 177.453C151.587 177.943 151.356 178.65 151.356 179.574V186H148.416V174.366H151.356V175.815C151.748 175.311 152.245 174.919 152.847 174.639C153.463 174.345 154.135 174.198 154.863 174.198ZM173.115 179.931C173.115 180.351 173.087 180.729 173.031 181.065H164.526C164.596 181.905 164.89 182.563 165.408 183.039C165.926 183.515 166.563 183.753 167.319 183.753C168.411 183.753 169.188 183.284 169.65 182.346H172.821C172.485 183.466 171.841 184.39 170.889 185.118C169.937 185.832 168.768 186.189 167.382 186.189C166.262 186.189 165.254 185.944 164.358 185.454C163.476 184.95 162.783 184.243 162.279 183.333C161.789 182.423 161.544 181.373 161.544 180.183C161.544 178.979 161.789 177.922 162.279 177.012C162.769 176.102 163.455 175.402 164.337 174.912C165.219 174.422 166.234 174.177 167.382 174.177C168.488 174.177 169.475 174.415 170.343 174.891C171.225 175.367 171.904 176.046 172.38 176.928C172.87 177.796 173.115 178.797 173.115 179.931ZM170.07 179.091C170.056 178.335 169.783 177.733 169.251 177.285C168.719 176.823 168.068 176.592 167.298 176.592C166.57 176.592 165.954 176.816 165.45 177.264C164.96 177.698 164.659 178.307 164.547 179.091H170.07ZM179.713 186.189C178.761 186.189 177.907 186.021 177.151 185.685C176.395 185.335 175.793 184.866 175.345 184.278C174.911 183.69 174.673 183.039 174.631 182.325H177.592C177.648 182.773 177.865 183.144 178.243 183.438C178.635 183.732 179.118 183.879 179.692 183.879C180.252 183.879 180.686 183.767 180.994 183.543C181.316 183.319 181.477 183.032 181.477 182.682C181.477 182.304 181.281 182.024 180.889 181.842C180.511 181.646 179.902 181.436 179.062 181.212C178.194 181.002 177.48 180.785 176.92 180.561C176.374 180.337 175.898 179.994 175.492 179.532C175.1 179.07 174.904 178.447 174.904 177.663C174.904 177.019 175.086 176.431 175.45 175.899C175.828 175.367 176.36 174.947 177.046 174.639C177.746 174.331 178.565 174.177 179.503 174.177C180.889 174.177 181.995 174.527 182.821 175.227C183.647 175.913 184.102 176.844 184.186 178.02H181.372C181.33 177.558 181.134 177.194 180.784 176.928C180.448 176.648 179.993 176.508 179.419 176.508C178.887 176.508 178.474 176.606 178.18 176.802C177.9 176.998 177.76 177.271 177.76 177.621C177.76 178.013 177.956 178.314 178.348 178.524C178.74 178.72 179.349 178.923 180.175 179.133C181.015 179.343 181.708 179.56 182.254 179.784C182.8 180.008 183.269 180.358 183.661 180.834C184.067 181.296 184.277 181.912 184.291 182.682C184.291 183.354 184.102 183.956 183.724 184.488C183.36 185.02 182.828 185.44 182.128 185.748C181.442 186.042 180.637 186.189 179.713 186.189ZM191.156 186.189C190.204 186.189 189.35 186.021 188.594 185.685C187.838 185.335 187.236 184.866 186.788 184.278C186.354 183.69 186.116 183.039 186.074 182.325H189.035C189.091 182.773 189.308 183.144 189.686 183.438C190.078 183.732 190.561 183.879 191.135 183.879C191.695 183.879 192.129 183.767 192.437 183.543C192.759 183.319 192.92 183.032 192.92 182.682C192.92 182.304 192.724 182.024 192.332 181.842C191.954 181.646 191.345 181.436 190.505 181.212C189.637 181.002 188.923 180.785 188.363 180.561C187.817 180.337 187.341 179.994 186.935 179.532C186.543 179.07 186.347 178.447 186.347 177.663C186.347 177.019 186.529 176.431 186.893 175.899C187.271 175.367 187.803 174.947 188.489 174.639C189.189 174.331 190.008 174.177 190.946 174.177C192.332 174.177 193.438 174.527 194.264 175.227C195.09 175.913 195.545 176.844 195.629 178.02H192.815C192.773 177.558 192.577 177.194 192.227 176.928C191.891 176.648 191.436 176.508 190.862 176.508C190.33 176.508 189.917 176.606 189.623 176.802C189.343 176.998 189.203 177.271 189.203 177.621C189.203 178.013 189.399 178.314 189.791 178.524C190.183 178.72 190.792 178.923 191.618 179.133C192.458 179.343 193.151 179.56 193.697 179.784C194.243 180.008 194.712 180.358 195.104 180.834C195.51 181.296 195.72 181.912 195.734 182.682C195.734 183.354 195.545 183.956 195.167 184.488C194.803 185.02 194.271 185.44 193.571 185.748C192.885 186.042 192.08 186.189 191.156 186.189ZM103.826 200.878C103.826 201.662 103.637 202.397 103.259 203.083C102.895 203.769 102.314 204.322 101.516 204.742C100.732 205.162 99.7385 205.372 98.5345 205.372H96.0775V211H93.1375V196.342H98.5345C99.6685 196.342 100.634 196.538 101.432 196.93C102.23 197.322 102.825 197.861 103.217 198.547C103.623 199.233 103.826 200.01 103.826 200.878ZM98.4085 202.999C99.2205 202.999 99.8225 202.817 100.214 202.453C100.606 202.075 100.802 201.55 100.802 200.878C100.802 199.45 100.004 198.736 98.4085 198.736H96.0775V202.999H98.4085ZM111.08 211.189C109.96 211.189 108.952 210.944 108.056 210.454C107.16 209.95 106.453 209.243 105.935 208.333C105.431 207.423 105.179 206.373 105.179 205.183C105.179 203.993 105.438 202.943 105.956 202.033C106.488 201.123 107.209 200.423 108.119 199.933C109.029 199.429 110.044 199.177 111.164 199.177C112.284 199.177 113.299 199.429 114.209 199.933C115.119 200.423 115.833 201.123 116.351 202.033C116.883 202.943 117.149 203.993 117.149 205.183C117.149 206.373 116.876 207.423 116.33 208.333C115.798 209.243 115.07 209.95 114.146 210.454C113.236 210.944 112.214 211.189 111.08 211.189ZM111.08 208.627C111.612 208.627 112.109 208.501 112.571 208.249C113.047 207.983 113.425 207.591 113.705 207.073C113.985 206.555 114.125 205.925 114.125 205.183C114.125 204.077 113.831 203.23 113.243 202.642C112.669 202.04 111.962 201.739 111.122 201.739C110.282 201.739 109.575 202.04 109.001 202.642C108.441 203.23 108.161 204.077 108.161 205.183C108.161 206.289 108.434 207.143 108.98 207.745C109.54 208.333 110.24 208.627 111.08 208.627ZM122.245 201.046C122.623 200.514 123.141 200.073 123.799 199.723C124.471 199.359 125.234 199.177 126.088 199.177C127.082 199.177 127.978 199.422 128.776 199.912C129.588 200.402 130.225 201.102 130.687 202.012C131.163 202.908 131.401 203.951 131.401 205.141C131.401 206.331 131.163 207.388 130.687 208.312C130.225 209.222 129.588 209.929 128.776 210.433C127.978 210.937 127.082 211.189 126.088 211.189C125.234 211.189 124.478 211.014 123.82 210.664C123.176 210.314 122.651 209.873 122.245 209.341V216.544H119.305V199.366H122.245V201.046ZM128.398 205.141C128.398 204.441 128.251 203.839 127.957 203.335C127.677 202.817 127.299 202.425 126.823 202.159C126.361 201.893 125.857 201.76 125.311 201.76C124.779 201.76 124.275 201.9 123.799 202.18C123.337 202.446 122.959 202.838 122.665 203.356C122.385 203.874 122.245 204.483 122.245 205.183C122.245 205.883 122.385 206.492 122.665 207.01C122.959 207.528 123.337 207.927 123.799 208.207C124.275 208.473 124.779 208.606 125.311 208.606C125.857 208.606 126.361 208.466 126.823 208.186C127.299 207.906 127.677 207.507 127.957 206.989C128.251 206.471 128.398 205.855 128.398 205.141ZM144.521 199.366V211H141.56V209.53C141.182 210.034 140.685 210.433 140.069 210.727C139.467 211.007 138.809 211.147 138.095 211.147C137.185 211.147 136.38 210.958 135.68 210.58C134.98 210.188 134.427 209.621 134.021 208.879C133.629 208.123 133.433 207.227 133.433 206.191V199.366H136.373V205.771C136.373 206.695 136.604 207.409 137.066 207.913C137.528 208.403 138.158 208.648 138.956 208.648C139.768 208.648 140.405 208.403 140.867 207.913C141.329 207.409 141.56 206.695 141.56 205.771V199.366H144.521ZM150.362 195.46V211H147.422V195.46H150.362ZM152.51 205.141C152.51 203.965 152.741 202.922 153.203 202.012C153.679 201.102 154.316 200.402 155.114 199.912C155.926 199.422 156.829 199.177 157.823 199.177C158.691 199.177 159.447 199.352 160.091 199.702C160.749 200.052 161.274 200.493 161.666 201.025V199.366H164.627V211H161.666V209.299C161.288 209.845 160.763 210.3 160.091 210.664C159.433 211.014 158.67 211.189 157.802 211.189C156.822 211.189 155.926 210.937 155.114 210.433C154.316 209.929 153.679 209.222 153.203 208.312C152.741 207.388 152.51 206.331 152.51 205.141ZM161.666 205.183C161.666 204.469 161.526 203.86 161.246 203.356C160.966 202.838 160.588 202.446 160.112 202.18C159.636 201.9 159.125 201.76 158.579 201.76C158.033 201.76 157.529 201.893 157.067 202.159C156.605 202.425 156.227 202.817 155.933 203.335C155.653 203.839 155.513 204.441 155.513 205.141C155.513 205.841 155.653 206.457 155.933 206.989C156.227 207.507 156.605 207.906 157.067 208.186C157.543 208.466 158.047 208.606 158.579 208.606C159.125 208.606 159.636 208.473 160.112 208.207C160.588 207.927 160.966 207.535 161.246 207.031C161.526 206.513 161.666 205.897 161.666 205.183ZM170.922 201.781V207.409C170.922 207.801 171.013 208.088 171.195 208.27C171.391 208.438 171.713 208.522 172.161 208.522H173.526V211H171.678C169.2 211 167.961 209.796 167.961 207.388V201.781H166.575V199.366H167.961V196.489H170.922V199.366H173.526V201.781H170.922ZM177.131 197.98C176.613 197.98 176.179 197.819 175.829 197.497C175.493 197.161 175.325 196.748 175.325 196.258C175.325 195.768 175.493 195.362 175.829 195.04C176.179 194.704 176.613 194.536 177.131 194.536C177.649 194.536 178.076 194.704 178.412 195.04C178.762 195.362 178.937 195.768 178.937 196.258C178.937 196.748 178.762 197.161 178.412 197.497C178.076 197.819 177.649 197.98 177.131 197.98ZM178.58 199.366V211H175.64V199.366H178.58ZM186.651 211.189C185.531 211.189 184.523 210.944 183.627 210.454C182.731 209.95 182.024 209.243 181.506 208.333C181.002 207.423 180.75 206.373 180.75 205.183C180.75 203.993 181.009 202.943 181.527 202.033C182.059 201.123 182.78 200.423 183.69 199.933C184.6 199.429 185.615 199.177 186.735 199.177C187.855 199.177 188.87 199.429 189.78 199.933C190.69 200.423 191.404 201.123 191.922 202.033C192.454 202.943 192.72 203.993 192.72 205.183C192.72 206.373 192.447 207.423 191.901 208.333C191.369 209.243 190.641 209.95 189.717 210.454C188.807 210.944 187.785 211.189 186.651 211.189ZM186.651 208.627C187.183 208.627 187.68 208.501 188.142 208.249C188.618 207.983 188.996 207.591 189.276 207.073C189.556 206.555 189.696 205.925 189.696 205.183C189.696 204.077 189.402 203.23 188.814 202.642C188.24 202.04 187.533 201.739 186.693 201.739C185.853 201.739 185.146 202.04 184.572 202.642C184.012 203.23 183.732 204.077 183.732 205.183C183.732 206.289 184.005 207.143 184.551 207.745C185.111 208.333 185.811 208.627 186.651 208.627ZM201.324 199.198C202.71 199.198 203.83 199.639 204.684 200.521C205.538 201.389 205.965 202.607 205.965 204.175V211H203.025V204.574C203.025 203.65 202.794 202.943 202.332 202.453C201.87 201.949 201.24 201.697 200.442 201.697C199.63 201.697 198.986 201.949 198.51 202.453C198.048 202.943 197.817 203.65 197.817 204.574V211H194.877V199.366H197.817V200.815C198.209 200.311 198.706 199.919 199.308 199.639C199.924 199.345 200.596 199.198 201.324 199.198Z" fill="white"/>
<circle cx="150" cy="696" r="135" stroke="white" stroke-width="30"/>
<mask id="path-5-inside-2_1163_855" fill="white">
<path d="M150 546C169.698 546 189.204 549.88 207.403 557.418C225.601 564.956 242.137 576.005 256.066 589.934C269.995 603.863 281.044 620.399 288.582 638.597C296.12 656.796 300 676.302 300 696C300 715.698 296.12 735.204 288.582 753.403C281.044 771.601 269.995 788.137 256.066 802.066C242.137 815.995 225.601 827.044 207.403 834.582C189.204 842.12 169.698 846 150 846V815.947C165.752 815.947 181.349 812.844 195.902 806.817C210.454 800.789 223.677 791.953 234.815 780.815C245.953 769.677 254.789 756.454 260.816 741.902C266.844 727.349 269.947 711.752 269.947 696C269.947 680.248 266.844 664.651 260.816 650.098C254.789 635.546 245.953 622.323 234.815 611.185C223.677 600.047 210.454 591.211 195.902 585.184C181.349 579.156 165.752 576.053 150 576.053V546Z"/>
</mask>
<path d="M150 546C169.698 546 189.204 549.88 207.403 557.418C225.601 564.956 242.137 576.005 256.066 589.934C269.995 603.863 281.044 620.399 288.582 638.597C296.12 656.796 300 676.302 300 696C300 715.698 296.12 735.204 288.582 753.403C281.044 771.601 269.995 788.137 256.066 802.066C242.137 815.995 225.601 827.044 207.403 834.582C189.204 842.12 169.698 846 150 846V815.947C165.752 815.947 181.349 812.844 195.902 806.817C210.454 800.789 223.677 791.953 234.815 780.815C245.953 769.677 254.789 756.454 260.816 741.902C266.844 727.349 269.947 711.752 269.947 696C269.947 680.248 266.844 664.651 260.816 650.098C254.789 635.546 245.953 622.323 234.815 611.185C223.677 600.047 210.454 591.211 195.902 585.184C181.349 579.156 165.752 576.053 150 576.053V546Z" stroke="#CBD400" stroke-width="60" mask="url(#path-5-inside-2_1163_855)"/>
<path d="M105.626 670.576C105.626 672.629 105.085 674.533 104.002 676.288C102.957 678.005 101.389 679.424 99.298 680.544C97.2446 681.627 94.7993 682.224 91.962 682.336V686.872H88.378V682.28C84.4206 681.944 81.2286 680.768 78.802 678.752C76.3753 676.699 75.0873 673.917 74.938 670.408H85.13C85.354 672.648 86.4366 674.085 88.378 674.72V665.872C85.466 665.125 83.1326 664.397 81.378 663.688C79.6606 662.979 78.1486 661.84 76.842 660.272C75.5353 658.704 74.882 656.557 74.882 653.832C74.882 650.435 76.1326 647.709 78.634 645.656C81.1726 643.603 84.4206 642.445 88.378 642.184V637.648H91.962V642.184C95.882 642.483 98.9806 643.621 101.258 645.6C103.535 647.579 104.805 650.323 105.066 653.832H94.818C94.594 651.816 93.642 650.509 91.962 649.912V658.592C95.0606 659.451 97.45 660.216 99.13 660.888C100.81 661.56 102.303 662.68 103.61 664.248C104.954 665.779 105.626 667.888 105.626 670.576ZM85.018 653.384C85.018 654.317 85.298 655.101 85.858 655.736C86.4553 656.371 87.2953 656.931 88.378 657.416V649.632C87.3326 649.819 86.5113 650.229 85.914 650.864C85.3166 651.461 85.018 652.301 85.018 653.384ZM91.962 674.888C93.082 674.701 93.9593 674.253 94.594 673.544C95.266 672.835 95.602 671.957 95.602 670.912C95.602 669.941 95.2846 669.157 94.65 668.56C94.0526 667.925 93.1566 667.384 91.962 666.936V674.888ZM140.581 649.464H123.109V657.192C123.856 656.371 124.901 655.699 126.245 655.176C127.589 654.653 129.045 654.392 130.613 654.392C133.413 654.392 135.728 655.027 137.557 656.296C139.424 657.565 140.787 659.208 141.645 661.224C142.504 663.24 142.933 665.424 142.933 667.776C142.933 672.144 141.701 675.616 139.237 678.192C136.773 680.731 133.301 682 128.821 682C125.835 682 123.24 681.496 121.037 680.488C118.835 679.443 117.136 678.005 115.941 676.176C114.747 674.347 114.093 672.237 113.981 669.848H123.333C123.557 671.005 124.099 671.976 124.957 672.76C125.816 673.507 126.992 673.88 128.485 673.88C130.24 673.88 131.547 673.32 132.405 672.2C133.264 671.08 133.693 669.587 133.693 667.72C133.693 665.891 133.245 664.491 132.349 663.52C131.453 662.549 130.147 662.064 128.429 662.064C127.16 662.064 126.115 662.381 125.293 663.016C124.472 663.613 123.931 664.416 123.669 665.424H114.429V641.064H140.581V649.464ZM153.651 682.448C151.971 682.448 150.59 681.963 149.507 680.992C148.462 679.984 147.939 678.752 147.939 677.296C147.939 675.803 148.462 674.552 149.507 673.544C150.59 672.536 151.971 672.032 153.651 672.032C155.294 672.032 156.638 672.536 157.683 673.544C158.766 674.552 159.307 675.803 159.307 677.296C159.307 678.752 158.766 679.984 157.683 680.992C156.638 681.963 155.294 682.448 153.651 682.448ZM163.688 674.328C164.957 673.32 165.536 672.853 165.424 672.928C169.083 669.904 171.957 667.421 174.048 665.48C176.176 663.539 177.968 661.504 179.424 659.376C180.88 657.248 181.608 655.176 181.608 653.16C181.608 651.629 181.253 650.435 180.544 649.576C179.835 648.717 178.771 648.288 177.352 648.288C175.933 648.288 174.813 648.829 173.992 649.912C173.208 650.957 172.816 652.451 172.816 654.392H163.576C163.651 651.219 164.323 648.568 165.592 646.44C166.899 644.312 168.597 642.744 170.688 641.736C172.816 640.728 175.168 640.224 177.744 640.224C182.187 640.224 185.528 641.363 187.768 643.64C190.045 645.917 191.184 648.885 191.184 652.544C191.184 656.539 189.821 660.253 187.096 663.688C184.371 667.085 180.899 670.408 176.68 673.656H191.8V681.44H163.688V674.328ZM225.248 642.688V650.36H214.832V682H205.256V650.36H194.84V642.688H225.248ZM115.528 692.342V701.414C115.528 702.408 115.787 703.171 116.305 703.703C116.823 704.221 117.551 704.48 118.489 704.48C119.441 704.48 120.176 704.221 120.694 703.703C121.212 703.171 121.471 702.408 121.471 701.414V692.342H124.432V701.393C124.432 702.639 124.159 703.696 123.613 704.564C123.081 705.418 122.36 706.062 121.45 706.496C120.554 706.93 119.553 707.147 118.447 707.147C117.355 707.147 116.361 706.93 115.465 706.496C114.583 706.062 113.883 705.418 113.365 704.564C112.847 703.696 112.588 702.639 112.588 701.393V692.342H115.528ZM133.72 695.198C135.106 695.198 136.226 695.639 137.08 696.521C137.934 697.389 138.361 698.607 138.361 700.175V707H135.421V700.574C135.421 699.65 135.19 698.943 134.728 698.453C134.266 697.949 133.636 697.697 132.838 697.697C132.026 697.697 131.382 697.949 130.906 698.453C130.444 698.943 130.213 699.65 130.213 700.574V707H127.273V695.366H130.213V696.815C130.605 696.311 131.102 695.919 131.704 695.639C132.32 695.345 132.992 695.198 133.72 695.198ZM155.605 695.198C157.033 695.198 158.181 695.639 159.049 696.521C159.931 697.389 160.372 698.607 160.372 700.175V707H157.432V700.574C157.432 699.664 157.201 698.971 156.739 698.495C156.277 698.005 155.647 697.76 154.849 697.76C154.051 697.76 153.414 698.005 152.938 698.495C152.476 698.971 152.245 699.664 152.245 700.574V707H149.305V700.574C149.305 699.664 149.074 698.971 148.612 698.495C148.15 698.005 147.52 697.76 146.722 697.76C145.91 697.76 145.266 698.005 144.79 698.495C144.328 698.971 144.097 699.664 144.097 700.574V707H141.157V695.366H144.097V696.773C144.475 696.283 144.958 695.898 145.546 695.618C146.148 695.338 146.806 695.198 147.52 695.198C148.43 695.198 149.242 695.394 149.956 695.786C150.67 696.164 151.223 696.71 151.615 697.424C151.993 696.752 152.539 696.213 153.253 695.807C153.981 695.401 154.765 695.198 155.605 695.198ZM173.976 700.931C173.976 701.351 173.948 701.729 173.892 702.065H165.387C165.457 702.905 165.751 703.563 166.269 704.039C166.787 704.515 167.424 704.753 168.18 704.753C169.272 704.753 170.049 704.284 170.511 703.346H173.682C173.346 704.466 172.702 705.39 171.75 706.118C170.798 706.832 169.629 707.189 168.243 707.189C167.123 707.189 166.115 706.944 165.219 706.454C164.337 705.95 163.644 705.243 163.14 704.333C162.65 703.423 162.405 702.373 162.405 701.183C162.405 699.979 162.65 698.922 163.14 698.012C163.63 697.102 164.316 696.402 165.198 695.912C166.08 695.422 167.095 695.177 168.243 695.177C169.349 695.177 170.336 695.415 171.204 695.891C172.086 696.367 172.765 697.046 173.241 697.928C173.731 698.796 173.976 699.797 173.976 700.931ZM170.931 700.091C170.917 699.335 170.644 698.733 170.112 698.285C169.58 697.823 168.929 697.592 168.159 697.592C167.431 697.592 166.815 697.816 166.311 698.264C165.821 698.698 165.52 699.307 165.408 700.091H170.931ZM179.545 697.781V703.409C179.545 703.801 179.636 704.088 179.818 704.27C180.014 704.438 180.336 704.522 180.784 704.522H182.149V707H180.301C177.823 707 176.584 705.796 176.584 703.388V697.781H175.198V695.366H176.584V692.489H179.545V695.366H182.149V697.781H179.545ZM107.213 717.342V719.715H101.102V723.474H105.785V725.805H101.102V732H98.1619V717.342H107.213ZM110.789 718.98C110.271 718.98 109.837 718.819 109.487 718.497C109.151 718.161 108.983 717.748 108.983 717.258C108.983 716.768 109.151 716.362 109.487 716.04C109.837 715.704 110.271 715.536 110.789 715.536C111.307 715.536 111.734 715.704 112.07 716.04C112.42 716.362 112.595 716.768 112.595 717.258C112.595 717.748 112.42 718.161 112.07 718.497C111.734 718.819 111.307 718.98 110.789 718.98ZM112.238 720.366V732H109.298V720.366H112.238ZM121.589 720.198C122.975 720.198 124.095 720.639 124.949 721.521C125.803 722.389 126.23 723.607 126.23 725.175V732H123.29V725.574C123.29 724.65 123.059 723.943 122.597 723.453C122.135 722.949 121.505 722.697 120.707 722.697C119.895 722.697 119.251 722.949 118.775 723.453C118.313 723.943 118.082 724.65 118.082 725.574V732H115.142V720.366H118.082V721.815C118.474 721.311 118.971 720.919 119.573 720.639C120.189 720.345 120.861 720.198 121.589 720.198ZM128.27 726.141C128.27 724.965 128.501 723.922 128.963 723.012C129.439 722.102 130.076 721.402 130.874 720.912C131.686 720.422 132.589 720.177 133.583 720.177C134.451 720.177 135.207 720.352 135.851 720.702C136.509 721.052 137.034 721.493 137.426 722.025V720.366H140.387V732H137.426V730.299C137.048 730.845 136.523 731.3 135.851 731.664C135.193 732.014 134.43 732.189 133.562 732.189C132.582 732.189 131.686 731.937 130.874 731.433C130.076 730.929 129.439 730.222 128.963 729.312C128.501 728.388 128.27 727.331 128.27 726.141ZM137.426 726.183C137.426 725.469 137.286 724.86 137.006 724.356C136.726 723.838 136.348 723.446 135.872 723.18C135.396 722.9 134.885 722.76 134.339 722.76C133.793 722.76 133.289 722.893 132.827 723.159C132.365 723.425 131.987 723.817 131.693 724.335C131.413 724.839 131.273 725.441 131.273 726.141C131.273 726.841 131.413 727.457 131.693 727.989C131.987 728.507 132.365 728.906 132.827 729.186C133.303 729.466 133.807 729.606 134.339 729.606C134.885 729.606 135.396 729.473 135.872 729.207C136.348 728.927 136.726 728.535 137.006 728.031C137.286 727.513 137.426 726.897 137.426 726.183ZM149.706 720.198C151.092 720.198 152.212 720.639 153.066 721.521C153.92 722.389 154.347 723.607 154.347 725.175V732H151.407V725.574C151.407 724.65 151.176 723.943 150.714 723.453C150.252 722.949 149.622 722.697 148.824 722.697C148.012 722.697 147.368 722.949 146.892 723.453C146.43 723.943 146.199 724.65 146.199 725.574V732H143.259V720.366H146.199V721.815C146.591 721.311 147.088 720.919 147.69 720.639C148.306 720.345 148.978 720.198 149.706 720.198ZM156.386 726.183C156.386 724.979 156.631 723.929 157.121 723.033C157.611 722.123 158.29 721.423 159.158 720.933C160.026 720.429 161.02 720.177 162.14 720.177C163.582 720.177 164.772 720.541 165.71 721.269C166.662 721.983 167.299 722.991 167.621 724.293H164.45C164.282 723.789 163.995 723.397 163.589 723.117C163.197 722.823 162.707 722.676 162.119 722.676C161.279 722.676 160.614 722.984 160.124 723.6C159.634 724.202 159.389 725.063 159.389 726.183C159.389 727.289 159.634 728.15 160.124 728.766C160.614 729.368 161.279 729.669 162.119 729.669C163.309 729.669 164.086 729.137 164.45 728.073H167.621C167.299 729.333 166.662 730.334 165.71 731.076C164.758 731.818 163.568 732.189 162.14 732.189C161.02 732.189 160.026 731.944 159.158 731.454C158.29 730.95 157.611 730.25 157.121 729.354C156.631 728.444 156.386 727.387 156.386 726.183ZM171.266 718.98C170.748 718.98 170.314 718.819 169.964 718.497C169.628 718.161 169.46 717.748 169.46 717.258C169.46 716.768 169.628 716.362 169.964 716.04C170.314 715.704 170.748 715.536 171.266 715.536C171.784 715.536 172.211 715.704 172.547 716.04C172.897 716.362 173.072 716.768 173.072 717.258C173.072 717.748 172.897 718.161 172.547 718.497C172.211 718.819 171.784 718.98 171.266 718.98ZM172.715 720.366V732H169.775V720.366H172.715ZM182.067 720.198C183.453 720.198 184.573 720.639 185.427 721.521C186.281 722.389 186.708 723.607 186.708 725.175V732H183.768V725.574C183.768 724.65 183.537 723.943 183.075 723.453C182.613 722.949 181.983 722.697 181.185 722.697C180.373 722.697 179.729 722.949 179.253 723.453C178.791 723.943 178.56 724.65 178.56 725.574V732H175.62V720.366H178.56V721.815C178.952 721.311 179.449 720.919 180.051 720.639C180.667 720.345 181.339 720.198 182.067 720.198ZM194.061 720.177C194.929 720.177 195.692 720.352 196.35 720.702C197.008 721.038 197.526 721.479 197.904 722.025V720.366H200.865V732.084C200.865 733.162 200.648 734.121 200.214 734.961C199.78 735.815 199.129 736.487 198.261 736.977C197.393 737.481 196.343 737.733 195.111 737.733C193.459 737.733 192.101 737.348 191.037 736.578C189.987 735.808 189.392 734.758 189.252 733.428H192.171C192.325 733.96 192.654 734.38 193.158 734.688C193.676 735.01 194.299 735.171 195.027 735.171C195.881 735.171 196.574 734.912 197.106 734.394C197.638 733.89 197.904 733.12 197.904 732.084V730.278C197.526 730.824 197.001 731.279 196.329 731.643C195.671 732.007 194.915 732.189 194.061 732.189C193.081 732.189 192.185 731.937 191.373 731.433C190.561 730.929 189.917 730.222 189.441 729.312C188.979 728.388 188.748 727.331 188.748 726.141C188.748 724.965 188.979 723.922 189.441 723.012C189.917 722.102 190.554 721.402 191.352 720.912C192.164 720.422 193.067 720.177 194.061 720.177ZM197.904 726.183C197.904 725.469 197.764 724.86 197.484 724.356C197.204 723.838 196.826 723.446 196.35 723.18C195.874 722.9 195.363 722.76 194.817 722.76C194.271 722.76 193.767 722.893 193.305 723.159C192.843 723.425 192.465 723.817 192.171 724.335C191.891 724.839 191.751 725.441 191.751 726.141C191.751 726.841 191.891 727.457 192.171 727.989C192.465 728.507 192.843 728.906 193.305 729.186C193.781 729.466 194.285 729.606 194.817 729.606C195.363 729.606 195.874 729.473 196.35 729.207C196.826 728.927 197.204 728.535 197.484 728.031C197.764 727.513 197.904 726.897 197.904 726.183ZM135.688 757H132.748L126.091 746.941V757H123.151V742.321H126.091L132.748 752.401V742.321H135.688V757ZM149.408 750.931C149.408 751.351 149.38 751.729 149.324 752.065H140.819C140.889 752.905 141.183 753.563 141.701 754.039C142.219 754.515 142.856 754.753 143.612 754.753C144.704 754.753 145.481 754.284 145.943 753.346H149.114C148.778 754.466 148.134 755.39 147.182 756.118C146.23 756.832 145.061 757.189 143.675 757.189C142.555 757.189 141.547 756.944 140.651 756.454C139.769 755.95 139.076 755.243 138.572 754.333C138.082 753.423 137.837 752.373 137.837 751.183C137.837 749.979 138.082 748.922 138.572 748.012C139.062 747.102 139.748 746.402 140.63 745.912C141.512 745.422 142.527 745.177 143.675 745.177C144.781 745.177 145.768 745.415 146.636 745.891C147.518 746.367 148.197 747.046 148.673 747.928C149.163 748.796 149.408 749.797 149.408 750.931ZM146.363 750.091C146.349 749.335 146.076 748.733 145.544 748.285C145.012 747.823 144.361 747.592 143.591 747.592C142.863 747.592 142.247 747.816 141.743 748.264C141.253 748.698 140.952 749.307 140.84 750.091H146.363ZM162.369 750.931C162.369 751.351 162.341 751.729 162.285 752.065H153.78C153.85 752.905 154.144 753.563 154.662 754.039C155.18 754.515 155.817 754.753 156.573 754.753C157.665 754.753 158.442 754.284 158.904 753.346H162.075C161.739 754.466 161.095 755.39 160.143 756.118C159.191 756.832 158.022 757.189 156.636 757.189C155.516 757.189 154.508 756.944 153.612 756.454C152.73 755.95 152.037 755.243 151.533 754.333C151.043 753.423 150.798 752.373 150.798 751.183C150.798 749.979 151.043 748.922 151.533 748.012C152.023 747.102 152.709 746.402 153.591 745.912C154.473 745.422 155.488 745.177 156.636 745.177C157.742 745.177 158.729 745.415 159.597 745.891C160.479 746.367 161.158 747.046 161.634 747.928C162.124 748.796 162.369 749.797 162.369 750.931ZM159.324 750.091C159.31 749.335 159.037 748.733 158.505 748.285C157.973 747.823 157.322 747.592 156.552 747.592C155.824 747.592 155.208 747.816 154.704 748.264C154.214 748.698 153.913 749.307 153.801 750.091H159.324ZM163.759 751.141C163.759 749.965 163.99 748.922 164.452 748.012C164.928 747.102 165.572 746.402 166.384 745.912C167.196 745.422 168.099 745.177 169.093 745.177C169.849 745.177 170.57 745.345 171.256 745.681C171.942 746.003 172.488 746.437 172.894 746.983V741.46H175.876V757H172.894V755.278C172.53 755.852 172.019 756.314 171.361 756.664C170.703 757.014 169.94 757.189 169.072 757.189C168.092 757.189 167.196 756.937 166.384 756.433C165.572 755.929 164.928 755.222 164.452 754.312C163.99 753.388 163.759 752.331 163.759 751.141ZM172.915 751.183C172.915 750.469 172.775 749.86 172.495 749.356C172.215 748.838 171.837 748.446 171.361 748.18C170.885 747.9 170.374 747.76 169.828 747.76C169.282 747.76 168.778 747.893 168.316 748.159C167.854 748.425 167.476 748.817 167.182 749.335C166.902 749.839 166.762 750.441 166.762 751.141C166.762 751.841 166.902 752.457 167.182 752.989C167.476 753.507 167.854 753.906 168.316 754.186C168.792 754.466 169.296 754.606 169.828 754.606C170.374 754.606 170.885 754.473 171.361 754.207C171.837 753.927 172.215 753.535 172.495 753.031C172.775 752.513 172.915 751.897 172.915 751.183Z" fill="white"/>
<circle cx="381" cy="423" r="135" stroke="white" stroke-width="30"/>
<mask id="path-8-inside-3_1163_855" fill="white">
<path d="M381 273C412.677 273 443.541 283.028 469.168 301.647C494.795 320.267 513.87 346.521 523.658 376.647C533.447 406.774 533.447 439.226 523.658 469.353C513.87 499.479 494.795 525.733 469.168 544.353L451.503 520.039C471.996 505.15 487.249 484.156 495.076 460.066C502.904 435.975 502.904 410.025 495.076 385.934C487.249 361.844 471.996 340.85 451.503 325.961C431.01 311.072 406.33 303.053 381 303.053V273Z"/>
</mask>
<path d="M381 273C412.677 273 443.541 283.028 469.168 301.647C494.795 320.267 513.87 346.521 523.658 376.647C533.447 406.774 533.447 439.226 523.658 469.353C513.87 499.479 494.795 525.733 469.168 544.353L451.503 520.039C471.996 505.15 487.249 484.156 495.076 460.066C502.904 435.975 502.904 410.025 495.076 385.934C487.249 361.844 471.996 340.85 451.503 325.961C431.01 311.072 406.33 303.053 381 303.053V273Z" stroke="#CBD400" stroke-width="60" mask="url(#path-8-inside-3_1163_855)"/>
<path d="M331.934 401.72V393.992L349.63 368.68H360.326V393.432H364.918V401.72H360.326V409H350.75V401.72H331.934ZM351.422 379.208L342.014 393.432H351.422V379.208ZM369.609 388C369.609 381.579 370.841 376.52 373.305 372.824C375.806 369.128 379.82 367.28 385.345 367.28C390.87 367.28 394.865 369.128 397.329 372.824C399.83 376.52 401.081 381.579 401.081 388C401.081 394.496 399.83 399.592 397.329 403.288C394.865 406.984 390.87 408.832 385.345 408.832C379.82 408.832 375.806 406.984 373.305 403.288C370.841 399.592 369.609 394.496 369.609 388ZM391.673 388C391.673 384.229 391.262 381.336 390.441 379.32C389.62 377.267 387.921 376.24 385.345 376.24C382.769 376.24 381.07 377.267 380.249 379.32C379.428 381.336 379.017 384.229 379.017 388C379.017 390.539 379.166 392.648 379.465 394.328C379.764 395.971 380.361 397.315 381.257 398.36C382.19 399.368 383.553 399.872 385.345 399.872C387.137 399.872 388.481 399.368 389.377 398.36C390.31 397.315 390.926 395.971 391.225 394.328C391.524 392.648 391.673 390.539 391.673 388ZM404.878 390.3C404.878 388.577 405.377 387.229 406.374 386.254C407.394 385.279 408.697 384.792 410.284 384.792C411.871 384.792 413.163 385.279 414.16 386.254C415.18 387.229 415.69 388.577 415.69 390.3C415.69 392.045 415.18 393.405 414.16 394.38C413.163 395.355 411.871 395.842 410.284 395.842C408.697 395.842 407.394 395.355 406.374 394.38C405.377 393.405 404.878 392.045 404.878 390.3ZM426.706 385.2L413.344 409H408.72L422.048 385.2H426.706ZM410.25 387.648C409.003 387.648 408.38 388.532 408.38 390.3C408.38 392.091 409.003 392.986 410.25 392.986C410.862 392.986 411.338 392.771 411.678 392.34C412.018 391.887 412.188 391.207 412.188 390.3C412.188 388.532 411.542 387.648 410.25 387.648ZM419.804 403.866C419.804 402.121 420.303 400.772 421.3 399.82C422.32 398.845 423.623 398.358 425.21 398.358C426.797 398.358 428.077 398.845 429.052 399.82C430.049 400.772 430.548 402.121 430.548 403.866C430.548 405.611 430.049 406.971 429.052 407.946C428.077 408.921 426.797 409.408 425.21 409.408C423.601 409.408 422.297 408.921 421.3 407.946C420.303 406.971 419.804 405.611 419.804 403.866ZM425.176 401.214C423.884 401.214 423.238 402.098 423.238 403.866C423.238 405.657 423.884 406.552 425.176 406.552C426.445 406.552 427.08 405.657 427.08 403.866C427.08 402.098 426.445 401.214 425.176 401.214ZM324.503 434H321.563L314.906 423.941V434H311.966V419.321H314.906L321.563 429.401V419.321H324.503V434ZM326.652 428.141C326.652 426.965 326.883 425.922 327.345 425.012C327.821 424.102 328.458 423.402 329.256 422.912C330.068 422.422 330.971 422.177 331.965 422.177C332.833 422.177 333.589 422.352 334.233 422.702C334.891 423.052 335.416 423.493 335.808 424.025V422.366H338.769V434H335.808V432.299C335.43 432.845 334.905 433.3 334.233 433.664C333.575 434.014 332.812 434.189 331.944 434.189C330.964 434.189 330.068 433.937 329.256 433.433C328.458 432.929 327.821 432.222 327.345 431.312C326.883 430.388 326.652 429.331 326.652 428.141ZM335.808 428.183C335.808 427.469 335.668 426.86 335.388 426.356C335.108 425.838 334.73 425.446 334.254 425.18C333.778 424.9 333.267 424.76 332.721 424.76C332.175 424.76 331.671 424.893 331.209 425.159C330.747 425.425 330.369 425.817 330.075 426.335C329.795 426.839 329.655 427.441 329.655 428.141C329.655 428.841 329.795 429.457 330.075 429.989C330.369 430.507 330.747 430.906 331.209 431.186C331.685 431.466 332.189 431.606 332.721 431.606C333.267 431.606 333.778 431.473 334.254 431.207C334.73 430.927 335.108 430.535 335.388 430.031C335.668 429.513 335.808 428.897 335.808 428.183ZM345.064 424.781V430.409C345.064 430.801 345.155 431.088 345.337 431.27C345.533 431.438 345.855 431.522 346.303 431.522H347.668V434H345.82C343.342 434 342.103 432.796 342.103 430.388V424.781H340.717V422.366H342.103V419.489H345.064V422.366H347.668V424.781H345.064ZM351.273 420.98C350.755 420.98 350.321 420.819 349.971 420.497C349.635 420.161 349.467 419.748 349.467 419.258C349.467 418.768 349.635 418.362 349.971 418.04C350.321 417.704 350.755 417.536 351.273 417.536C351.791 417.536 352.218 417.704 352.554 418.04C352.904 418.362 353.079 418.768 353.079 419.258C353.079 419.748 352.904 420.161 352.554 420.497C352.218 420.819 351.791 420.98 351.273 420.98ZM352.722 422.366V434H349.782V422.366H352.722ZM360.793 434.189C359.673 434.189 358.665 433.944 357.769 433.454C356.873 432.95 356.166 432.243 355.648 431.333C355.144 430.423 354.892 429.373 354.892 428.183C354.892 426.993 355.151 425.943 355.669 425.033C356.201 424.123 356.922 423.423 357.832 422.933C358.742 422.429 359.757 422.177 360.877 422.177C361.997 422.177 363.012 422.429 363.922 422.933C364.832 423.423 365.546 424.123 366.064 425.033C366.596 425.943 366.862 426.993 366.862 428.183C366.862 429.373 366.589 430.423 366.043 431.333C365.511 432.243 364.783 432.95 363.859 433.454C362.949 433.944 361.927 434.189 360.793 434.189ZM360.793 431.627C361.325 431.627 361.822 431.501 362.284 431.249C362.76 430.983 363.138 430.591 363.418 430.073C363.698 429.555 363.838 428.925 363.838 428.183C363.838 427.077 363.544 426.23 362.956 425.642C362.382 425.04 361.675 424.739 360.835 424.739C359.995 424.739 359.288 425.04 358.714 425.642C358.154 426.23 357.874 427.077 357.874 428.183C357.874 429.289 358.147 430.143 358.693 430.745C359.253 431.333 359.953 431.627 360.793 431.627ZM375.466 422.198C376.852 422.198 377.972 422.639 378.826 423.521C379.68 424.389 380.107 425.607 380.107 427.175V434H377.167V427.574C377.167 426.65 376.936 425.943 376.474 425.453C376.012 424.949 375.382 424.697 374.584 424.697C373.772 424.697 373.128 424.949 372.652 425.453C372.19 425.943 371.959 426.65 371.959 427.574V434H369.019V422.366H371.959V423.815C372.351 423.311 372.848 422.919 373.45 422.639C374.066 422.345 374.738 422.198 375.466 422.198ZM382.147 428.141C382.147 426.965 382.378 425.922 382.84 425.012C383.316 424.102 383.953 423.402 384.751 422.912C385.563 422.422 386.466 422.177 387.46 422.177C388.328 422.177 389.084 422.352 389.728 422.702C390.386 423.052 390.911 423.493 391.303 424.025V422.366H394.264V434H391.303V432.299C390.925 432.845 390.4 433.3 389.728 433.664C389.07 434.014 388.307 434.189 387.439 434.189C386.459 434.189 385.563 433.937 384.751 433.433C383.953 432.929 383.316 432.222 382.84 431.312C382.378 430.388 382.147 429.331 382.147 428.141ZM391.303 428.183C391.303 427.469 391.163 426.86 390.883 426.356C390.603 425.838 390.225 425.446 389.749 425.18C389.273 424.9 388.762 424.76 388.216 424.76C387.67 424.76 387.166 424.893 386.704 425.159C386.242 425.425 385.864 425.817 385.57 426.335C385.29 426.839 385.15 427.441 385.15 428.141C385.15 428.841 385.29 429.457 385.57 429.989C385.864 430.507 386.242 430.906 386.704 431.186C387.18 431.466 387.684 431.606 388.216 431.606C388.762 431.606 389.273 431.473 389.749 431.207C390.225 430.927 390.603 430.535 390.883 430.031C391.163 429.513 391.303 428.897 391.303 428.183ZM400.075 418.46V434H397.135V418.46H400.075ZM418.19 423.752C417.854 423.136 417.392 422.667 416.804 422.345C416.216 422.023 415.53 421.862 414.746 421.862C413.878 421.862 413.108 422.058 412.436 422.45C411.764 422.842 411.239 423.402 410.861 424.13C410.483 424.858 410.294 425.698 410.294 426.65C410.294 427.63 410.483 428.484 410.861 429.212C411.253 429.94 411.792 430.5 412.478 430.892C413.164 431.284 413.962 431.48 414.872 431.48C415.992 431.48 416.909 431.186 417.623 430.598C418.337 429.996 418.806 429.163 419.03 428.099H413.99V425.852H421.928V428.414C421.732 429.436 421.312 430.381 420.668 431.249C420.024 432.117 419.191 432.817 418.169 433.349C417.161 433.867 416.027 434.126 414.767 434.126C413.353 434.126 412.072 433.811 410.924 433.181C409.79 432.537 408.894 431.648 408.236 430.514C407.592 429.38 407.27 428.092 407.27 426.65C407.27 425.208 407.592 423.92 408.236 422.786C408.894 421.638 409.79 420.749 410.924 420.119C412.072 419.475 413.346 419.153 414.746 419.153C416.398 419.153 417.833 419.559 419.051 420.371C420.269 421.169 421.109 422.296 421.571 423.752H418.19ZM429.227 419.342C430.767 419.342 432.118 419.643 433.28 420.245C434.456 420.847 435.359 421.708 435.989 422.828C436.633 423.934 436.955 425.222 436.955 426.692C436.955 428.162 436.633 429.45 435.989 430.556C435.359 431.648 434.456 432.495 433.28 433.097C432.118 433.699 430.767 434 429.227 434H424.103V419.342H429.227ZM429.122 431.501C430.662 431.501 431.852 431.081 432.692 430.241C433.532 429.401 433.952 428.218 433.952 426.692C433.952 425.166 433.532 423.976 432.692 423.122C431.852 422.254 430.662 421.82 429.122 421.82H427.043V431.501H429.122ZM449.845 423.878C449.845 424.662 449.656 425.397 449.278 426.083C448.914 426.769 448.333 427.322 447.535 427.742C446.751 428.162 445.757 428.372 444.553 428.372H442.096V434H439.156V419.342H444.553C445.687 419.342 446.653 419.538 447.451 419.93C448.249 420.322 448.844 420.861 449.236 421.547C449.642 422.233 449.845 423.01 449.845 423.878ZM444.427 425.999C445.239 425.999 445.841 425.817 446.233 425.453C446.625 425.075 446.821 424.55 446.821 423.878C446.821 422.45 446.023 421.736 444.427 421.736H442.096V425.999H444.427ZM321.11 444.342V459H318.17V444.342H321.11ZM330.461 447.198C331.847 447.198 332.967 447.639 333.821 448.521C334.675 449.389 335.102 450.607 335.102 452.175V459H332.162V452.574C332.162 451.65 331.931 450.943 331.469 450.453C331.007 449.949 330.377 449.697 329.579 449.697C328.767 449.697 328.123 449.949 327.647 450.453C327.185 450.943 326.954 451.65 326.954 452.574V459H324.014V447.366H326.954V448.815C327.346 448.311 327.843 447.919 328.445 447.639C329.061 447.345 329.733 447.198 330.461 447.198ZM345.842 446.715V450.39H350.777V452.721H345.842V456.606H351.407V459H342.902V444.321H351.407V446.715H345.842ZM368.527 447.198C369.955 447.198 371.103 447.639 371.971 448.521C372.853 449.389 373.294 450.607 373.294 452.175V459H370.354V452.574C370.354 451.664 370.123 450.971 369.661 450.495C369.199 450.005 368.569 449.76 367.771 449.76C366.973 449.76 366.336 450.005 365.86 450.495C365.398 450.971 365.167 451.664 365.167 452.574V459H362.227V452.574C362.227 451.664 361.996 450.971 361.534 450.495C361.072 450.005 360.442 449.76 359.644 449.76C358.832 449.76 358.188 450.005 357.712 450.495C357.25 450.971 357.019 451.664 357.019 452.574V459H354.079V447.366H357.019V448.773C357.397 448.283 357.88 447.898 358.468 447.618C359.07 447.338 359.728 447.198 360.442 447.198C361.352 447.198 362.164 447.394 362.878 447.786C363.592 448.164 364.145 448.71 364.537 449.424C364.915 448.752 365.461 448.213 366.175 447.807C366.903 447.401 367.687 447.198 368.527 447.198ZM386.899 452.931C386.899 453.351 386.871 453.729 386.815 454.065H378.31C378.38 454.905 378.674 455.563 379.192 456.039C379.71 456.515 380.347 456.753 381.103 456.753C382.195 456.753 382.972 456.284 383.434 455.346H386.605C386.269 456.466 385.625 457.39 384.673 458.118C383.721 458.832 382.552 459.189 381.166 459.189C380.046 459.189 379.038 458.944 378.142 458.454C377.26 457.95 376.567 457.243 376.063 456.333C375.573 455.423 375.328 454.373 375.328 453.183C375.328 451.979 375.573 450.922 376.063 450.012C376.553 449.102 377.239 448.402 378.121 447.912C379.003 447.422 380.018 447.177 381.166 447.177C382.272 447.177 383.259 447.415 384.127 447.891C385.009 448.367 385.688 449.046 386.164 449.928C386.654 450.796 386.899 451.797 386.899 452.931ZM383.854 452.091C383.84 451.335 383.567 450.733 383.035 450.285C382.503 449.823 381.852 449.592 381.082 449.592C380.354 449.592 379.738 449.816 379.234 450.264C378.744 450.698 378.443 451.307 378.331 452.091H383.854ZM391.985 449.172C392.363 448.556 392.853 448.073 393.455 447.723C394.071 447.373 394.771 447.198 395.555 447.198V450.285H394.778C393.854 450.285 393.154 450.502 392.678 450.936C392.216 451.37 391.985 452.126 391.985 453.204V459H389.045V447.366H391.985V449.172ZM402.092 447.177C402.96 447.177 403.723 447.352 404.381 447.702C405.039 448.038 405.557 448.479 405.935 449.025V447.366H408.896V459.084C408.896 460.162 408.679 461.121 408.245 461.961C407.811 462.815 407.16 463.487 406.292 463.977C405.424 464.481 404.374 464.733 403.142 464.733C401.49 464.733 400.132 464.348 399.068 463.578C398.018 462.808 397.423 461.758 397.283 460.428H400.202C400.356 460.96 400.685 461.38 401.189 461.688C401.707 462.01 402.33 462.171 403.058 462.171C403.912 462.171 404.605 461.912 405.137 461.394C405.669 460.89 405.935 460.12 405.935 459.084V457.278C405.557 457.824 405.032 458.279 404.36 458.643C403.702 459.007 402.946 459.189 402.092 459.189C401.112 459.189 400.216 458.937 399.404 458.433C398.592 457.929 397.948 457.222 397.472 456.312C397.01 455.388 396.779 454.331 396.779 453.141C396.779 451.965 397.01 450.922 397.472 450.012C397.948 449.102 398.585 448.402 399.383 447.912C400.195 447.422 401.098 447.177 402.092 447.177ZM405.935 453.183C405.935 452.469 405.795 451.86 405.515 451.356C405.235 450.838 404.857 450.446 404.381 450.18C403.905 449.9 403.394 449.76 402.848 449.76C402.302 449.76 401.798 449.893 401.336 450.159C400.874 450.425 400.496 450.817 400.202 451.335C399.922 451.839 399.782 452.441 399.782 453.141C399.782 453.841 399.922 454.457 400.202 454.989C400.496 455.507 400.874 455.906 401.336 456.186C401.812 456.466 402.316 456.606 402.848 456.606C403.394 456.606 403.905 456.473 404.381 456.207C404.857 455.927 405.235 455.535 405.515 455.031C405.795 454.513 405.935 453.897 405.935 453.183ZM413.258 445.98C412.74 445.98 412.306 445.819 411.956 445.497C411.62 445.161 411.452 444.748 411.452 444.258C411.452 443.768 411.62 443.362 411.956 443.04C412.306 442.704 412.74 442.536 413.258 442.536C413.776 442.536 414.203 442.704 414.539 443.04C414.889 443.362 415.064 443.768 415.064 444.258C415.064 444.748 414.889 445.161 414.539 445.497C414.203 445.819 413.776 445.98 413.258 445.98ZM414.707 447.366V459H411.767V447.366H414.707ZM424.059 447.198C425.445 447.198 426.565 447.639 427.419 448.521C428.273 449.389 428.7 450.607 428.7 452.175V459H425.76V452.574C425.76 451.65 425.529 450.943 425.067 450.453C424.605 449.949 423.975 449.697 423.177 449.697C422.365 449.697 421.721 449.949 421.245 450.453C420.783 450.943 420.552 451.65 420.552 452.574V459H417.612V447.366H420.552V448.815C420.944 448.311 421.441 447.919 422.043 447.639C422.659 447.345 423.331 447.198 424.059 447.198ZM436.053 447.177C436.921 447.177 437.684 447.352 438.342 447.702C439 448.038 439.518 448.479 439.896 449.025V447.366H442.857V459.084C442.857 460.162 442.64 461.121 442.206 461.961C441.772 462.815 441.121 463.487 440.253 463.977C439.385 464.481 438.335 464.733 437.103 464.733C435.451 464.733 434.093 464.348 433.029 463.578C431.979 462.808 431.384 461.758 431.244 460.428H434.163C434.317 460.96 434.646 461.38 435.15 461.688C435.668 462.01 436.291 462.171 437.019 462.171C437.873 462.171 438.566 461.912 439.098 461.394C439.63 460.89 439.896 460.12 439.896 459.084V457.278C439.518 457.824 438.993 458.279 438.321 458.643C437.663 459.007 436.907 459.189 436.053 459.189C435.073 459.189 434.177 458.937 433.365 458.433C432.553 457.929 431.909 457.222 431.433 456.312C430.971 455.388 430.74 454.331 430.74 453.141C430.74 451.965 430.971 450.922 431.433 450.012C431.909 449.102 432.546 448.402 433.344 447.912C434.156 447.422 435.059 447.177 436.053 447.177ZM439.896 453.183C439.896 452.469 439.756 451.86 439.476 451.356C439.196 450.838 438.818 450.446 438.342 450.18C437.866 449.9 437.355 449.76 436.809 449.76C436.263 449.76 435.759 449.893 435.297 450.159C434.835 450.425 434.457 450.817 434.163 451.335C433.883 451.839 433.743 452.441 433.743 453.141C433.743 453.841 433.883 454.457 434.163 454.989C434.457 455.507 434.835 455.906 435.297 456.186C435.773 456.466 436.277 456.606 436.809 456.606C437.355 456.606 437.866 456.473 438.342 456.207C438.818 455.927 439.196 455.535 439.476 455.031C439.756 454.513 439.896 453.897 439.896 453.183ZM332.41 471.715V475.39H337.345V477.721H332.41V481.606H337.975V484H329.47V469.321H337.975V471.715H332.41ZM339.89 478.183C339.89 476.979 340.135 475.929 340.625 475.033C341.115 474.123 341.794 473.423 342.662 472.933C343.53 472.429 344.524 472.177 345.644 472.177C347.086 472.177 348.276 472.541 349.214 473.269C350.166 473.983 350.803 474.991 351.125 476.293H347.954C347.786 475.789 347.499 475.397 347.093 475.117C346.701 474.823 346.211 474.676 345.623 474.676C344.783 474.676 344.118 474.984 343.628 475.6C343.138 476.202 342.893 477.063 342.893 478.183C342.893 479.289 343.138 480.15 343.628 480.766C344.118 481.368 344.783 481.669 345.623 481.669C346.813 481.669 347.59 481.137 347.954 480.073H351.125C350.803 481.333 350.166 482.334 349.214 483.076C348.262 483.818 347.072 484.189 345.644 484.189C344.524 484.189 343.53 483.944 342.662 483.454C341.794 482.95 341.115 482.25 340.625 481.354C340.135 480.444 339.89 479.387 339.89 478.183ZM358.445 484.189C357.325 484.189 356.317 483.944 355.421 483.454C354.525 482.95 353.818 482.243 353.3 481.333C352.796 480.423 352.544 479.373 352.544 478.183C352.544 476.993 352.803 475.943 353.321 475.033C353.853 474.123 354.574 473.423 355.484 472.933C356.394 472.429 357.409 472.177 358.529 472.177C359.649 472.177 360.664 472.429 361.574 472.933C362.484 473.423 363.198 474.123 363.716 475.033C364.248 475.943 364.514 476.993 364.514 478.183C364.514 479.373 364.241 480.423 363.695 481.333C363.163 482.243 362.435 482.95 361.511 483.454C360.601 483.944 359.579 484.189 358.445 484.189ZM358.445 481.627C358.977 481.627 359.474 481.501 359.936 481.249C360.412 480.983 360.79 480.591 361.07 480.073C361.35 479.555 361.49 478.925 361.49 478.183C361.49 477.077 361.196 476.23 360.608 475.642C360.034 475.04 359.327 474.739 358.487 474.739C357.647 474.739 356.94 475.04 356.366 475.642C355.806 476.23 355.526 477.077 355.526 478.183C355.526 479.289 355.799 480.143 356.345 480.745C356.905 481.333 357.605 481.627 358.445 481.627ZM373.118 472.198C374.504 472.198 375.624 472.639 376.478 473.521C377.332 474.389 377.759 475.607 377.759 477.175V484H374.819V477.574C374.819 476.65 374.588 475.943 374.126 475.453C373.664 474.949 373.034 474.697 372.236 474.697C371.424 474.697 370.78 474.949 370.304 475.453C369.842 475.943 369.611 476.65 369.611 477.574V484H366.671V472.366H369.611V473.815C370.003 473.311 370.5 472.919 371.102 472.639C371.718 472.345 372.39 472.198 373.118 472.198ZM385.72 484.189C384.6 484.189 383.592 483.944 382.696 483.454C381.8 482.95 381.093 482.243 380.575 481.333C380.071 480.423 379.819 479.373 379.819 478.183C379.819 476.993 380.078 475.943 380.596 475.033C381.128 474.123 381.849 473.423 382.759 472.933C383.669 472.429 384.684 472.177 385.804 472.177C386.924 472.177 387.939 472.429 388.849 472.933C389.759 473.423 390.473 474.123 390.991 475.033C391.523 475.943 391.789 476.993 391.789 478.183C391.789 479.373 391.516 480.423 390.97 481.333C390.438 482.243 389.71 482.95 388.786 483.454C387.876 483.944 386.854 484.189 385.72 484.189ZM385.72 481.627C386.252 481.627 386.749 481.501 387.211 481.249C387.687 480.983 388.065 480.591 388.345 480.073C388.625 479.555 388.765 478.925 388.765 478.183C388.765 477.077 388.471 476.23 387.883 475.642C387.309 475.04 386.602 474.739 385.762 474.739C384.922 474.739 384.215 475.04 383.641 475.642C383.081 476.23 382.801 477.077 382.801 478.183C382.801 479.289 383.074 480.143 383.62 480.745C384.18 481.333 384.88 481.627 385.72 481.627ZM408.394 472.198C409.822 472.198 410.97 472.639 411.838 473.521C412.72 474.389 413.161 475.607 413.161 477.175V484H410.221V477.574C410.221 476.664 409.99 475.971 409.528 475.495C409.066 475.005 408.436 474.76 407.638 474.76C406.84 474.76 406.203 475.005 405.727 475.495C405.265 475.971 405.034 476.664 405.034 477.574V484H402.094V477.574C402.094 476.664 401.863 475.971 401.401 475.495C400.939 475.005 400.309 474.76 399.511 474.76C398.699 474.76 398.055 475.005 397.579 475.495C397.117 475.971 396.886 476.664 396.886 477.574V484H393.946V472.366H396.886V473.773C397.264 473.283 397.747 472.898 398.335 472.618C398.937 472.338 399.595 472.198 400.309 472.198C401.219 472.198 402.031 472.394 402.745 472.786C403.459 473.164 404.012 473.71 404.404 474.424C404.782 473.752 405.328 473.213 406.042 472.807C406.77 472.401 407.554 472.198 408.394 472.198ZM417.442 470.98C416.924 470.98 416.49 470.819 416.14 470.497C415.804 470.161 415.636 469.748 415.636 469.258C415.636 468.768 415.804 468.362 416.14 468.04C416.49 467.704 416.924 467.536 417.442 467.536C417.96 467.536 418.387 467.704 418.723 468.04C419.073 468.362 419.248 468.768 419.248 469.258C419.248 469.748 419.073 470.161 418.723 470.497C418.387 470.819 417.96 470.98 417.442 470.98ZM418.891 472.366V484H415.951V472.366H418.891ZM421.04 478.183C421.04 476.979 421.285 475.929 421.775 475.033C422.265 474.123 422.944 473.423 423.812 472.933C424.68 472.429 425.674 472.177 426.794 472.177C428.236 472.177 429.426 472.541 430.364 473.269C431.316 473.983 431.953 474.991 432.275 476.293H429.104C428.936 475.789 428.649 475.397 428.243 475.117C427.851 474.823 427.361 474.676 426.773 474.676C425.933 474.676 425.268 474.984 424.778 475.6C424.288 476.202 424.043 477.063 424.043 478.183C424.043 479.289 424.288 480.15 424.778 480.766C425.268 481.368 425.933 481.669 426.773 481.669C427.963 481.669 428.74 481.137 429.104 480.073H432.275C431.953 481.333 431.316 482.334 430.364 483.076C429.412 483.818 428.222 484.189 426.794 484.189C425.674 484.189 424.68 483.944 423.812 483.454C422.944 482.95 422.265 482.25 421.775 481.354C421.285 480.444 421.04 479.387 421.04 478.183Z" fill="white"/>
</svg>
