<svg width="24" height="30" viewBox="0 0 24 30" fill="none" xmlns="http://www.w3.org/2000/svg">
<path d="M23.497 22.9581C23.0662 23.9535 22.5562 24.8697 21.965 25.7124C21.1596 26.8608 20.5001 27.6557 19.9918 28.0973C19.2039 28.8218 18.3597 29.1929 17.4557 29.214C16.8067 29.214 16.024 29.0294 15.113 28.6548C14.199 28.2818 13.359 28.0973 12.591 28.0973C11.7854 28.0973 10.9215 28.2818 9.99749 28.6548C9.07202 29.0294 8.32649 29.2245 7.75646 29.244C6.88958 29.2807 6.02551 28.8991 5.163 28.0973C4.61251 27.617 3.92398 26.7938 3.0991 25.6279C2.2141 24.3827 1.48651 22.9387 0.916488 21.2925C0.306024 19.5144 0 17.7926 0 16.1257C0 14.2162 0.412608 12.5693 1.23905 11.1892C1.88856 10.0806 2.75263 9.20617 3.8341 8.56424C4.91556 7.92229 6.08407 7.59515 7.34246 7.57422C8.03102 7.57422 8.93395 7.78722 10.056 8.2058C11.175 8.62578 11.8934 8.83878 12.2084 8.83878C12.4439 8.83878 13.242 8.58973 14.595 8.09324C15.8746 7.6328 16.9544 7.44215 17.8391 7.51724C20.2363 7.71071 22.0373 8.65568 23.2349 10.3582C21.091 11.6572 20.0305 13.4766 20.0516 15.8107C20.0709 17.6287 20.7305 19.1416 22.0267 20.3428C22.614 20.9003 23.2702 21.3312 24 21.6373C23.8418 22.0963 23.6746 22.536 23.497 22.9581ZM17.9991 1.3236C17.9991 2.74856 17.4785 4.07905 16.4409 5.31054C15.1886 6.77451 13.674 7.62049 12.0315 7.487C12.0106 7.31605 11.9984 7.13612 11.9984 6.94705C11.9984 5.5791 12.5939 4.1151 13.6515 2.91809C14.1795 2.31202 14.851 1.80809 15.6653 1.40609C16.4778 1.01009 17.2464 0.791088 17.9692 0.753586C17.9903 0.944081 17.9991 1.13459 17.9991 1.32358V1.3236Z" fill="black"/>
</svg>
