<svg width="1440" height="726" viewBox="0 0 1440 726" fill="none" xmlns="http://www.w3.org/2000/svg">
<g clip-path="url(#clip0_699_1706)">
<rect width="1440" height="726" fill="#25396F"/>
<path d="M1045.02 176.089L1045.42 177.586C1046.04 179.868 1046.03 179.868 1046.03 179.869L1046.03 179.872L1046 179.882L1045.91 179.919L1045.82 179.958C1045.75 179.986 1045.67 180.019 1045.57 180.058C1045.27 180.18 1044.83 180.356 1044.25 180.581C1043.08 181.03 1041.36 181.671 1039.12 182.444C1034.64 183.991 1028.08 186.071 1019.72 188.21C1003.01 192.49 979.118 197.015 950.36 198.012C892.843 200.006 815.81 187.888 737.82 131.418C685.992 93.89 647.199 46.5182 618.502 0H623.37C651.624 45.1527 689.507 90.8739 739.74 127.247C816.965 183.164 893.252 195.174 950.253 193.198C978.753 192.21 1002.42 187.725 1018.95 183.492C1027.22 181.375 1033.7 179.322 1038.1 177.801C1040.31 177.041 1041.99 176.413 1043.12 175.978C1043.68 175.76 1044.11 175.59 1044.39 175.475L1044.56 175.407L1044.71 175.346L1044.79 175.314L1044.8 175.307L1044.81 175.305C1044.81 175.305 1044.81 175.305 1045.02 176.089Z" fill="#A6AEC4"/>
<path d="M1440 17.4722C1431.72 20.6617 1423.38 24.244 1414.99 28.2514C1330.83 68.4492 1274.71 135.721 1239.62 192.918C1222.08 221.518 1209.8 247.611 1201.89 266.566C1197.94 276.044 1195.08 283.74 1193.21 289.076C1192.27 291.744 1191.58 293.822 1191.13 295.237C1190.9 295.945 1190.73 296.488 1190.61 296.856C1190.56 297.04 1190.51 297.18 1190.48 297.276L1190.44 297.415L1190.44 297.423C1190.44 297.423 1190.44 297.424 1190.45 297.428C1190.46 297.437 1190.52 297.466 1190.73 297.562C1190.97 297.676 1191.42 297.885 1192.24 298.27L1193.42 298.823C1194.04 299.113 1194.04 299.113 1194.04 299.113L1194.04 299.108L1194.04 299.086L1194.07 298.992C1194.1 298.906 1194.14 298.776 1194.19 298.602C1194.3 298.255 1194.46 297.733 1194.69 297.046C1195.13 295.673 1195.8 293.638 1196.72 291.016C1198.57 285.771 1201.39 278.172 1205.3 268.797C1213.12 250.046 1225.29 224.197 1242.67 195.855C1277.44 139.169 1333.03 72.5558 1416.36 32.752C1424.29 28.9649 1432.17 25.5611 1440 22.5126V17.4722Z" fill="#A6AEC4"/>
<path d="M704.27 726C693.24 685.185 677.283 642.752 654.475 601.157C603.447 508.097 538.065 455.591 485.461 426.354C459.158 411.736 436.039 402.929 419.486 397.775C411.208 395.197 404.57 393.532 399.994 392.511C397.706 392 395.932 391.65 394.727 391.427C394.125 391.315 393.664 391.236 393.352 391.183C393.196 391.157 393.077 391.138 392.996 391.125L392.903 391.111L392.879 391.107L392.871 391.106C392.87 391.106 392.868 391.105 392.64 393.496L392.49 395.066C392.412 395.887 392.412 395.887 392.412 395.887L392.416 395.888L392.435 395.891L392.515 395.903C392.587 395.915 392.697 395.932 392.845 395.957C393.139 396.006 393.582 396.083 394.167 396.191C395.336 396.407 397.071 396.75 399.321 397.252C403.82 398.256 410.373 399.899 418.561 402.449C434.936 407.548 457.839 416.271 483.905 430.757C536.038 459.732 600.783 511.738 651.311 603.886C673.61 644.553 689.301 686.037 700.214 726H704.27Z" fill="#A6AEC4"/>
<path d="M0 333.72C17.4704 335.331 38.1074 341.272 58.9522 356.365C85.8577 375.847 102.625 402.986 112.672 425.295C117.695 436.446 121.03 446.373 123.107 453.5C124.146 457.063 124.869 459.924 125.331 461.885C125.562 462.865 125.727 463.62 125.834 464.126C125.866 464.275 125.892 464.402 125.914 464.507L125.932 464.597L125.952 464.693L125.971 464.79L125.979 464.831L125.985 464.862L125.986 464.868C125.986 464.868 125.986 464.867 127.854 464.31C129.722 463.752 129.721 463.75 129.721 463.75L129.718 463.732L129.709 463.687C129.701 463.648 129.69 463.592 129.676 463.519C129.647 463.375 129.604 463.164 129.546 462.891C129.43 462.344 129.255 461.545 129.014 460.52C128.531 458.47 127.782 455.513 126.714 451.847C124.578 444.517 121.158 434.344 116.016 422.926C105.733 400.096 88.53 372.221 60.8722 352.194C39.3257 336.593 17.9998 330.509 0 328.892V333.72Z" fill="#A6AEC4"/>
<path d="M266.88 145.08C268.323 146.668 268.322 146.669 268.322 146.669L268.33 146.658L268.366 146.607C268.386 146.58 268.412 146.544 268.445 146.499C268.469 146.466 268.497 146.428 268.528 146.385C268.676 146.186 268.901 145.887 269.204 145.501C269.809 144.73 270.721 143.615 271.928 142.271C274.342 139.582 277.928 135.983 282.587 132.381C291.908 125.176 305.483 117.99 322.56 117.99C339.643 117.99 353.585 125.18 363.28 132.401C368.124 136.01 371.894 139.616 374.446 142.312C375.721 143.659 376.69 144.777 377.336 145.552C377.658 145.939 377.9 146.24 378.058 146.441C378.137 146.541 378.195 146.617 378.233 146.665L378.272 146.717L378.28 146.728L378.281 146.729C378.281 146.729 378.28 146.728 379.68 145.08C381.08 143.431 381.079 143.43 381.079 143.43L381.072 143.421L381.055 143.399C381.042 143.381 381.023 143.356 380.999 143.325C380.95 143.262 380.88 143.171 380.789 143.055C380.607 142.824 380.34 142.492 379.99 142.072C379.291 141.234 378.262 140.047 376.92 138.629C374.236 135.794 370.296 132.026 365.241 128.26C355.135 120.733 340.517 113.174 322.56 113.174C304.598 113.174 290.332 120.737 280.573 128.281C275.692 132.053 271.928 135.829 269.378 138.67C268.101 140.092 267.127 141.281 266.467 142.123C266.137 142.544 265.885 142.878 265.712 143.111C265.626 143.227 265.56 143.319 265.514 143.382C265.491 143.414 265.473 143.44 265.46 143.458L265.445 143.48L265.44 143.487L265.438 143.489C265.438 143.489 265.437 143.491 266.88 145.08Z" fill="#A6AEC4"/>
<path d="M1084.17 599.774C1084.12 600.067 1084.01 600.653 1083.79 601.826C1083.36 604.172 1083.35 604.171 1083.35 604.171L1083.35 604.17L1083.34 604.167L1083.3 604.156C1083.27 604.147 1083.23 604.134 1083.17 604.116C1083.06 604.082 1082.9 604.03 1082.69 603.96C1082.26 603.821 1081.64 603.61 1080.85 603.318C1079.26 602.734 1076.97 601.825 1074.13 600.516C1068.46 597.9 1060.59 593.684 1051.78 587.271C1034.16 574.446 1012.73 552.802 997.544 517.56C982.359 482.324 979.358 447.276 980.142 421.074C980.535 407.97 981.874 397.059 983.118 389.412C983.74 385.588 984.339 382.577 984.785 380.514C985.008 379.482 985.192 378.687 985.322 378.145C985.387 377.874 985.439 377.667 985.474 377.524L985.501 377.417L985.516 377.36L985.528 377.315L985.532 377.298C985.532 377.298 985.533 377.296 987.356 378.049C989.18 378.802 989.18 378.801 989.18 378.801L989.179 378.808L989.171 378.838L989.157 378.891L989.137 378.973C989.106 379.095 989.059 379.283 988.999 379.533C988.879 380.034 988.704 380.786 988.491 381.773C988.065 383.746 987.485 386.658 986.881 390.375C985.671 397.81 984.363 408.457 983.98 421.255C983.213 446.858 986.15 480.993 1000.92 515.271C1015.69 549.543 1036.54 570.604 1053.71 583.106C1062.3 589.356 1069.95 593.459 1075.45 595.996C1078.2 597.264 1080.41 598.14 1081.93 598.697C1082.68 598.975 1083.27 599.173 1083.66 599.301C1083.85 599.365 1084 599.411 1084.09 599.44C1084.14 599.455 1084.18 599.466 1084.2 599.472L1084.22 599.479L1084.23 599.481L1084.21 599.556L1084.17 599.774Z" fill="#A6AEC4"/>
<path d="M757.529 327.852L758.876 328.687C759.474 329.056 759.864 329.298 760.118 329.456C760.287 329.561 760.397 329.629 760.467 329.673C760.597 329.754 760.597 329.754 760.597 329.754L760.596 329.757L760.582 329.792L760.546 329.882C760.515 329.959 760.47 330.069 760.41 330.209C760.292 330.49 760.118 330.894 759.886 331.408C759.422 332.435 758.726 333.901 757.787 335.688C755.909 339.261 753.053 344.129 749.117 349.357C741.247 359.812 729.028 371.748 711.678 377.578C694.333 383.407 678.653 380.851 667.338 376.86C661.678 374.864 657.095 372.503 653.918 370.636C652.328 369.702 651.089 368.89 650.241 368.307C649.817 368.015 649.49 367.78 649.266 367.616C649.224 367.585 649.185 367.556 649.149 367.53C649.092 367.487 649.045 367.452 649.008 367.424C648.978 367.401 648.955 367.384 648.938 367.371L648.918 367.355L648.91 367.349C648.91 367.349 648.908 367.347 649.92 365.301C650.932 363.255 650.931 363.254 650.931 363.254L650.932 363.255L650.942 363.262L650.991 363.3C651.037 363.334 651.109 363.388 651.206 363.459C651.4 363.602 651.695 363.814 652.087 364.084C652.87 364.622 654.037 365.388 655.547 366.275C658.568 368.051 662.954 370.311 668.378 372.224C679.232 376.052 694.184 378.472 710.684 372.927C727.18 367.383 738.809 356.036 746.325 346.051C750.082 341.06 752.804 336.419 754.58 333.038C755.468 331.348 756.119 329.975 756.545 329.034C756.65 328.802 756.741 328.596 756.818 328.418C756.845 328.356 756.871 328.297 756.895 328.242C756.916 328.192 756.937 328.144 756.956 328.1L756.98 328.043L757.015 327.96C757.065 327.84 757.102 327.75 757.125 327.693L757.15 327.632L757.155 327.619C757.155 327.619 757.155 327.62 757.529 327.852Z" fill="#A6AEC4"/>
<path d="M1319.28 550.179C1321.16 550.65 1321.16 550.651 1321.16 550.651L1321.16 550.637L1321.18 550.57C1321.19 550.508 1321.2 550.409 1321.23 550.277C1321.25 550.155 1321.28 550.004 1321.31 549.825C1321.34 549.672 1321.38 549.499 1321.42 549.307C1321.43 549.236 1321.44 549.163 1321.46 549.087C1321.68 548.039 1322.02 546.502 1322.53 544.582C1323.55 540.739 1325.22 535.373 1327.82 529.332C1333.02 517.248 1341.91 502.512 1356.7 491.804C1371.49 481.092 1386.44 478.575 1397.71 478.75C1403.34 478.837 1408.05 479.597 1411.33 480.331C1412.97 480.698 1414.26 481.059 1415.13 481.325C1415.56 481.458 1415.89 481.567 1416.11 481.642C1416.16 481.66 1416.2 481.676 1416.24 481.69L1416.35 481.726L1416.4 481.746L1416.41 481.751L1416.41 481.751L1416.43 481.699L1416.97 479.445C1417.52 477.14 1417.52 477.14 1417.52 477.14L1417.51 477.136L1417.49 477.128L1417.41 477.099L1417.28 477.054C1417.24 477.037 1417.18 477.018 1417.12 476.997C1416.98 476.947 1416.79 476.885 1416.57 476.814C1416.41 476.763 1416.23 476.707 1416.04 476.646C1415.1 476.358 1413.73 475.977 1412.01 475.59C1408.55 474.818 1403.64 474.025 1397.76 473.934C1386 473.752 1370.33 476.372 1354.78 487.633C1339.22 498.897 1329.89 514.392 1324.44 527.045C1321.72 533.372 1319.96 539.002 1318.89 543.063C1318.35 545.094 1317.98 546.735 1317.74 547.878C1317.69 548.132 1317.65 548.362 1317.61 548.565C1317.56 548.82 1317.52 549.035 1317.48 549.207C1317.46 549.361 1317.43 549.482 1317.42 549.566L1317.4 549.665L1317.4 549.694L1317.4 549.703L1317.4 549.706C1317.4 549.706 1317.4 549.707 1317.7 549.783L1319.28 550.179Z" fill="#A6AEC4"/>
</g>
<defs>
<clipPath id="clip0_699_1706">
<rect width="1440" height="726" fill="white"/>
</clipPath>
</defs>
</svg>
