<svg width="1440" height="1112" viewBox="0 0 1440 1112" fill="none" xmlns="http://www.w3.org/2000/svg">
<rect width="1440" height="1112" fill="#E9EBF1"/>
<path opacity="0.1" d="M26.1589 103.116C5.08466 124.167 4.90451 159.651 4.90451 159.651C4.90451 159.651 38.8925 161.005 59.9667 139.954C81.0409 118.903 81.2211 83.4189 81.2211 83.4189C81.2211 83.4189 47.2332 82.0651 26.1589 103.116Z" fill="#25396F"/>
<path opacity="0.1" d="M103.159 139.954C82.0847 118.903 81.9045 83.4193 81.9045 83.4193C81.9045 83.4193 115.892 82.0655 136.967 103.116C158.041 124.167 158.221 159.651 158.221 159.651C158.221 159.651 124.233 161.005 103.159 139.954Z" fill="#25396F"/>
<path opacity="0.1" d="M136.966 62.9543C158.04 41.9034 158.22 6.41934 158.22 6.41934C158.22 6.41934 124.233 5.0655 103.158 26.1164C82.0841 47.1673 81.9039 82.6514 81.9039 82.6514C81.9039 82.6514 115.892 84.0052 136.966 62.9543Z" fill="#25396F"/>
<path opacity="0.1" d="M1222.05 974.485C1188.33 1008.17 1188.05 1064.94 1188.05 1064.94C1188.05 1064.94 1242.43 1067.11 1276.15 1033.43C1309.86 999.745 1310.15 942.97 1310.15 942.97C1310.15 942.97 1255.77 940.804 1222.05 974.485Z" fill="#25396F"/>
<path opacity="0.1" d="M1276.15 852.485C1309.86 886.167 1310.15 942.941 1310.15 942.941C1310.15 942.941 1255.77 945.107 1222.05 911.426C1188.33 877.745 1188.05 820.97 1188.05 820.97C1188.05 820.97 1242.43 818.804 1276.15 852.485Z" fill="#25396F"/>
<path opacity="0.1" d="M1344.05 1033.43C1310.33 999.745 1310.05 942.971 1310.05 942.971C1310.05 942.971 1364.43 940.805 1398.15 974.486C1431.86 1008.17 1432.15 1064.94 1432.15 1064.94C1432.15 1064.94 1377.77 1067.11 1344.05 1033.43Z" fill="#25396F"/>
<path opacity="0.1" d="M1398.15 911.427C1431.86 877.745 1432.15 820.971 1432.15 820.971C1432.15 820.971 1377.77 818.805 1344.05 852.486C1310.33 886.167 1310.05 942.942 1310.05 942.942C1310.05 942.942 1364.43 945.108 1398.15 911.427Z" fill="#25396F"/>
<path opacity="0.1" d="M59.9661 26.116C81.0403 47.1669 81.2205 82.651 81.2205 82.651C81.2205 82.651 47.2325 84.0048 26.1583 62.9539C5.08405 41.903 4.9039 6.41896 4.9039 6.41896C4.9039 6.41896 38.8918 5.06512 59.9661 26.116Z" fill="#25396F"/>
</svg>
