<svg width="1440" height="994" viewBox="0 0 1440 994" fill="none" xmlns="http://www.w3.org/2000/svg">
<g clip-path="url(#clip0_2486_4201)">
<rect width="1440" height="994" fill="#25396F"/>
<mask id="mask0_2486_4201" style="mask-type:alpha" maskUnits="userSpaceOnUse" x="829" y="-3" width="611" height="324">
<rect x="1439.78" y="321" width="610.777" height="324" transform="rotate(180 1439.78 321)" fill="white"/>
</mask>
<g mask="url(#mask0_2486_4201)">
<mask id="mask1_2486_4201" style="mask-type:alpha" maskUnits="userSpaceOnUse" x="1180" y="-95" width="342" height="323">
<ellipse cx="1351.34" cy="66.2996" rx="170.509" ry="160.8" transform="rotate(180 1351.34 66.2996)" fill="#C4C4C4"/>
</mask>
<g mask="url(#mask1_2486_4201)">
<rect x="1439.78" y="321" width="610.777" height="324" transform="rotate(180 1439.78 321)" fill="#CBD400"/>
<ellipse cx="1389.52" cy="38.0996" rx="120.883" ry="114" transform="rotate(180 1389.52 38.0996)" fill="#E1E66B"/>
</g>
</g>
<path d="M155.042 45.342L150.947 60H147.482L144.731 49.563L141.854 60L138.41 60.021L134.462 45.342H137.612L140.195 56.724L143.177 45.342H146.453L149.267 56.661L151.871 45.342H155.042ZM159.902 47.715V51.39H164.837V53.721H159.902V57.606H165.467V60H156.962V45.321H165.467V47.715H159.902ZM176.082 57.669H180.912V60H173.142V45.342H176.082V57.669ZM189.585 60.147C188.213 60.147 186.953 59.825 185.805 59.181C184.657 58.537 183.747 57.648 183.075 56.514C182.403 55.366 182.067 54.071 182.067 52.629C182.067 51.201 182.403 49.92 183.075 48.786C183.747 47.638 184.657 46.742 185.805 46.098C186.953 45.454 188.213 45.132 189.585 45.132C190.971 45.132 192.231 45.454 193.365 46.098C194.513 46.742 195.416 47.638 196.074 48.786C196.746 49.92 197.082 51.201 197.082 52.629C197.082 54.071 196.746 55.366 196.074 56.514C195.416 57.648 194.513 58.537 193.365 59.181C192.217 59.825 190.957 60.147 189.585 60.147ZM189.585 57.522C190.467 57.522 191.244 57.326 191.916 56.934C192.588 56.528 193.113 55.954 193.491 55.212C193.869 54.47 194.058 53.609 194.058 52.629C194.058 51.649 193.869 50.795 193.491 50.067C193.113 49.325 192.588 48.758 191.916 48.366C191.244 47.974 190.467 47.778 189.585 47.778C188.703 47.778 187.919 47.974 187.233 48.366C186.561 48.758 186.036 49.325 185.658 50.067C185.28 50.795 185.091 51.649 185.091 52.629C185.091 53.609 185.28 54.47 185.658 55.212C186.036 55.954 186.561 56.528 187.233 56.934C187.919 57.326 188.703 57.522 189.585 57.522ZM212.436 45.342L207.06 60H203.49L198.114 45.342H201.264L205.296 56.997L209.307 45.342H212.436ZM217.139 47.715V51.39H222.074V53.721H217.139V57.606H222.704V60H214.199V45.321H222.704V47.715H217.139ZM249.973 45.342L245.878 60H242.413L239.662 49.563L236.785 60L233.341 60.021L229.393 45.342H232.543L235.126 56.724L238.108 45.342H241.384L244.198 56.661L246.802 45.342H249.973ZM258.696 60.147C257.324 60.147 256.064 59.825 254.916 59.181C253.768 58.537 252.858 57.648 252.186 56.514C251.514 55.366 251.178 54.071 251.178 52.629C251.178 51.201 251.514 49.92 252.186 48.786C252.858 47.638 253.768 46.742 254.916 46.098C256.064 45.454 257.324 45.132 258.696 45.132C260.082 45.132 261.342 45.454 262.476 46.098C263.624 46.742 264.527 47.638 265.185 48.786C265.857 49.92 266.193 51.201 266.193 52.629C266.193 54.071 265.857 55.366 265.185 56.514C264.527 57.648 263.624 58.537 262.476 59.181C261.328 59.825 260.068 60.147 258.696 60.147ZM258.696 57.522C259.578 57.522 260.355 57.326 261.027 56.934C261.699 56.528 262.224 55.954 262.602 55.212C262.98 54.47 263.169 53.609 263.169 52.629C263.169 51.649 262.98 50.795 262.602 50.067C262.224 49.325 261.699 48.758 261.027 48.366C260.355 47.974 259.578 47.778 258.696 47.778C257.814 47.778 257.03 47.974 256.344 48.366C255.672 48.758 255.147 49.325 254.769 50.067C254.391 50.795 254.202 51.649 254.202 52.629C254.202 53.609 254.391 54.47 254.769 55.212C255.147 55.954 255.672 56.528 256.344 56.934C257.03 57.326 257.814 57.522 258.696 57.522ZM275.941 60L272.707 54.288H271.321V60H268.381V45.342H273.883C275.017 45.342 275.983 45.545 276.781 45.951C277.579 46.343 278.174 46.882 278.566 47.568C278.972 48.24 279.175 48.996 279.175 49.836C279.175 50.802 278.895 51.677 278.335 52.461C277.775 53.231 276.942 53.763 275.836 54.057L279.343 60H275.941ZM271.321 52.083H273.778C274.576 52.083 275.171 51.894 275.563 51.516C275.955 51.124 276.151 50.585 276.151 49.899C276.151 49.227 275.955 48.709 275.563 48.345C275.171 47.967 274.576 47.778 273.778 47.778H271.321V52.083ZM290.108 60L284.774 53.469V60H281.834V45.342H284.774V51.915L290.108 45.342H293.657L287.609 52.608L293.825 60H290.108ZM298.699 45.342V60H295.759V45.342H298.699ZM314.14 60H311.2L304.543 49.941V60H301.603V45.321H304.543L311.2 55.401V45.321H314.14V60ZM327.252 49.752C326.916 49.136 326.454 48.667 325.866 48.345C325.278 48.023 324.592 47.862 323.808 47.862C322.94 47.862 322.17 48.058 321.498 48.45C320.826 48.842 320.301 49.402 319.923 50.13C319.545 50.858 319.356 51.698 319.356 52.65C319.356 53.63 319.545 54.484 319.923 55.212C320.315 55.94 320.854 56.5 321.54 56.892C322.226 57.284 323.024 57.48 323.934 57.48C325.054 57.48 325.971 57.186 326.685 56.598C327.399 55.996 327.868 55.163 328.092 54.099H323.052V51.852H330.99V54.414C330.794 55.436 330.374 56.381 329.73 57.249C329.086 58.117 328.253 58.817 327.231 59.349C326.223 59.867 325.089 60.126 323.829 60.126C322.415 60.126 321.134 59.811 319.986 59.181C318.852 58.537 317.956 57.648 317.298 56.514C316.654 55.38 316.332 54.092 316.332 52.65C316.332 51.208 316.654 49.92 317.298 48.786C317.956 47.638 318.852 46.749 319.986 46.119C321.134 45.475 322.408 45.153 323.808 45.153C325.46 45.153 326.895 45.559 328.113 46.371C329.331 47.169 330.171 48.296 330.633 49.752H327.252ZM350.328 45.342V60H347.388V53.763H341.109V60H338.169V45.342H341.109V51.369H347.388V45.342H350.328ZM356.161 47.715V51.39H361.096V53.721H356.161V57.606H361.726V60H353.221V45.321H361.726V47.715H356.161ZM371.958 60L368.724 54.288H367.338V60H364.398V45.342H369.9C371.034 45.342 372 45.545 372.798 45.951C373.596 46.343 374.191 46.882 374.583 47.568C374.989 48.24 375.192 48.996 375.192 49.836C375.192 50.802 374.912 51.677 374.352 52.461C373.792 53.231 372.959 53.763 371.853 54.057L375.36 60H371.958ZM367.338 52.083H369.795C370.593 52.083 371.188 51.894 371.58 51.516C371.972 51.124 372.168 50.585 372.168 49.899C372.168 49.227 371.972 48.709 371.58 48.345C371.188 47.967 370.593 47.778 369.795 47.778H367.338V52.083ZM380.791 47.715V51.39H385.726V53.721H380.791V57.606H386.356V60H377.851V45.321H386.356V47.715H380.791ZM390.33 60.147C389.798 60.147 389.357 59.986 389.007 59.664C388.671 59.328 388.503 58.915 388.503 58.425C388.503 57.935 388.671 57.529 389.007 57.207C389.357 56.871 389.798 56.703 390.33 56.703C390.848 56.703 391.275 56.871 391.611 57.207C391.947 57.529 392.115 57.935 392.115 58.425C392.115 58.915 391.947 59.328 391.611 59.664C391.275 59.986 390.848 60.147 390.33 60.147ZM155.042 70.342L150.947 85H147.482L144.731 74.563L141.854 85L138.41 85.021L134.462 70.342H137.612L140.195 81.724L143.177 70.342H146.453L149.267 81.661L151.871 70.342H155.042ZM159.902 72.715V76.39H164.837V78.721H159.902V82.606H165.467V85H156.962V70.321H165.467V72.715H159.902ZM183.117 70.342V72.715H179.211V85H176.271V72.715H172.365V70.342H183.117ZM197.421 70.342V85H194.481V78.763H188.202V85H185.262V70.342H188.202V76.369H194.481V70.342H197.421ZM203.255 70.342V85H200.315V70.342H203.255ZM218.697 85H215.757L209.1 74.941V85H206.16V70.321H209.1L215.757 80.401V70.321H218.697V85ZM229.876 85L224.542 78.469V85H221.602V70.342H224.542V76.915L229.876 70.342H233.425L227.377 77.608L233.593 85H229.876ZM252.186 70.342L247.23 79.897V85H244.29V79.897L239.313 70.342H242.631L245.781 77.041L248.91 70.342H252.186ZM260.686 85.147C259.314 85.147 258.054 84.825 256.906 84.181C255.758 83.537 254.848 82.648 254.176 81.514C253.504 80.366 253.168 79.071 253.168 77.629C253.168 76.201 253.504 74.92 254.176 73.786C254.848 72.638 255.758 71.742 256.906 71.098C258.054 70.454 259.314 70.132 260.686 70.132C262.072 70.132 263.332 70.454 264.466 71.098C265.614 71.742 266.517 72.638 267.175 73.786C267.847 74.92 268.183 76.201 268.183 77.629C268.183 79.071 267.847 80.366 267.175 81.514C266.517 82.648 265.614 83.537 264.466 84.181C263.318 84.825 262.058 85.147 260.686 85.147ZM260.686 82.522C261.568 82.522 262.345 82.326 263.017 81.934C263.689 81.528 264.214 80.954 264.592 80.212C264.97 79.47 265.159 78.609 265.159 77.629C265.159 76.649 264.97 75.795 264.592 75.067C264.214 74.325 263.689 73.758 263.017 73.366C262.345 72.974 261.568 72.778 260.686 72.778C259.804 72.778 259.02 72.974 258.334 73.366C257.662 73.758 257.137 74.325 256.759 75.067C256.381 75.795 256.192 76.649 256.192 77.629C256.192 78.609 256.381 79.47 256.759 80.212C257.137 80.954 257.662 81.528 258.334 81.934C259.02 82.326 259.804 82.522 260.686 82.522ZM273.268 70.342V79.414C273.268 80.408 273.527 81.171 274.045 81.703C274.563 82.221 275.291 82.48 276.229 82.48C277.181 82.48 277.916 82.221 278.434 81.703C278.952 81.171 279.211 80.408 279.211 79.414V70.342H282.172V79.393C282.172 80.639 281.899 81.696 281.353 82.564C280.821 83.418 280.1 84.062 279.19 84.496C278.294 84.93 277.293 85.147 276.187 85.147C275.095 85.147 274.101 84.93 273.205 84.496C272.323 84.062 271.623 83.418 271.105 82.564C270.587 81.696 270.328 80.639 270.328 79.393V70.342H273.268ZM309.609 70.342L305.514 85H302.049L299.298 74.563L296.421 85L292.977 85.021L289.029 70.342H292.179L294.762 81.724L297.744 70.342H301.02L303.834 81.661L306.438 70.342H309.609ZM314.469 70.342V85H311.529V70.342H314.469ZM320.314 82.669H325.144V85H317.374V70.342H320.314V82.669ZM329.952 82.669H334.782V85H327.012V70.342H329.952V82.669ZM351.63 70.342V72.715H347.724V85H344.784V72.715H340.878V70.342H351.63ZM360.579 85.147C359.207 85.147 357.947 84.825 356.799 84.181C355.651 83.537 354.741 82.648 354.069 81.514C353.397 80.366 353.061 79.071 353.061 77.629C353.061 76.201 353.397 74.92 354.069 73.786C354.741 72.638 355.651 71.742 356.799 71.098C357.947 70.454 359.207 70.132 360.579 70.132C361.965 70.132 363.225 70.454 364.359 71.098C365.507 71.742 366.41 72.638 367.068 73.786C367.74 74.92 368.076 76.201 368.076 77.629C368.076 79.071 367.74 80.366 367.068 81.514C366.41 82.648 365.507 83.537 364.359 84.181C363.211 84.825 361.951 85.147 360.579 85.147ZM360.579 82.522C361.461 82.522 362.238 82.326 362.91 81.934C363.582 81.528 364.107 80.954 364.485 80.212C364.863 79.47 365.052 78.609 365.052 77.629C365.052 76.649 364.863 75.795 364.485 75.067C364.107 74.325 363.582 73.758 362.91 73.366C362.238 72.974 361.461 72.778 360.579 72.778C359.697 72.778 358.913 72.974 358.227 73.366C357.555 73.758 357.03 74.325 356.652 75.067C356.274 75.795 356.085 76.649 356.085 77.629C356.085 78.609 356.274 79.47 356.652 80.212C357.03 80.954 357.555 81.528 358.227 81.934C358.913 82.326 359.697 82.522 360.579 82.522ZM377.067 85.147C375.695 85.147 374.435 84.825 373.287 84.181C372.139 83.537 371.229 82.648 370.557 81.514C369.885 80.366 369.549 79.071 369.549 77.629C369.549 76.201 369.885 74.92 370.557 73.786C371.229 72.638 372.139 71.742 373.287 71.098C374.435 70.454 375.695 70.132 377.067 70.132C378.453 70.132 379.713 70.454 380.847 71.098C381.995 71.742 382.898 72.638 383.556 73.786C384.228 74.92 384.564 76.201 384.564 77.629C384.564 79.071 384.228 80.366 383.556 81.514C382.898 82.648 381.995 83.537 380.847 84.181C379.699 84.825 378.439 85.147 377.067 85.147ZM377.067 82.522C377.949 82.522 378.726 82.326 379.398 81.934C380.07 81.528 380.595 80.954 380.973 80.212C381.351 79.47 381.54 78.609 381.54 77.629C381.54 76.649 381.351 75.795 380.973 75.067C380.595 74.325 380.07 73.758 379.398 73.366C378.726 72.974 377.949 72.778 377.067 72.778C376.185 72.778 375.401 72.974 374.715 73.366C374.043 73.758 373.518 74.325 373.14 75.067C372.762 75.795 372.573 76.649 372.573 77.629C372.573 78.609 372.762 79.47 373.14 80.212C373.518 80.954 374.043 81.528 374.715 81.934C375.401 82.326 376.185 82.522 377.067 82.522ZM388.054 85.147C387.522 85.147 387.081 84.986 386.731 84.664C386.395 84.328 386.227 83.915 386.227 83.425C386.227 82.935 386.395 82.529 386.731 82.207C387.081 81.871 387.522 81.703 388.054 81.703C388.572 81.703 388.999 81.871 389.335 82.207C389.671 82.529 389.839 82.935 389.839 83.425C389.839 83.915 389.671 84.328 389.335 84.664C388.999 84.986 388.572 85.147 388.054 85.147Z" fill="white"/>
<path d="M545.139 103.688V111.36H534.723V143H525.147V111.36H514.731V103.688H545.139ZM569.153 111.416C572.737 111.416 575.612 112.611 577.777 115C579.942 117.352 581.025 120.6 581.025 124.744V143H571.505V126.032C571.505 123.941 570.964 122.317 569.881 121.16C568.798 120.003 567.342 119.424 565.513 119.424C563.684 119.424 562.228 120.003 561.145 121.16C560.062 122.317 559.521 123.941 559.521 126.032V143H549.945V101.56H559.521V115.952C560.492 114.571 561.817 113.469 563.497 112.648C565.177 111.827 567.062 111.416 569.153 111.416ZM617.135 126.872C617.135 127.768 617.079 128.701 616.967 129.672H595.295C595.445 131.613 596.061 133.107 597.143 134.152C598.263 135.16 599.626 135.664 601.231 135.664C603.621 135.664 605.282 134.656 606.215 132.64H616.407C615.885 134.693 614.933 136.541 613.551 138.184C612.207 139.827 610.509 141.115 608.455 142.048C606.402 142.981 604.106 143.448 601.567 143.448C598.506 143.448 595.781 142.795 593.391 141.488C591.002 140.181 589.135 138.315 587.791 135.888C586.447 133.461 585.775 130.624 585.775 127.376C585.775 124.128 586.429 121.291 587.735 118.864C589.079 116.437 590.946 114.571 593.335 113.264C595.725 111.957 598.469 111.304 601.567 111.304C604.591 111.304 607.279 111.939 609.631 113.208C611.983 114.477 613.813 116.288 615.119 118.64C616.463 120.992 617.135 123.736 617.135 126.872ZM607.335 124.352C607.335 122.709 606.775 121.403 605.655 120.432C604.535 119.461 603.135 118.976 601.455 118.976C599.85 118.976 598.487 119.443 597.367 120.376C596.285 121.309 595.613 122.635 595.351 124.352H607.335ZM648.278 143.392C645.404 143.392 642.828 142.925 640.55 141.992C638.273 141.059 636.444 139.677 635.062 137.848C633.718 136.019 633.009 133.816 632.934 131.24H643.126C643.276 132.696 643.78 133.816 644.638 134.6C645.497 135.347 646.617 135.72 647.998 135.72C649.417 135.72 650.537 135.403 651.358 134.768C652.18 134.096 652.59 133.181 652.59 132.024C652.59 131.053 652.254 130.251 651.582 129.616C650.948 128.981 650.145 128.459 649.174 128.048C648.241 127.637 646.897 127.171 645.142 126.648C642.604 125.864 640.532 125.08 638.926 124.296C637.321 123.512 635.94 122.355 634.782 120.824C633.625 119.293 633.046 117.296 633.046 114.832C633.046 111.173 634.372 108.317 637.022 106.264C639.673 104.173 643.126 103.128 647.382 103.128C651.713 103.128 655.204 104.173 657.854 106.264C660.505 108.317 661.924 111.192 662.11 114.888H651.75C651.676 113.619 651.209 112.629 650.35 111.92C649.492 111.173 648.39 110.8 647.046 110.8C645.889 110.8 644.956 111.117 644.246 111.752C643.537 112.349 643.182 113.227 643.182 114.384C643.182 115.653 643.78 116.643 644.974 117.352C646.169 118.061 648.036 118.827 650.574 119.648C653.113 120.507 655.166 121.328 656.734 122.112C658.34 122.896 659.721 124.035 660.878 125.528C662.036 127.021 662.614 128.944 662.614 131.296C662.614 133.536 662.036 135.571 660.878 137.4C659.758 139.229 658.116 140.685 655.95 141.768C653.785 142.851 651.228 143.392 648.278 143.392ZM678.083 116.176C679.017 114.72 680.305 113.544 681.947 112.648C683.59 111.752 685.513 111.304 687.715 111.304C690.291 111.304 692.625 111.957 694.715 113.264C696.806 114.571 698.449 116.437 699.643 118.864C700.875 121.291 701.491 124.109 701.491 127.32C701.491 130.531 700.875 133.368 699.643 135.832C698.449 138.259 696.806 140.144 694.715 141.488C692.625 142.795 690.291 143.448 687.715 143.448C685.55 143.448 683.627 143 681.947 142.104C680.305 141.208 679.017 140.051 678.083 138.632V157.896H668.507V111.752H678.083V116.176ZM691.747 127.32C691.747 124.931 691.075 123.064 689.731 121.72C688.425 120.339 686.801 119.648 684.859 119.648C682.955 119.648 681.331 120.339 679.987 121.72C678.681 123.101 678.027 124.987 678.027 127.376C678.027 129.765 678.681 131.651 679.987 133.032C681.331 134.413 682.955 135.104 684.859 135.104C686.763 135.104 688.387 134.413 689.731 133.032C691.075 131.613 691.747 129.709 691.747 127.32ZM735.971 126.872C735.971 127.768 735.915 128.701 735.803 129.672H714.131C714.281 131.613 714.897 133.107 715.979 134.152C717.099 135.16 718.462 135.664 720.067 135.664C722.457 135.664 724.118 134.656 725.051 132.64H735.243C734.721 134.693 733.769 136.541 732.387 138.184C731.043 139.827 729.345 141.115 727.291 142.048C725.238 142.981 722.942 143.448 720.403 143.448C717.342 143.448 714.617 142.795 712.227 141.488C709.838 140.181 707.971 138.315 706.627 135.888C705.283 133.461 704.611 130.624 704.611 127.376C704.611 124.128 705.265 121.291 706.571 118.864C707.915 116.437 709.782 114.571 712.171 113.264C714.561 111.957 717.305 111.304 720.403 111.304C723.427 111.304 726.115 111.939 728.467 113.208C730.819 114.477 732.649 116.288 733.955 118.64C735.299 120.992 735.971 123.736 735.971 126.872ZM726.171 124.352C726.171 122.709 725.611 121.403 724.491 120.432C723.371 119.461 721.971 118.976 720.291 118.976C718.686 118.976 717.323 119.443 716.203 120.376C715.121 121.309 714.449 122.635 714.187 124.352H726.171ZM739.119 127.32C739.119 124.109 739.716 121.291 740.911 118.864C742.143 116.437 743.804 114.571 745.895 113.264C747.986 111.957 750.319 111.304 752.895 111.304C755.098 111.304 757.02 111.752 758.663 112.648C760.343 113.544 761.631 114.72 762.527 116.176V111.752H772.103V143H762.527V138.576C761.594 140.032 760.287 141.208 758.607 142.104C756.964 143 755.042 143.448 752.839 143.448C750.3 143.448 747.986 142.795 745.895 141.488C743.804 140.144 742.143 138.259 740.911 135.832C739.716 133.368 739.119 130.531 739.119 127.32ZM762.527 127.376C762.527 124.987 761.855 123.101 760.511 121.72C759.204 120.339 757.599 119.648 755.695 119.648C753.791 119.648 752.167 120.339 750.823 121.72C749.516 123.064 748.863 124.931 748.863 127.32C748.863 129.709 749.516 131.613 750.823 133.032C752.167 134.413 753.791 135.104 755.695 135.104C757.599 135.104 759.204 134.413 760.511 133.032C761.855 131.651 762.527 129.765 762.527 127.376ZM798.127 143L788.607 129.896V143H779.031V101.56H788.607V124.464L798.071 111.752H809.887L796.895 127.432L809.999 143H798.127ZM843.104 126.872C843.104 127.768 843.048 128.701 842.936 129.672H821.264C821.413 131.613 822.029 133.107 823.112 134.152C824.232 135.16 825.595 135.664 827.2 135.664C829.589 135.664 831.251 134.656 832.184 132.64H842.376C841.853 134.693 840.901 136.541 839.52 138.184C838.176 139.827 836.477 141.115 834.424 142.048C832.371 142.981 830.075 143.448 827.536 143.448C824.475 143.448 821.749 142.795 819.36 141.488C816.971 140.181 815.104 138.315 813.76 135.888C812.416 133.461 811.744 130.624 811.744 127.376C811.744 124.128 812.397 121.291 813.704 118.864C815.048 116.437 816.915 114.571 819.304 113.264C821.693 111.957 824.437 111.304 827.536 111.304C830.56 111.304 833.248 111.939 835.6 113.208C837.952 114.477 839.781 116.288 841.088 118.64C842.432 120.992 843.104 123.736 843.104 126.872ZM833.304 124.352C833.304 122.709 832.744 121.403 831.624 120.432C830.504 119.461 829.104 118.976 827.424 118.976C825.819 118.976 824.456 119.443 823.336 120.376C822.253 121.309 821.581 122.635 821.32 124.352H833.304ZM857.732 116.96C858.852 115.243 860.252 113.899 861.932 112.928C863.612 111.92 865.479 111.416 867.532 111.416V121.552H864.9C862.511 121.552 860.719 122.075 859.524 123.12C858.329 124.128 857.732 125.92 857.732 128.496V143H848.156V111.752H857.732V116.96Z" fill="white"/>
</g>
<defs>
<clipPath id="clip0_2486_4201">
<rect width="1440" height="994" fill="white"/>
</clipPath>
</defs>
</svg>
