<svg width="190" height="190" viewBox="0 0 190 190" fill="none" xmlns="http://www.w3.org/2000/svg">
<path opacity="0.2" d="M94.5 180C141.72 180 180 141.72 180 94.5C180 47.2797 141.72 9 94.5 9C47.2797 9 9 47.2797 9 94.5C9 141.72 47.2797 180 94.5 180Z" fill="#172344" stroke="#172344" stroke-width="2" stroke-linecap="round" stroke-linejoin="round"/>
<path d="M94.5 155C127.913 155 155 127.913 155 94.5C155 61.0868 127.913 34 94.5 34C61.0868 34 34 61.0868 34 94.5C34 127.913 61.0868 155 94.5 155Z" fill="#172344" stroke="#172344" stroke-width="2" stroke-linecap="round" stroke-linejoin="round"/>
<path d="M122 80L85.3331 115L67 97.5" stroke="#F6F7F9" stroke-width="12" stroke-linecap="round" stroke-linejoin="round"/>
</svg>
