<svg width="1440" height="56" viewBox="0 0 1440 56" fill="none" xmlns="http://www.w3.org/2000/svg">
<rect width="1440" height="56" fill="#25396F"/>
<path d="M373.996 28.24C373.996 27.5467 374.119 26.8693 374.364 26.208C374.62 25.536 374.988 24.928 375.468 24.384C375.948 23.8293 376.535 23.392 377.228 23.072C377.921 22.7413 378.711 22.576 379.596 22.576C380.641 22.576 381.543 22.8053 382.3 23.264C383.068 23.7227 383.639 24.32 384.012 25.056L382.316 26.224C382.124 25.7973 381.873 25.4613 381.564 25.216C381.255 24.96 380.924 24.784 380.572 24.688C380.22 24.5813 379.873 24.528 379.532 24.528C378.977 24.528 378.492 24.64 378.076 24.864C377.671 25.088 377.329 25.3813 377.052 25.744C376.775 26.1067 376.567 26.512 376.428 26.96C376.3 27.408 376.236 27.856 376.236 28.304C376.236 28.8053 376.316 29.2907 376.476 29.76C376.636 30.2187 376.86 30.6293 377.148 30.992C377.447 31.344 377.799 31.6267 378.204 31.84C378.62 32.0427 379.073 32.144 379.564 32.144C379.916 32.144 380.273 32.0853 380.636 31.968C380.999 31.8507 381.335 31.664 381.644 31.408C381.953 31.152 382.193 30.8213 382.364 30.416L384.172 31.456C383.948 32.0213 383.58 32.5013 383.068 32.896C382.567 33.2907 382.001 33.5893 381.372 33.792C380.743 33.9947 380.119 34.096 379.5 34.096C378.689 34.096 377.948 33.9307 377.276 33.6C376.604 33.2587 376.023 32.8107 375.532 32.256C375.052 31.6907 374.673 31.0613 374.396 30.368C374.129 29.664 373.996 28.9547 373.996 28.24ZM389.286 34.16C388.603 34.16 387.99 34.048 387.446 33.824C386.902 33.5893 386.438 33.2693 386.054 32.864C385.68 32.4587 385.392 31.9947 385.19 31.472C384.987 30.9493 384.886 30.4 384.886 29.824C384.886 29.2373 384.987 28.6827 385.19 28.16C385.392 27.6373 385.68 27.1733 386.054 26.768C386.438 26.3627 386.902 26.048 387.446 25.824C387.99 25.5893 388.603 25.472 389.286 25.472C389.968 25.472 390.576 25.5893 391.11 25.824C391.654 26.048 392.118 26.3627 392.502 26.768C392.886 27.1733 393.174 27.6373 393.366 28.16C393.568 28.6827 393.67 29.2373 393.67 29.824C393.67 30.4 393.568 30.9493 393.366 31.472C393.174 31.9947 392.886 32.4587 392.502 32.864C392.128 33.2693 391.67 33.5893 391.126 33.824C390.582 34.048 389.968 34.16 389.286 34.16ZM387.094 29.824C387.094 30.3147 387.19 30.752 387.382 31.136C387.574 31.5093 387.835 31.8027 388.166 32.016C388.496 32.2293 388.87 32.336 389.286 32.336C389.691 32.336 390.059 32.2293 390.39 32.016C390.72 31.792 390.982 31.4933 391.174 31.12C391.376 30.736 391.478 30.2987 391.478 29.808C391.478 29.328 391.376 28.896 391.174 28.512C390.982 28.128 390.72 27.8293 390.39 27.616C390.059 27.4027 389.691 27.296 389.286 27.296C388.87 27.296 388.496 27.408 388.166 27.632C387.835 27.8453 387.574 28.144 387.382 28.528C387.19 28.9013 387.094 29.3333 387.094 29.824ZM400.141 34.16C399.49 34.16 398.914 34.016 398.413 33.728C397.922 33.4293 397.538 33.0293 397.261 32.528V37.408H395.117V25.616H396.989V27.056C397.309 26.5653 397.714 26.1813 398.205 25.904C398.695 25.616 399.255 25.472 399.885 25.472C400.45 25.472 400.967 25.584 401.437 25.808C401.917 26.032 402.333 26.3467 402.685 26.752C403.037 27.1467 403.309 27.6053 403.501 28.128C403.703 28.64 403.805 29.1947 403.805 29.792C403.805 30.6027 403.645 31.3387 403.325 32C403.015 32.6613 402.583 33.1893 402.029 33.584C401.485 33.968 400.855 34.16 400.141 34.16ZM399.421 32.336C399.751 32.336 400.05 32.2667 400.317 32.128C400.583 31.9893 400.813 31.8027 401.005 31.568C401.207 31.3227 401.357 31.0507 401.453 30.752C401.559 30.4427 401.613 30.1227 401.613 29.792C401.613 29.44 401.554 29.1147 401.437 28.816C401.33 28.5173 401.17 28.256 400.957 28.032C400.743 27.7973 400.493 27.616 400.205 27.488C399.927 27.36 399.623 27.296 399.293 27.296C399.09 27.296 398.882 27.3333 398.669 27.408C398.466 27.472 398.269 27.568 398.077 27.696C397.885 27.824 397.714 27.9733 397.565 28.144C397.426 28.3147 397.325 28.5013 397.261 28.704V30.672C397.389 30.9813 397.559 31.264 397.773 31.52C397.997 31.776 398.253 31.9787 398.541 32.128C398.829 32.2667 399.122 32.336 399.421 32.336ZM405.152 35.632C405.344 35.6747 405.52 35.712 405.68 35.744C405.851 35.776 405.995 35.792 406.112 35.792C406.315 35.792 406.48 35.7387 406.608 35.632C406.747 35.536 406.88 35.3547 407.008 35.088C407.136 34.832 407.269 34.4693 407.408 34L404.096 25.616H406.32L408.576 31.808L410.56 25.616H412.608L409.088 35.664C408.96 36.0373 408.763 36.3733 408.496 36.672C408.24 36.9813 407.915 37.2213 407.52 37.392C407.136 37.5733 406.704 37.664 406.224 37.664C406.053 37.664 405.883 37.648 405.712 37.616C405.541 37.5947 405.355 37.552 405.152 37.488V35.632ZM418.765 27.472C418.114 27.472 417.533 27.6 417.021 27.856C416.509 28.1013 416.141 28.4587 415.917 28.928V34H413.773V25.616H415.741V27.408C416.04 26.832 416.418 26.3787 416.877 26.048C417.336 25.7173 417.821 25.536 418.333 25.504C418.45 25.504 418.541 25.504 418.605 25.504C418.669 25.504 418.722 25.5093 418.765 25.52V27.472ZM419.96 34V25.616H422.104V34H419.96ZM419.96 24.448V22.32H422.104V24.448H419.96ZM427.319 34.048C426.764 34.048 426.252 33.9413 425.783 33.728C425.324 33.504 424.924 33.1947 424.583 32.8C424.252 32.4053 423.996 31.952 423.815 31.44C423.633 30.928 423.543 30.384 423.543 29.808C423.543 29.2 423.639 28.6347 423.831 28.112C424.022 27.5893 424.289 27.1307 424.631 26.736C424.983 26.3307 425.393 26.0213 425.863 25.808C426.343 25.584 426.871 25.472 427.447 25.472C428.097 25.472 428.668 25.6213 429.159 25.92C429.649 26.208 430.055 26.5973 430.375 27.088V25.616H432.247V33.6C432.247 34.432 432.044 35.1413 431.639 35.728C431.244 36.3253 430.695 36.7787 429.991 37.088C429.287 37.408 428.487 37.568 427.591 37.568C426.684 37.568 425.916 37.4133 425.287 37.104C424.657 36.8053 424.119 36.3787 423.671 35.824L424.839 34.688C425.159 35.0827 425.559 35.392 426.039 35.616C426.529 35.84 427.047 35.952 427.591 35.952C428.049 35.952 428.465 35.8667 428.839 35.696C429.223 35.536 429.527 35.28 429.751 34.928C429.985 34.5867 430.103 34.144 430.103 33.6V32.544C429.825 33.024 429.431 33.3973 428.919 33.664C428.417 33.92 427.884 34.048 427.319 34.048ZM428.039 32.336C428.273 32.336 428.497 32.2987 428.711 32.224C428.924 32.1493 429.121 32.048 429.303 31.92C429.484 31.792 429.644 31.6427 429.783 31.472C429.921 31.2907 430.028 31.1093 430.103 30.928V28.928C429.975 28.5973 429.793 28.3093 429.559 28.064C429.335 27.8187 429.079 27.632 428.791 27.504C428.513 27.3653 428.22 27.296 427.911 27.296C427.58 27.296 427.281 27.3653 427.015 27.504C426.748 27.6427 426.519 27.84 426.327 28.096C426.135 28.3413 425.985 28.6187 425.879 28.928C425.783 29.2267 425.735 29.5413 425.735 29.872C425.735 30.2133 425.793 30.5333 425.911 30.832C426.028 31.1307 426.188 31.392 426.391 31.616C426.604 31.84 426.849 32.016 427.127 32.144C427.415 32.272 427.719 32.336 428.039 32.336ZM441.971 34H439.827V29.296C439.827 28.6453 439.699 28.16 439.443 27.84C439.198 27.52 438.856 27.36 438.419 27.36C438.163 27.36 437.891 27.4347 437.603 27.584C437.315 27.7333 437.054 27.9413 436.819 28.208C436.595 28.464 436.43 28.7627 436.323 29.104V34H434.179V22.32H436.323V27.168C436.632 26.6347 437.054 26.2187 437.587 25.92C438.12 25.6213 438.702 25.472 439.331 25.472C439.875 25.472 440.318 25.568 440.659 25.76C441 25.9413 441.267 26.192 441.459 26.512C441.651 26.8213 441.784 27.1733 441.859 27.568C441.934 27.952 441.971 28.352 441.971 28.768V34ZM448.813 33.568C448.631 33.6427 448.413 33.728 448.157 33.824C447.901 33.92 447.623 33.9947 447.325 34.048C447.037 34.112 446.743 34.144 446.445 34.144C446.05 34.144 445.687 34.0747 445.357 33.936C445.026 33.7973 444.759 33.5787 444.557 33.28C444.365 32.9707 444.269 32.5707 444.269 32.08V27.264H443.165V25.616H444.269V22.896H446.413V25.616H448.173V27.264H446.413V31.36C446.423 31.648 446.503 31.856 446.653 31.984C446.802 32.112 446.989 32.176 447.213 32.176C447.437 32.176 447.655 32.1387 447.869 32.064C448.082 31.9893 448.253 31.9253 448.381 31.872L448.813 33.568ZM459.469 34.112C458.616 34.112 457.821 33.968 457.085 33.68C456.36 33.392 455.725 32.9867 455.181 32.464C454.648 31.9413 454.232 31.328 453.933 30.624C453.634 29.92 453.485 29.152 453.485 28.32C453.485 27.4987 453.634 26.736 453.933 26.032C454.232 25.328 454.648 24.72 455.181 24.208C455.725 23.6853 456.36 23.28 457.085 22.992C457.821 22.704 458.616 22.56 459.469 22.56C460.344 22.56 461.149 22.704 461.885 22.992C462.632 23.28 463.282 23.6853 463.837 24.208C464.392 24.72 464.818 25.328 465.117 26.032C465.416 26.736 465.565 27.4987 465.565 28.32C465.565 29.152 465.416 29.92 465.117 30.624C464.818 31.328 464.392 31.9413 463.837 32.464C463.282 32.9867 462.632 33.392 461.885 33.68C461.149 33.968 460.344 34.112 459.469 34.112ZM459.469 33.264C460.205 33.264 460.882 33.1467 461.501 32.912C462.13 32.6667 462.68 32.3253 463.149 31.888C463.629 31.4507 463.997 30.9333 464.253 30.336C464.52 29.728 464.653 29.0613 464.653 28.336C464.653 27.6427 464.525 26.9973 464.269 26.4C464.013 25.8027 463.65 25.28 463.181 24.832C462.712 24.384 462.162 24.0373 461.533 23.792C460.904 23.536 460.216 23.408 459.469 23.408C458.754 23.408 458.088 23.536 457.469 23.792C456.85 24.0373 456.312 24.384 455.853 24.832C455.394 25.28 455.037 25.8027 454.781 26.4C454.525 26.9867 454.397 27.632 454.397 28.336C454.397 29.0187 454.52 29.6587 454.765 30.256C455.021 30.8533 455.378 31.3813 455.837 31.84C456.306 32.288 456.845 32.64 457.453 32.896C458.072 33.1413 458.744 33.264 459.469 33.264ZM459.613 32.064C459.026 32.064 458.488 31.9733 457.997 31.792C457.517 31.6 457.101 31.3333 456.749 30.992C456.397 30.6507 456.125 30.256 455.933 29.808C455.741 29.3493 455.645 28.8533 455.645 28.32C455.645 27.8507 455.725 27.392 455.885 26.944C456.056 26.496 456.306 26.096 456.637 25.744C456.968 25.3813 457.378 25.0987 457.869 24.896C458.36 24.6827 458.93 24.576 459.581 24.576C460.413 24.576 461.128 24.7573 461.725 25.12C462.322 25.4827 462.765 25.9733 463.053 26.592L461.021 27.216C460.914 27.0027 460.776 26.832 460.605 26.704C460.445 26.576 460.274 26.4853 460.093 26.432C459.912 26.3787 459.736 26.352 459.565 26.352C459.288 26.352 459.037 26.4053 458.813 26.512C458.6 26.6187 458.413 26.7627 458.253 26.944C458.104 27.1253 457.986 27.3333 457.901 27.568C457.826 27.8027 457.789 28.0533 457.789 28.32C457.789 28.64 457.837 28.9227 457.933 29.168C458.04 29.4133 458.178 29.6213 458.349 29.792C458.53 29.952 458.728 30.0747 458.941 30.16C459.154 30.2453 459.368 30.288 459.581 30.288C459.784 30.288 459.976 30.256 460.157 30.192C460.349 30.1173 460.525 30.016 460.685 29.888C460.845 29.7493 460.973 29.5893 461.069 29.408L463.101 30.016C462.941 30.368 462.701 30.704 462.381 31.024C462.061 31.3333 461.666 31.584 461.197 31.776C460.738 31.968 460.21 32.064 459.613 32.064ZM470.75 34C470.75 33.3493 470.792 32.7787 470.878 32.288C470.963 31.7867 471.096 31.344 471.278 30.96C471.47 30.5653 471.715 30.2187 472.014 29.92C472.312 29.6213 472.68 29.3387 473.118 29.072C473.491 28.8587 473.875 28.6507 474.27 28.448C474.675 28.2453 475.048 28.032 475.39 27.808C475.742 27.584 476.024 27.328 476.238 27.04C476.462 26.752 476.574 26.4 476.574 25.984C476.574 25.664 476.504 25.392 476.366 25.168C476.238 24.9333 476.046 24.752 475.79 24.624C475.544 24.496 475.246 24.432 474.894 24.432C474.488 24.432 474.11 24.5067 473.758 24.656C473.416 24.7947 473.107 24.9707 472.83 25.184C472.563 25.3867 472.334 25.5893 472.142 25.792L470.798 24.384C470.947 24.2133 471.15 24.0213 471.406 23.808C471.672 23.5947 471.987 23.3867 472.35 23.184C472.723 22.9813 473.144 22.816 473.614 22.688C474.083 22.56 474.6 22.496 475.166 22.496C475.998 22.496 476.696 22.6453 477.262 22.944C477.827 23.232 478.254 23.632 478.542 24.144C478.84 24.6453 478.99 25.2267 478.99 25.888C478.99 26.368 478.91 26.7947 478.75 27.168C478.6 27.5307 478.392 27.8507 478.126 28.128C477.859 28.4053 477.56 28.656 477.23 28.88C476.899 29.0933 476.558 29.3013 476.206 29.504C475.651 29.8027 475.203 30.064 474.862 30.288C474.52 30.512 474.248 30.72 474.046 30.912C473.854 31.104 473.704 31.296 473.598 31.488C473.502 31.6693 473.416 31.8613 473.342 32.064H479.006V34H470.75ZM485.428 34.16C484.628 34.1493 483.919 33.968 483.3 33.616C482.681 33.264 482.164 32.8 481.748 32.224C481.332 31.648 481.017 31.0293 480.804 30.368C480.601 29.696 480.5 29.04 480.5 28.4C480.5 27.7173 480.612 27.0347 480.836 26.352C481.06 25.6693 481.385 25.0507 481.812 24.496C482.249 23.9307 482.772 23.4827 483.38 23.152C483.988 22.8107 484.671 22.64 485.428 22.64C486.249 22.64 486.964 22.8213 487.572 23.184C488.191 23.5467 488.708 24.016 489.124 24.592C489.54 25.168 489.849 25.792 490.052 26.464C490.265 27.136 490.372 27.7813 490.372 28.4C490.372 29.0933 490.26 29.7813 490.036 30.464C489.812 31.136 489.481 31.7493 489.044 32.304C488.617 32.8587 488.1 33.3067 487.492 33.648C486.884 33.9787 486.196 34.1493 485.428 34.16ZM482.724 28.4C482.735 28.848 482.793 29.296 482.9 29.744C483.017 30.1813 483.183 30.5867 483.396 30.96C483.62 31.3333 483.903 31.6373 484.244 31.872C484.585 32.096 484.98 32.208 485.428 32.208C485.908 32.208 486.319 32.0853 486.66 31.84C487.001 31.5947 487.279 31.28 487.492 30.896C487.716 30.512 487.881 30.1013 487.988 29.664C488.095 29.2267 488.148 28.8053 488.148 28.4C488.148 27.952 488.089 27.5093 487.972 27.072C487.865 26.624 487.695 26.2133 487.46 25.84C487.236 25.4667 486.953 25.168 486.612 24.944C486.281 24.7093 485.887 24.592 485.428 24.592C484.959 24.592 484.553 24.7147 484.212 24.96C483.871 25.2053 483.588 25.52 483.364 25.904C483.151 26.288 482.991 26.6987 482.884 27.136C482.777 27.5733 482.724 27.9947 482.724 28.4ZM491.703 34C491.703 33.3493 491.746 32.7787 491.831 32.288C491.916 31.7867 492.05 31.344 492.231 30.96C492.423 30.5653 492.668 30.2187 492.967 29.92C493.266 29.6213 493.634 29.3387 494.071 29.072C494.444 28.8587 494.828 28.6507 495.223 28.448C495.628 28.2453 496.002 28.032 496.343 27.808C496.695 27.584 496.978 27.328 497.191 27.04C497.415 26.752 497.527 26.4 497.527 25.984C497.527 25.664 497.458 25.392 497.319 25.168C497.191 24.9333 496.999 24.752 496.743 24.624C496.498 24.496 496.199 24.432 495.847 24.432C495.442 24.432 495.063 24.5067 494.711 24.656C494.37 24.7947 494.06 24.9707 493.783 25.184C493.516 25.3867 493.287 25.5893 493.095 25.792L491.751 24.384C491.9 24.2133 492.103 24.0213 492.359 23.808C492.626 23.5947 492.94 23.3867 493.303 23.184C493.676 22.9813 494.098 22.816 494.567 22.688C495.036 22.56 495.554 22.496 496.119 22.496C496.951 22.496 497.65 22.6453 498.215 22.944C498.78 23.232 499.207 23.632 499.495 24.144C499.794 24.6453 499.943 25.2267 499.943 25.888C499.943 26.368 499.863 26.7947 499.703 27.168C499.554 27.5307 499.346 27.8507 499.079 28.128C498.812 28.4053 498.514 28.656 498.183 28.88C497.852 29.0933 497.511 29.3013 497.159 29.504C496.604 29.8027 496.156 30.064 495.815 30.288C495.474 30.512 495.202 30.72 494.999 30.912C494.807 31.104 494.658 31.296 494.551 31.488C494.455 31.6693 494.37 31.8613 494.295 32.064H499.959V34H491.703ZM505.133 34.112C504.525 34.112 503.971 34.0373 503.469 33.888C502.979 33.728 502.547 33.504 502.173 33.216C501.811 32.9173 501.523 32.5653 501.309 32.16L502.461 30.704C502.568 30.9387 502.739 31.168 502.973 31.392C503.208 31.616 503.501 31.7973 503.853 31.936C504.205 32.0747 504.605 32.144 505.053 32.144C505.491 32.144 505.869 32.08 506.189 31.952C506.509 31.824 506.755 31.648 506.925 31.424C507.107 31.1893 507.197 30.9067 507.197 30.576C507.197 30.224 507.085 29.9253 506.861 29.68C506.648 29.4347 506.328 29.248 505.901 29.12C505.475 28.992 504.952 28.928 504.333 28.928H503.805V27.328H504.365C505.133 27.328 505.747 27.1947 506.205 26.928C506.675 26.6613 506.909 26.2827 506.909 25.792C506.909 25.4933 506.829 25.2373 506.669 25.024C506.509 24.8 506.296 24.6347 506.029 24.528C505.763 24.4107 505.469 24.352 505.149 24.352C504.616 24.352 504.141 24.48 503.725 24.736C503.32 24.9813 503.011 25.3013 502.797 25.696L501.405 24.144C501.64 23.8027 501.96 23.5147 502.365 23.28C502.771 23.0347 503.224 22.8427 503.725 22.704C504.237 22.5653 504.765 22.496 505.309 22.496C506.067 22.496 506.739 22.6293 507.325 22.896C507.912 23.152 508.371 23.504 508.701 23.952C509.032 24.4 509.197 24.912 509.197 25.488C509.197 25.9147 509.107 26.304 508.925 26.656C508.755 27.008 508.509 27.3013 508.189 27.536C507.869 27.7707 507.491 27.9413 507.053 28.048C507.523 28.1227 507.933 28.2987 508.285 28.576C508.648 28.8427 508.925 29.184 509.117 29.6C509.32 30.0053 509.421 30.448 509.421 30.928C509.421 31.6 509.229 32.1707 508.845 32.64C508.472 33.1093 507.96 33.472 507.309 33.728C506.669 33.984 505.944 34.112 505.133 34.112ZM514.912 30.576V28.64H519.76V30.576H514.912ZM533.727 24.576H530.095V34H527.903V24.576H524.271V22.64H533.727V24.576ZM539.124 27.472C538.474 27.472 537.892 27.6 537.38 27.856C536.868 28.1013 536.5 28.4587 536.276 28.928V34H534.132V25.616H536.1V27.408C536.399 26.832 536.778 26.3787 537.236 26.048C537.695 25.7173 538.18 25.536 538.692 25.504C538.81 25.504 538.9 25.504 538.964 25.504C539.028 25.504 539.082 25.5093 539.124 25.52V27.472ZM539.697 31.52C539.697 30.976 539.846 30.5013 540.145 30.096C540.454 29.68 540.881 29.36 541.425 29.136C541.969 28.912 542.593 28.8 543.297 28.8C543.649 28.8 544.006 28.8267 544.369 28.88C544.732 28.9333 545.046 29.0187 545.313 29.136V28.688C545.313 28.1547 545.153 27.744 544.833 27.456C544.524 27.168 544.06 27.024 543.441 27.024C542.982 27.024 542.545 27.104 542.129 27.264C541.713 27.424 541.276 27.6587 540.817 27.968L540.129 26.56C540.684 26.1973 541.249 25.9253 541.825 25.744C542.412 25.5627 543.025 25.472 543.665 25.472C544.86 25.472 545.788 25.7707 546.449 26.368C547.121 26.9653 547.457 27.8187 547.457 28.928V31.6C547.457 31.824 547.494 31.984 547.569 32.08C547.654 32.176 547.788 32.2347 547.969 32.256V34C547.777 34.032 547.601 34.0587 547.441 34.08C547.292 34.1013 547.164 34.112 547.057 34.112C546.63 34.112 546.305 34.016 546.081 33.824C545.868 33.632 545.734 33.3973 545.681 33.12L545.633 32.688C545.27 33.1573 544.817 33.52 544.273 33.776C543.729 34.032 543.174 34.16 542.609 34.16C542.054 34.16 541.553 34.048 541.105 33.824C540.668 33.5893 540.321 33.2747 540.065 32.88C539.82 32.4747 539.697 32.0213 539.697 31.52ZM544.913 31.952C545.03 31.824 545.126 31.696 545.201 31.568C545.276 31.44 545.313 31.3227 545.313 31.216V30.368C545.057 30.2613 544.78 30.1813 544.481 30.128C544.182 30.064 543.9 30.032 543.633 30.032C543.078 30.032 542.62 30.1547 542.257 30.4C541.905 30.6347 541.729 30.9493 541.729 31.344C541.729 31.5573 541.788 31.76 541.905 31.952C542.022 32.144 542.193 32.2987 542.417 32.416C542.641 32.5333 542.908 32.592 543.217 32.592C543.537 32.592 543.852 32.5333 544.161 32.416C544.47 32.288 544.721 32.1333 544.913 31.952ZM557.252 34H555.108V29.296C555.108 28.624 554.991 28.1333 554.756 27.824C554.522 27.5147 554.196 27.36 553.78 27.36C553.492 27.36 553.199 27.4347 552.9 27.584C552.612 27.7333 552.351 27.9413 552.116 28.208C551.882 28.464 551.711 28.7627 551.604 29.104V34H549.46V25.616H551.396V27.168C551.61 26.8053 551.882 26.5013 552.212 26.256C552.543 26 552.922 25.808 553.348 25.68C553.786 25.5413 554.244 25.472 554.724 25.472C555.247 25.472 555.674 25.568 556.004 25.76C556.346 25.9413 556.602 26.192 556.772 26.512C556.954 26.8213 557.076 27.1733 557.14 27.568C557.215 27.9627 557.252 28.3627 557.252 28.768V34ZM562.205 34.16C561.49 34.16 560.807 34.0427 560.157 33.808C559.506 33.5733 558.946 33.2267 558.477 32.768L559.245 31.376C559.746 31.7813 560.237 32.08 560.717 32.272C561.207 32.464 561.677 32.56 562.125 32.56C562.541 32.56 562.871 32.4853 563.117 32.336C563.373 32.1867 563.501 31.9627 563.501 31.664C563.501 31.4613 563.431 31.3067 563.293 31.2C563.154 31.0827 562.951 30.9813 562.685 30.896C562.429 30.8107 562.114 30.7147 561.741 30.608C561.122 30.4053 560.605 30.208 560.189 30.016C559.773 29.824 559.458 29.584 559.245 29.296C559.042 28.9973 558.941 28.6187 558.941 28.16C558.941 27.6053 559.079 27.1307 559.357 26.736C559.645 26.3307 560.039 26.016 560.541 25.792C561.053 25.568 561.65 25.456 562.333 25.456C562.93 25.456 563.495 25.552 564.029 25.744C564.562 25.9253 565.047 26.224 565.485 26.64L564.621 28C564.194 27.6693 563.789 27.4293 563.405 27.28C563.021 27.12 562.631 27.04 562.237 27.04C562.013 27.04 561.799 27.0667 561.597 27.12C561.405 27.1733 561.245 27.264 561.117 27.392C560.999 27.5093 560.941 27.68 560.941 27.904C560.941 28.1067 560.994 28.2667 561.101 28.384C561.218 28.4907 561.389 28.5867 561.613 28.672C561.847 28.7573 562.13 28.8533 562.461 28.96C563.133 29.152 563.698 29.3493 564.157 29.552C564.626 29.7547 564.978 30.0053 565.213 30.304C565.447 30.592 565.565 30.992 565.565 31.504C565.565 32.336 565.261 32.9867 564.653 33.456C564.045 33.9253 563.229 34.16 562.205 34.16ZM567.488 34V27.696H566.384V26.064H567.488V25.552C567.488 24.8587 567.6 24.2613 567.824 23.76C568.059 23.248 568.384 22.8533 568.8 22.576C569.227 22.2987 569.723 22.16 570.288 22.16C570.629 22.16 570.971 22.2027 571.312 22.288C571.664 22.3733 572.011 22.496 572.352 22.656L571.92 24.272C571.76 24.1867 571.573 24.1173 571.36 24.064C571.147 24 570.944 23.968 570.752 23.968C570.389 23.968 570.112 24.096 569.92 24.352C569.728 24.608 569.632 24.9813 569.632 25.472V26.064H571.68V27.696H569.632V34H567.488ZM576.661 34.16C575.978 34.16 575.365 34.048 574.821 33.824C574.277 33.5893 573.813 33.2693 573.429 32.864C573.055 32.4587 572.767 31.9947 572.565 31.472C572.362 30.9493 572.261 30.4 572.261 29.824C572.261 29.2373 572.362 28.6827 572.565 28.16C572.767 27.6373 573.055 27.1733 573.429 26.768C573.813 26.3627 574.277 26.048 574.821 25.824C575.365 25.5893 575.978 25.472 576.661 25.472C577.343 25.472 577.951 25.5893 578.485 25.824C579.029 26.048 579.493 26.3627 579.877 26.768C580.261 27.1733 580.549 27.6373 580.741 28.16C580.943 28.6827 581.045 29.2373 581.045 29.824C581.045 30.4 580.943 30.9493 580.741 31.472C580.549 31.9947 580.261 32.4587 579.877 32.864C579.503 33.2693 579.045 33.5893 578.501 33.824C577.957 34.048 577.343 34.16 576.661 34.16ZM574.469 29.824C574.469 30.3147 574.565 30.752 574.757 31.136C574.949 31.5093 575.21 31.8027 575.541 32.016C575.871 32.2293 576.245 32.336 576.661 32.336C577.066 32.336 577.434 32.2293 577.765 32.016C578.095 31.792 578.357 31.4933 578.549 31.12C578.751 30.736 578.853 30.2987 578.853 29.808C578.853 29.328 578.751 28.896 578.549 28.512C578.357 28.128 578.095 27.8293 577.765 27.616C577.434 27.4027 577.066 27.296 576.661 27.296C576.245 27.296 575.871 27.408 575.541 27.632C575.21 27.8453 574.949 28.144 574.757 28.528C574.565 28.9013 574.469 29.3333 574.469 29.824ZM587.484 27.472C586.833 27.472 586.252 27.6 585.74 27.856C585.228 28.1013 584.86 28.4587 584.636 28.928V34H582.492V25.616H584.46V27.408C584.758 26.832 585.137 26.3787 585.596 26.048C586.054 25.7173 586.54 25.536 587.052 25.504C587.169 25.504 587.26 25.504 587.324 25.504C587.388 25.504 587.441 25.5093 587.484 25.52V27.472ZM601.703 34H599.559V29.296C599.559 28.6347 599.442 28.1493 599.207 27.84C598.983 27.52 598.668 27.36 598.263 27.36C597.847 27.36 597.447 27.5253 597.063 27.856C596.69 28.176 596.423 28.5973 596.263 29.12V34H594.119V29.296C594.119 28.624 594.002 28.1333 593.767 27.824C593.543 27.5147 593.228 27.36 592.823 27.36C592.407 27.36 592.007 27.52 591.623 27.84C591.25 28.16 590.983 28.5813 590.823 29.104V34H588.679V25.616H590.615V27.168C590.935 26.624 591.362 26.208 591.895 25.92C592.428 25.6213 593.042 25.472 593.735 25.472C594.428 25.472 594.967 25.6427 595.351 25.984C595.746 26.3253 595.996 26.7467 596.103 27.248C596.444 26.672 596.876 26.2347 597.399 25.936C597.932 25.6267 598.53 25.472 599.191 25.472C599.714 25.472 600.135 25.568 600.455 25.76C600.786 25.9413 601.042 26.192 601.223 26.512C601.404 26.8213 601.527 27.1733 601.591 27.568C601.666 27.9627 601.703 28.3627 601.703 28.768V34ZM602.994 31.52C602.994 30.976 603.143 30.5013 603.442 30.096C603.751 29.68 604.178 29.36 604.722 29.136C605.266 28.912 605.89 28.8 606.594 28.8C606.946 28.8 607.303 28.8267 607.666 28.88C608.028 28.9333 608.343 29.0187 608.61 29.136V28.688C608.61 28.1547 608.45 27.744 608.13 27.456C607.82 27.168 607.356 27.024 606.738 27.024C606.279 27.024 605.842 27.104 605.426 27.264C605.01 27.424 604.572 27.6587 604.114 27.968L603.426 26.56C603.98 26.1973 604.546 25.9253 605.122 25.744C605.708 25.5627 606.322 25.472 606.962 25.472C608.156 25.472 609.084 25.7707 609.746 26.368C610.418 26.9653 610.754 27.8187 610.754 28.928V31.6C610.754 31.824 610.791 31.984 610.866 32.08C610.951 32.176 611.084 32.2347 611.266 32.256V34C611.074 34.032 610.898 34.0587 610.738 34.08C610.588 34.1013 610.46 34.112 610.354 34.112C609.927 34.112 609.602 34.016 609.378 33.824C609.164 33.632 609.031 33.3973 608.978 33.12L608.93 32.688C608.567 33.1573 608.114 33.52 607.57 33.776C607.026 34.032 606.471 34.16 605.906 34.16C605.351 34.16 604.85 34.048 604.402 33.824C603.964 33.5893 603.618 33.2747 603.362 32.88C603.116 32.4747 602.994 32.0213 602.994 31.52ZM608.21 31.952C608.327 31.824 608.423 31.696 608.498 31.568C608.572 31.44 608.61 31.3227 608.61 31.216V30.368C608.354 30.2613 608.076 30.1813 607.778 30.128C607.479 30.064 607.196 30.032 606.93 30.032C606.375 30.032 605.916 30.1547 605.554 30.4C605.202 30.6347 605.026 30.9493 605.026 31.344C605.026 31.5573 605.084 31.76 605.202 31.952C605.319 32.144 605.49 32.2987 605.714 32.416C605.938 32.5333 606.204 32.592 606.514 32.592C606.834 32.592 607.148 32.5333 607.458 32.416C607.767 32.288 608.018 32.1333 608.21 31.952ZM617.703 33.568C617.522 33.6427 617.303 33.728 617.047 33.824C616.791 33.92 616.514 33.9947 616.215 34.048C615.927 34.112 615.634 34.144 615.335 34.144C614.94 34.144 614.578 34.0747 614.247 33.936C613.916 33.7973 613.65 33.5787 613.447 33.28C613.255 32.9707 613.159 32.5707 613.159 32.08V27.264H612.055V25.616H613.159V22.896H615.303V25.616H617.063V27.264H615.303V31.36C615.314 31.648 615.394 31.856 615.543 31.984C615.692 32.112 615.879 32.176 616.103 32.176C616.327 32.176 616.546 32.1387 616.759 32.064C616.972 31.9893 617.143 31.9253 617.271 31.872L617.703 33.568ZM618.82 34V25.616H620.964V34H618.82ZM618.82 24.448V22.32H620.964V24.448H618.82ZM626.77 34.16C626.087 34.16 625.474 34.048 624.93 33.824C624.386 33.5893 623.922 33.2693 623.538 32.864C623.165 32.4587 622.877 31.9947 622.674 31.472C622.471 30.9493 622.37 30.4 622.37 29.824C622.37 29.2373 622.471 28.6827 622.674 28.16C622.877 27.6373 623.165 27.1733 623.538 26.768C623.922 26.3627 624.386 26.048 624.93 25.824C625.474 25.5893 626.087 25.472 626.77 25.472C627.453 25.472 628.061 25.5893 628.594 25.824C629.138 26.048 629.602 26.3627 629.986 26.768C630.37 27.1733 630.658 27.6373 630.85 28.16C631.053 28.6827 631.154 29.2373 631.154 29.824C631.154 30.4 631.053 30.9493 630.85 31.472C630.658 31.9947 630.37 32.4587 629.986 32.864C629.613 33.2693 629.154 33.5893 628.61 33.824C628.066 34.048 627.453 34.16 626.77 34.16ZM624.578 29.824C624.578 30.3147 624.674 30.752 624.866 31.136C625.058 31.5093 625.319 31.8027 625.65 32.016C625.981 32.2293 626.354 32.336 626.77 32.336C627.175 32.336 627.543 32.2293 627.874 32.016C628.205 31.792 628.466 31.4933 628.658 31.12C628.861 30.736 628.962 30.2987 628.962 29.808C628.962 29.328 628.861 28.896 628.658 28.512C628.466 28.128 628.205 27.8293 627.874 27.616C627.543 27.4027 627.175 27.296 626.77 27.296C626.354 27.296 625.981 27.408 625.65 27.632C625.319 27.8453 625.058 28.144 624.866 28.528C624.674 28.9013 624.578 29.3333 624.578 29.824ZM640.393 34H638.249V29.296C638.249 28.624 638.132 28.1333 637.897 27.824C637.662 27.5147 637.337 27.36 636.921 27.36C636.633 27.36 636.34 27.4347 636.041 27.584C635.753 27.7333 635.492 27.9413 635.257 28.208C635.022 28.464 634.852 28.7627 634.745 29.104V34H632.601V25.616H634.537V27.168C634.75 26.8053 635.022 26.5013 635.353 26.256C635.684 26 636.062 25.808 636.489 25.68C636.926 25.5413 637.385 25.472 637.865 25.472C638.388 25.472 638.814 25.568 639.145 25.76C639.486 25.9413 639.742 26.192 639.913 26.512C640.094 26.8213 640.217 27.1733 640.281 27.568C640.356 27.9627 640.393 28.3627 640.393 28.768V34ZM641.681 31.52C641.681 30.976 641.831 30.5013 642.129 30.096C642.439 29.68 642.865 29.36 643.409 29.136C643.953 28.912 644.577 28.8 645.281 28.8C645.633 28.8 645.991 28.8267 646.353 28.88C646.716 28.9333 647.031 29.0187 647.297 29.136V28.688C647.297 28.1547 647.137 27.744 646.817 27.456C646.508 27.168 646.044 27.024 645.425 27.024C644.967 27.024 644.529 27.104 644.113 27.264C643.697 27.424 643.26 27.6587 642.801 27.968L642.113 26.56C642.668 26.1973 643.233 25.9253 643.809 25.744C644.396 25.5627 645.009 25.472 645.649 25.472C646.844 25.472 647.772 25.7707 648.433 26.368C649.105 26.9653 649.441 27.8187 649.441 28.928V31.6C649.441 31.824 649.479 31.984 649.553 32.08C649.639 32.176 649.772 32.2347 649.953 32.256V34C649.761 34.032 649.585 34.0587 649.425 34.08C649.276 34.1013 649.148 34.112 649.041 34.112C648.615 34.112 648.289 34.016 648.065 33.824C647.852 33.632 647.719 33.3973 647.665 33.12L647.617 32.688C647.255 33.1573 646.801 33.52 646.257 33.776C645.713 34.032 645.159 34.16 644.593 34.16C644.039 34.16 643.537 34.048 643.089 33.824C642.652 33.5893 642.305 33.2747 642.049 32.88C641.804 32.4747 641.681 32.0213 641.681 31.52ZM646.897 31.952C647.015 31.824 647.111 31.696 647.185 31.568C647.26 31.44 647.297 31.3227 647.297 31.216V30.368C647.041 30.2613 646.764 30.1813 646.465 30.128C646.167 30.064 645.884 30.032 645.617 30.032C645.063 30.032 644.604 30.1547 644.241 30.4C643.889 30.6347 643.713 30.9493 643.713 31.344C643.713 31.5573 643.772 31.76 643.889 31.952C644.007 32.144 644.177 32.2987 644.401 32.416C644.625 32.5333 644.892 32.592 645.201 32.592C645.521 32.592 645.836 32.5333 646.145 32.416C646.455 32.288 646.705 32.1333 646.897 31.952ZM651.429 22.32H653.573V31.312C653.573 31.696 653.637 31.9573 653.765 32.096C653.893 32.224 654.069 32.288 654.293 32.288C654.463 32.288 654.639 32.2667 654.821 32.224C655.002 32.1813 655.162 32.128 655.301 32.064L655.589 33.696C655.301 33.8347 654.965 33.9413 654.581 34.016C654.197 34.0907 653.85 34.128 653.541 34.128C652.869 34.128 652.346 33.952 651.973 33.6C651.61 33.2373 651.429 32.7253 651.429 32.064V22.32ZM669.289 31.072C669.289 31.712 669.124 32.2507 668.793 32.688C668.462 33.1147 668.014 33.44 667.449 33.664C666.894 33.888 666.286 34 665.625 34H660.137V22.64H666.217C666.75 22.64 667.209 22.784 667.593 23.072C667.988 23.3493 668.286 23.712 668.489 24.16C668.702 24.5973 668.809 25.056 668.809 25.536C668.809 26.08 668.67 26.5973 668.393 27.088C668.116 27.5787 667.71 27.9413 667.177 28.176C667.828 28.368 668.34 28.7147 668.713 29.216C669.097 29.7173 669.289 30.336 669.289 31.072ZM667.065 30.656C667.065 30.368 667.006 30.112 666.889 29.888C666.772 29.6533 666.612 29.472 666.409 29.344C666.217 29.2053 665.993 29.136 665.737 29.136H662.345V32.128H665.625C665.892 32.128 666.132 32.064 666.345 31.936C666.569 31.7973 666.745 31.616 666.873 31.392C667.001 31.168 667.065 30.9227 667.065 30.656ZM662.345 24.528V27.392H665.289C665.534 27.392 665.758 27.3333 665.961 27.216C666.164 27.0987 666.324 26.9333 666.441 26.72C666.569 26.5067 666.633 26.2507 666.633 25.952C666.633 25.664 666.574 25.4133 666.457 25.2C666.35 24.9867 666.201 24.8213 666.009 24.704C665.828 24.5867 665.62 24.528 665.385 24.528H662.345ZM670.693 30.864V25.616H672.837V30.4C672.837 31.04 672.954 31.5253 673.189 31.856C673.424 32.176 673.77 32.336 674.229 32.336C674.506 32.336 674.778 32.2827 675.045 32.176C675.322 32.0587 675.573 31.888 675.797 31.664C676.032 31.44 676.229 31.1573 676.389 30.816V25.616H678.533V31.6C678.533 31.824 678.57 31.984 678.645 32.08C678.73 32.176 678.864 32.2347 679.045 32.256V34C678.832 34.032 678.65 34.0533 678.501 34.064C678.362 34.0853 678.234 34.096 678.117 34.096C677.733 34.096 677.418 34.0107 677.173 33.84C676.938 33.6587 676.8 33.4133 676.757 33.104L676.709 32.432C676.336 32.9973 675.856 33.4293 675.269 33.728C674.682 34.016 674.037 34.16 673.333 34.16C672.469 34.16 671.813 33.8827 671.365 33.328C670.917 32.7627 670.693 31.9413 670.693 30.864ZM683.752 34.16C683.037 34.16 682.354 34.0427 681.704 33.808C681.053 33.5733 680.493 33.2267 680.024 32.768L680.792 31.376C681.293 31.7813 681.784 32.08 682.264 32.272C682.754 32.464 683.224 32.56 683.672 32.56C684.088 32.56 684.418 32.4853 684.664 32.336C684.92 32.1867 685.048 31.9627 685.048 31.664C685.048 31.4613 684.978 31.3067 684.84 31.2C684.701 31.0827 684.498 30.9813 684.232 30.896C683.976 30.8107 683.661 30.7147 683.288 30.608C682.669 30.4053 682.152 30.208 681.736 30.016C681.32 29.824 681.005 29.584 680.792 29.296C680.589 28.9973 680.488 28.6187 680.488 28.16C680.488 27.6053 680.626 27.1307 680.904 26.736C681.192 26.3307 681.586 26.016 682.088 25.792C682.6 25.568 683.197 25.456 683.88 25.456C684.477 25.456 685.042 25.552 685.576 25.744C686.109 25.9253 686.594 26.224 687.032 26.64L686.168 28C685.741 27.6693 685.336 27.4293 684.952 27.28C684.568 27.12 684.178 27.04 683.784 27.04C683.56 27.04 683.346 27.0667 683.144 27.12C682.952 27.1733 682.792 27.264 682.664 27.392C682.546 27.5093 682.488 27.68 682.488 27.904C682.488 28.1067 682.541 28.2667 682.648 28.384C682.765 28.4907 682.936 28.5867 683.16 28.672C683.394 28.7573 683.677 28.8533 684.008 28.96C684.68 29.152 685.245 29.3493 685.704 29.552C686.173 29.7547 686.525 30.0053 686.76 30.304C686.994 30.592 687.112 30.992 687.112 31.504C687.112 32.336 686.808 32.9867 686.2 33.456C685.592 33.9253 684.776 34.16 683.752 34.16ZM688.57 34V25.616H690.714V34H688.57ZM688.57 24.448V22.32H690.714V24.448H688.57ZM700.44 34H698.296V29.296C698.296 28.624 698.179 28.1333 697.944 27.824C697.709 27.5147 697.384 27.36 696.968 27.36C696.68 27.36 696.387 27.4347 696.088 27.584C695.8 27.7333 695.539 27.9413 695.304 28.208C695.069 28.464 694.899 28.7627 694.792 29.104V34H692.648V25.616H694.584V27.168C694.797 26.8053 695.069 26.5013 695.4 26.256C695.731 26 696.109 25.808 696.536 25.68C696.973 25.5413 697.432 25.472 697.912 25.472C698.435 25.472 698.861 25.568 699.192 25.76C699.533 25.9413 699.789 26.192 699.96 26.512C700.141 26.8213 700.264 27.1733 700.328 27.568C700.403 27.9627 700.44 28.3627 700.44 28.768V34ZM706.192 34.16C705.52 34.16 704.912 34.048 704.368 33.824C703.824 33.5893 703.36 33.2747 702.976 32.88C702.592 32.4747 702.293 32.016 702.08 31.504C701.877 30.9813 701.776 30.432 701.776 29.856C701.776 29.056 701.952 28.3253 702.304 27.664C702.667 27.0027 703.179 26.4747 703.84 26.08C704.512 25.6747 705.301 25.472 706.208 25.472C707.125 25.472 707.909 25.6747 708.56 26.08C709.211 26.4747 709.707 27.0027 710.048 27.664C710.4 28.3147 710.576 29.0187 710.576 29.776C710.576 29.904 710.571 30.0373 710.56 30.176C710.549 30.304 710.539 30.4107 710.528 30.496H704.048C704.091 30.9227 704.213 31.296 704.416 31.616C704.629 31.936 704.896 32.1813 705.216 32.352C705.547 32.512 705.899 32.592 706.272 32.592C706.699 32.592 707.099 32.4907 707.472 32.288C707.856 32.0747 708.117 31.7973 708.256 31.456L710.096 31.968C709.893 32.3947 709.6 32.7733 709.216 33.104C708.843 33.4347 708.4 33.696 707.888 33.888C707.376 34.0693 706.811 34.16 706.192 34.16ZM704 29.136H708.384C708.341 28.7093 708.219 28.3413 708.016 28.032C707.824 27.712 707.568 27.4667 707.248 27.296C706.928 27.1147 706.571 27.024 706.176 27.024C705.792 27.024 705.44 27.1147 705.12 27.296C704.811 27.4667 704.555 27.712 704.352 28.032C704.16 28.3413 704.043 28.7093 704 29.136ZM714.97 34.16C714.256 34.16 713.573 34.0427 712.922 33.808C712.272 33.5733 711.712 33.2267 711.242 32.768L712.01 31.376C712.512 31.7813 713.002 32.08 713.482 32.272C713.973 32.464 714.442 32.56 714.89 32.56C715.306 32.56 715.637 32.4853 715.882 32.336C716.138 32.1867 716.266 31.9627 716.266 31.664C716.266 31.4613 716.197 31.3067 716.058 31.2C715.92 31.0827 715.717 30.9813 715.45 30.896C715.194 30.8107 714.88 30.7147 714.506 30.608C713.888 30.4053 713.37 30.208 712.954 30.016C712.538 29.824 712.224 29.584 712.01 29.296C711.808 28.9973 711.706 28.6187 711.706 28.16C711.706 27.6053 711.845 27.1307 712.122 26.736C712.41 26.3307 712.805 26.016 713.306 25.792C713.818 25.568 714.416 25.456 715.098 25.456C715.696 25.456 716.261 25.552 716.794 25.744C717.328 25.9253 717.813 26.224 718.25 26.64L717.386 28C716.96 27.6693 716.554 27.4293 716.17 27.28C715.786 27.12 715.397 27.04 715.002 27.04C714.778 27.04 714.565 27.0667 714.362 27.12C714.17 27.1733 714.01 27.264 713.882 27.392C713.765 27.5093 713.706 27.68 713.706 27.904C713.706 28.1067 713.76 28.2667 713.866 28.384C713.984 28.4907 714.154 28.5867 714.378 28.672C714.613 28.7573 714.896 28.8533 715.226 28.96C715.898 29.152 716.464 29.3493 716.922 29.552C717.392 29.7547 717.744 30.0053 717.978 30.304C718.213 30.592 718.33 30.992 718.33 31.504C718.33 32.336 718.026 32.9867 717.418 33.456C716.81 33.9253 715.994 34.16 714.97 34.16ZM722.877 34.16C722.162 34.16 721.479 34.0427 720.829 33.808C720.178 33.5733 719.618 33.2267 719.149 32.768L719.917 31.376C720.418 31.7813 720.909 32.08 721.389 32.272C721.879 32.464 722.349 32.56 722.797 32.56C723.213 32.56 723.543 32.4853 723.789 32.336C724.045 32.1867 724.173 31.9627 724.173 31.664C724.173 31.4613 724.103 31.3067 723.965 31.2C723.826 31.0827 723.623 30.9813 723.357 30.896C723.101 30.8107 722.786 30.7147 722.413 30.608C721.794 30.4053 721.277 30.208 720.861 30.016C720.445 29.824 720.13 29.584 719.917 29.296C719.714 28.9973 719.613 28.6187 719.613 28.16C719.613 27.6053 719.751 27.1307 720.029 26.736C720.317 26.3307 720.711 26.016 721.213 25.792C721.725 25.568 722.322 25.456 723.005 25.456C723.602 25.456 724.167 25.552 724.701 25.744C725.234 25.9253 725.719 26.224 726.157 26.64L725.293 28C724.866 27.6693 724.461 27.4293 724.077 27.28C723.693 27.12 723.303 27.04 722.909 27.04C722.685 27.04 722.471 27.0667 722.269 27.12C722.077 27.1733 721.917 27.264 721.789 27.392C721.671 27.5093 721.613 27.68 721.613 27.904C721.613 28.1067 721.666 28.2667 721.773 28.384C721.89 28.4907 722.061 28.5867 722.285 28.672C722.519 28.7573 722.802 28.8533 723.133 28.96C723.805 29.152 724.37 29.3493 724.829 29.552C725.298 29.7547 725.65 30.0053 725.885 30.304C726.119 30.592 726.237 30.992 726.237 31.504C726.237 32.336 725.933 32.9867 725.325 33.456C724.717 33.9253 723.901 34.16 722.877 34.16ZM733.955 26.704V34H731.747V22.64H733.507L739.378 30.128V22.656H741.587V34H739.747L733.955 26.704ZM747.489 34.16C746.817 34.16 746.209 34.048 745.665 33.824C745.121 33.5893 744.657 33.2747 744.273 32.88C743.889 32.4747 743.59 32.016 743.377 31.504C743.174 30.9813 743.073 30.432 743.073 29.856C743.073 29.056 743.249 28.3253 743.601 27.664C743.964 27.0027 744.476 26.4747 745.137 26.08C745.809 25.6747 746.598 25.472 747.505 25.472C748.422 25.472 749.206 25.6747 749.857 26.08C750.508 26.4747 751.004 27.0027 751.345 27.664C751.697 28.3147 751.873 29.0187 751.873 29.776C751.873 29.904 751.868 30.0373 751.857 30.176C751.846 30.304 751.836 30.4107 751.825 30.496H745.345C745.388 30.9227 745.51 31.296 745.713 31.616C745.926 31.936 746.193 32.1813 746.513 32.352C746.844 32.512 747.196 32.592 747.569 32.592C747.996 32.592 748.396 32.4907 748.769 32.288C749.153 32.0747 749.414 31.7973 749.553 31.456L751.393 31.968C751.19 32.3947 750.897 32.7733 750.513 33.104C750.14 33.4347 749.697 33.696 749.185 33.888C748.673 34.0693 748.108 34.16 747.489 34.16ZM745.297 29.136H749.681C749.638 28.7093 749.516 28.3413 749.313 28.032C749.121 27.712 748.865 27.4667 748.545 27.296C748.225 27.1147 747.868 27.024 747.473 27.024C747.089 27.024 746.737 27.1147 746.417 27.296C746.108 27.4667 745.852 27.712 745.649 28.032C745.457 28.3413 745.34 28.7093 745.297 29.136ZM758.125 33.568C757.944 33.6427 757.725 33.728 757.469 33.824C757.213 33.92 756.936 33.9947 756.637 34.048C756.349 34.112 756.056 34.144 755.757 34.144C755.362 34.144 755 34.0747 754.669 33.936C754.338 33.7973 754.072 33.5787 753.869 33.28C753.677 32.9707 753.581 32.5707 753.581 32.08V27.264H752.477V25.616H753.581V22.896H755.725V25.616H757.485V27.264H755.725V31.36C755.736 31.648 755.816 31.856 755.965 31.984C756.114 32.112 756.301 32.176 756.525 32.176C756.749 32.176 756.968 32.1387 757.181 32.064C757.394 31.9893 757.565 31.9253 757.693 31.872L758.125 33.568ZM769.61 25.616H771.642L768.138 34H766.346L764.938 30.4L763.562 34H761.754L758.266 25.616H760.282L762.778 31.952L763.754 29.216L762.298 25.632H764.074L764.938 28.192L765.818 25.632H767.594L766.138 29.216L767.13 31.952L769.61 25.616ZM776.223 34.16C775.54 34.16 774.927 34.048 774.383 33.824C773.839 33.5893 773.375 33.2693 772.991 32.864C772.618 32.4587 772.33 31.9947 772.127 31.472C771.924 30.9493 771.823 30.4 771.823 29.824C771.823 29.2373 771.924 28.6827 772.127 28.16C772.33 27.6373 772.618 27.1733 772.991 26.768C773.375 26.3627 773.839 26.048 774.383 25.824C774.927 25.5893 775.54 25.472 776.223 25.472C776.906 25.472 777.514 25.5893 778.047 25.824C778.591 26.048 779.055 26.3627 779.439 26.768C779.823 27.1733 780.111 27.6373 780.303 28.16C780.506 28.6827 780.607 29.2373 780.607 29.824C780.607 30.4 780.506 30.9493 780.303 31.472C780.111 31.9947 779.823 32.4587 779.439 32.864C779.066 33.2693 778.607 33.5893 778.063 33.824C777.519 34.048 776.906 34.16 776.223 34.16ZM774.031 29.824C774.031 30.3147 774.127 30.752 774.319 31.136C774.511 31.5093 774.772 31.8027 775.103 32.016C775.434 32.2293 775.807 32.336 776.223 32.336C776.628 32.336 776.996 32.2293 777.327 32.016C777.658 31.792 777.919 31.4933 778.111 31.12C778.314 30.736 778.415 30.2987 778.415 29.808C778.415 29.328 778.314 28.896 778.111 28.512C777.919 28.128 777.658 27.8293 777.327 27.616C776.996 27.4027 776.628 27.296 776.223 27.296C775.807 27.296 775.434 27.408 775.103 27.632C774.772 27.8453 774.511 28.144 774.319 28.528C774.127 28.9013 774.031 29.3333 774.031 29.824ZM787.046 27.472C786.395 27.472 785.814 27.6 785.302 27.856C784.79 28.1013 784.422 28.4587 784.198 28.928V34H782.054V25.616H784.022V27.408C784.321 26.832 784.699 26.3787 785.158 26.048C785.617 25.7173 786.102 25.536 786.614 25.504C786.731 25.504 786.822 25.504 786.886 25.504C786.95 25.504 787.003 25.5093 787.046 25.52V27.472ZM793.97 34L791.522 30.384L790.386 31.504V34H788.242V22.32H790.386V29.392L793.762 25.632H796.034L792.914 29.184L796.258 34H793.97ZM800.575 28.448C800.575 27.3707 800.805 26.2933 801.263 25.216C801.722 24.128 802.287 23.0187 802.959 21.888L804.591 22.576C804.431 22.832 804.234 23.1787 803.999 23.616C803.775 24.0533 803.551 24.5493 803.327 25.104C803.114 25.648 802.933 26.2133 802.783 26.8C802.645 27.3867 802.575 27.952 802.575 28.496C802.575 29.3493 802.757 30.2453 803.119 31.184C803.493 32.112 803.967 33.072 804.543 34.064L802.975 34.848C802.538 34.176 802.133 33.488 801.759 32.784C801.397 32.08 801.109 31.36 800.895 30.624C800.682 29.888 800.575 29.1627 800.575 28.448ZM814.758 24.576H811.126V34H808.934V24.576H805.302V22.64H814.758V24.576ZM825.32 31.072C825.32 31.712 825.155 32.2507 824.824 32.688C824.494 33.1147 824.046 33.44 823.48 33.664C822.926 33.888 822.318 34 821.656 34H816.168V22.64H822.248C822.782 22.64 823.24 22.784 823.624 23.072C824.019 23.3493 824.318 23.712 824.52 24.16C824.734 24.5973 824.84 25.056 824.84 25.536C824.84 26.08 824.702 26.5973 824.424 27.088C824.147 27.5787 823.742 27.9413 823.208 28.176C823.859 28.368 824.371 28.7147 824.744 29.216C825.128 29.7173 825.32 30.336 825.32 31.072ZM823.096 30.656C823.096 30.368 823.038 30.112 822.92 29.888C822.803 29.6533 822.643 29.472 822.44 29.344C822.248 29.2053 822.024 29.136 821.768 29.136H818.376V32.128H821.656C821.923 32.128 822.163 32.064 822.376 31.936C822.6 31.7973 822.776 31.616 822.904 31.392C823.032 31.168 823.096 30.9227 823.096 30.656ZM818.376 24.528V27.392H821.32C821.566 27.392 821.79 27.3333 821.992 27.216C822.195 27.0987 822.355 26.9333 822.472 26.72C822.6 26.5067 822.664 26.2507 822.664 25.952C822.664 25.664 822.606 25.4133 822.488 25.2C822.382 24.9867 822.232 24.8213 822.04 24.704C821.859 24.5867 821.651 24.528 821.416 24.528H818.376ZM829.251 26.704V34H827.043V22.64H828.803L834.675 30.128V22.656H836.883V34H835.043L829.251 26.704ZM842.463 28.448C842.463 29.1627 842.356 29.888 842.143 30.624C841.929 31.36 841.641 32.08 841.279 32.784C840.916 33.488 840.511 34.176 840.062 34.848L838.495 34.064C839.081 33.072 839.556 32.112 839.919 31.184C840.281 30.2453 840.463 29.3493 840.463 28.496C840.463 27.952 840.388 27.3867 840.239 26.8C840.1 26.2133 839.919 25.648 839.695 25.104C839.481 24.5493 839.263 24.0533 839.039 23.616C838.815 23.1787 838.617 22.832 838.447 22.576L840.095 21.888C840.756 23.0187 841.316 24.128 841.775 25.216C842.233 26.2933 842.463 27.3707 842.463 28.448ZM850.616 22.64H852.856L857.032 34H854.76L853.704 31.168H849.736L848.696 34H846.424L850.616 22.64ZM853.304 29.616L851.736 24.928L850.104 29.616H853.304ZM858.007 22.32H860.151V31.312C860.151 31.696 860.215 31.9573 860.343 32.096C860.471 32.224 860.647 32.288 860.871 32.288C861.042 32.288 861.218 32.2667 861.399 32.224C861.58 32.1813 861.74 32.128 861.879 32.064L862.167 33.696C861.879 33.8347 861.543 33.9413 861.159 34.016C860.775 34.0907 860.428 34.128 860.119 34.128C859.447 34.128 858.924 33.952 858.551 33.6C858.188 33.2373 858.007 32.7253 858.007 32.064V22.32ZM863.085 22.32H865.229V31.312C865.229 31.696 865.293 31.9573 865.421 32.096C865.549 32.224 865.725 32.288 865.949 32.288C866.12 32.288 866.296 32.2667 866.477 32.224C866.658 32.1813 866.818 32.128 866.957 32.064L867.245 33.696C866.957 33.8347 866.621 33.9413 866.237 34.016C865.853 34.0907 865.506 34.128 865.197 34.128C864.525 34.128 864.002 33.952 863.629 33.6C863.266 33.2373 863.085 32.7253 863.085 32.064V22.32ZM868.179 34V25.616H870.323V34H868.179ZM868.179 24.448V22.32H870.323V24.448H868.179ZM871.681 31.52C871.681 30.976 871.831 30.5013 872.129 30.096C872.439 29.68 872.865 29.36 873.409 29.136C873.953 28.912 874.577 28.8 875.281 28.8C875.633 28.8 875.991 28.8267 876.353 28.88C876.716 28.9333 877.031 29.0187 877.297 29.136V28.688C877.297 28.1547 877.137 27.744 876.817 27.456C876.508 27.168 876.044 27.024 875.425 27.024C874.967 27.024 874.529 27.104 874.113 27.264C873.697 27.424 873.26 27.6587 872.801 27.968L872.113 26.56C872.668 26.1973 873.233 25.9253 873.809 25.744C874.396 25.5627 875.009 25.472 875.649 25.472C876.844 25.472 877.772 25.7707 878.433 26.368C879.105 26.9653 879.441 27.8187 879.441 28.928V31.6C879.441 31.824 879.479 31.984 879.553 32.08C879.639 32.176 879.772 32.2347 879.953 32.256V34C879.761 34.032 879.585 34.0587 879.425 34.08C879.276 34.1013 879.148 34.112 879.041 34.112C878.615 34.112 878.289 34.016 878.065 33.824C877.852 33.632 877.719 33.3973 877.665 33.12L877.617 32.688C877.255 33.1573 876.801 33.52 876.257 33.776C875.713 34.032 875.159 34.16 874.593 34.16C874.039 34.16 873.537 34.048 873.089 33.824C872.652 33.5893 872.305 33.2747 872.049 32.88C871.804 32.4747 871.681 32.0213 871.681 31.52ZM876.897 31.952C877.015 31.824 877.111 31.696 877.185 31.568C877.26 31.44 877.297 31.3227 877.297 31.216V30.368C877.041 30.2613 876.764 30.1813 876.465 30.128C876.167 30.064 875.884 30.032 875.617 30.032C875.063 30.032 874.604 30.1547 874.241 30.4C873.889 30.6347 873.713 30.9493 873.713 31.344C873.713 31.5573 873.772 31.76 873.889 31.952C874.007 32.144 874.177 32.2987 874.401 32.416C874.625 32.5333 874.892 32.592 875.201 32.592C875.521 32.592 875.836 32.5333 876.145 32.416C876.455 32.288 876.705 32.1333 876.897 31.952ZM889.237 34H887.093V29.296C887.093 28.624 886.975 28.1333 886.741 27.824C886.506 27.5147 886.181 27.36 885.765 27.36C885.477 27.36 885.183 27.4347 884.885 27.584C884.597 27.7333 884.335 27.9413 884.101 28.208C883.866 28.464 883.695 28.7627 883.589 29.104V34H881.445V25.616H883.381V27.168C883.594 26.8053 883.866 26.5013 884.197 26.256C884.527 26 884.906 25.808 885.333 25.68C885.77 25.5413 886.229 25.472 886.709 25.472C887.231 25.472 887.658 25.568 887.989 25.76C888.33 25.9413 888.586 26.192 888.757 26.512C888.938 26.8213 889.061 27.1733 889.125 27.568C889.199 27.9627 889.237 28.3627 889.237 28.768V34ZM895.005 34.16C894.322 34.16 893.709 34.048 893.165 33.824C892.621 33.5893 892.157 33.2693 891.773 32.864C891.389 32.448 891.09 31.9787 890.877 31.456C890.674 30.9333 890.573 30.384 890.573 29.808C890.573 29.0187 890.749 28.2987 891.101 27.648C891.464 26.9867 891.976 26.4587 892.637 26.064C893.298 25.6693 894.082 25.472 894.989 25.472C895.896 25.472 896.674 25.6693 897.325 26.064C897.976 26.4587 898.461 26.976 898.781 27.616L896.685 28.256C896.504 27.9467 896.264 27.712 895.965 27.552C895.666 27.3813 895.336 27.296 894.973 27.296C894.568 27.296 894.194 27.4027 893.853 27.616C893.522 27.8187 893.261 28.112 893.069 28.496C892.877 28.8693 892.781 29.3067 892.781 29.808C892.781 30.2987 892.877 30.736 893.069 31.12C893.272 31.4933 893.538 31.792 893.869 32.016C894.2 32.2293 894.568 32.336 894.973 32.336C895.229 32.336 895.469 32.2933 895.693 32.208C895.928 32.1227 896.136 32.0053 896.317 31.856C896.498 31.7067 896.632 31.536 896.717 31.344L898.813 31.984C898.621 32.4 898.338 32.7733 897.965 33.104C897.602 33.4347 897.17 33.696 896.669 33.888C896.178 34.0693 895.624 34.16 895.005 34.16ZM903.942 34.16C903.27 34.16 902.662 34.048 902.118 33.824C901.574 33.5893 901.11 33.2747 900.726 32.88C900.342 32.4747 900.043 32.016 899.83 31.504C899.627 30.9813 899.526 30.432 899.526 29.856C899.526 29.056 899.702 28.3253 900.054 27.664C900.417 27.0027 900.929 26.4747 901.59 26.08C902.262 25.6747 903.051 25.472 903.958 25.472C904.875 25.472 905.659 25.6747 906.31 26.08C906.961 26.4747 907.457 27.0027 907.798 27.664C908.15 28.3147 908.326 29.0187 908.326 29.776C908.326 29.904 908.321 30.0373 908.31 30.176C908.299 30.304 908.289 30.4107 908.278 30.496H901.798C901.841 30.9227 901.963 31.296 902.166 31.616C902.379 31.936 902.646 32.1813 902.966 32.352C903.297 32.512 903.649 32.592 904.022 32.592C904.449 32.592 904.849 32.4907 905.222 32.288C905.606 32.0747 905.867 31.7973 906.006 31.456L907.846 31.968C907.643 32.3947 907.35 32.7733 906.966 33.104C906.593 33.4347 906.15 33.696 905.638 33.888C905.126 34.0693 904.561 34.16 903.942 34.16ZM901.75 29.136H906.134C906.091 28.7093 905.969 28.3413 905.766 28.032C905.574 27.712 905.318 27.4667 904.998 27.296C904.678 27.1147 904.321 27.024 903.926 27.024C903.542 27.024 903.19 27.1147 902.87 27.296C902.561 27.4667 902.305 27.712 902.102 28.032C901.91 28.3413 901.793 28.7093 901.75 29.136ZM913.428 30.576V28.64H918.276V30.576H913.428ZM926.803 22.64H929.043L933.219 34H930.947L929.891 31.168H925.923L924.883 34H922.611L926.803 22.64ZM929.491 29.616L927.923 24.928L926.291 29.616H929.491ZM934.194 22.32H936.338V31.312C936.338 31.696 936.402 31.9573 936.53 32.096C936.658 32.224 936.834 32.288 937.058 32.288C937.229 32.288 937.405 32.2667 937.586 32.224C937.768 32.1813 937.928 32.128 938.066 32.064L938.354 33.696C938.066 33.8347 937.73 33.9413 937.346 34.016C936.962 34.0907 936.616 34.128 936.306 34.128C935.634 34.128 935.112 33.952 934.738 33.6C934.376 33.2373 934.194 32.7253 934.194 32.064V22.32ZM939.273 22.32H941.417V31.312C941.417 31.696 941.481 31.9573 941.609 32.096C941.737 32.224 941.913 32.288 942.137 32.288C942.307 32.288 942.483 32.2667 942.665 32.224C942.846 32.1813 943.006 32.128 943.145 32.064L943.433 33.696C943.145 33.8347 942.809 33.9413 942.424 34.016C942.041 34.0907 941.694 34.128 941.385 34.128C940.713 34.128 940.19 33.952 939.817 33.6C939.454 33.2373 939.273 32.7253 939.273 32.064V22.32ZM952.765 27.472C952.114 27.472 951.533 27.6 951.021 27.856C950.509 28.1013 950.141 28.4587 949.917 28.928V34H947.773V25.616H949.741V27.408C950.04 26.832 950.418 26.3787 950.877 26.048C951.336 25.7173 951.821 25.536 952.333 25.504C952.45 25.504 952.541 25.504 952.605 25.504C952.669 25.504 952.722 25.5093 952.765 25.52V27.472ZM953.96 34V25.616H956.104V34H953.96ZM953.96 24.448V22.32H956.104V24.448H953.96ZM961.319 34.048C960.764 34.048 960.252 33.9413 959.783 33.728C959.324 33.504 958.924 33.1947 958.583 32.8C958.252 32.4053 957.996 31.952 957.815 31.44C957.633 30.928 957.543 30.384 957.543 29.808C957.543 29.2 957.639 28.6347 957.831 28.112C958.022 27.5893 958.289 27.1307 958.631 26.736C958.983 26.3307 959.393 26.0213 959.863 25.808C960.343 25.584 960.871 25.472 961.447 25.472C962.097 25.472 962.668 25.6213 963.159 25.92C963.649 26.208 964.055 26.5973 964.375 27.088V25.616H966.247V33.6C966.247 34.432 966.044 35.1413 965.639 35.728C965.244 36.3253 964.695 36.7787 963.991 37.088C963.287 37.408 962.487 37.568 961.591 37.568C960.684 37.568 959.916 37.4133 959.287 37.104C958.657 36.8053 958.119 36.3787 957.671 35.824L958.839 34.688C959.159 35.0827 959.559 35.392 960.039 35.616C960.529 35.84 961.047 35.952 961.591 35.952C962.049 35.952 962.465 35.8667 962.839 35.696C963.223 35.536 963.527 35.28 963.751 34.928C963.985 34.5867 964.103 34.144 964.103 33.6V32.544C963.825 33.024 963.431 33.3973 962.919 33.664C962.417 33.92 961.884 34.048 961.319 34.048ZM962.039 32.336C962.273 32.336 962.497 32.2987 962.711 32.224C962.924 32.1493 963.121 32.048 963.303 31.92C963.484 31.792 963.644 31.6427 963.783 31.472C963.921 31.2907 964.028 31.1093 964.103 30.928V28.928C963.975 28.5973 963.793 28.3093 963.559 28.064C963.335 27.8187 963.079 27.632 962.791 27.504C962.513 27.3653 962.22 27.296 961.911 27.296C961.58 27.296 961.281 27.3653 961.015 27.504C960.748 27.6427 960.519 27.84 960.327 28.096C960.135 28.3413 959.985 28.6187 959.879 28.928C959.783 29.2267 959.735 29.5413 959.735 29.872C959.735 30.2133 959.793 30.5333 959.911 30.832C960.028 31.1307 960.188 31.392 960.391 31.616C960.604 31.84 960.849 32.016 961.127 32.144C961.415 32.272 961.719 32.336 962.039 32.336ZM975.971 34H973.827V29.296C973.827 28.6453 973.699 28.16 973.443 27.84C973.198 27.52 972.856 27.36 972.419 27.36C972.163 27.36 971.891 27.4347 971.603 27.584C971.315 27.7333 971.054 27.9413 970.819 28.208C970.595 28.464 970.43 28.7627 970.323 29.104V34H968.179V22.32H970.323V27.168C970.632 26.6347 971.054 26.2187 971.587 25.92C972.12 25.6213 972.702 25.472 973.331 25.472C973.875 25.472 974.318 25.568 974.659 25.76C975 25.9413 975.267 26.192 975.459 26.512C975.651 26.8213 975.784 27.1733 975.859 27.568C975.934 27.952 975.971 28.352 975.971 28.768V34ZM982.813 33.568C982.631 33.6427 982.413 33.728 982.157 33.824C981.901 33.92 981.623 33.9947 981.325 34.048C981.037 34.112 980.743 34.144 980.445 34.144C980.05 34.144 979.687 34.0747 979.357 33.936C979.026 33.7973 978.759 33.5787 978.557 33.28C978.365 32.9707 978.269 32.5707 978.269 32.08V27.264H977.165V25.616H978.269V22.896H980.413V25.616H982.173V27.264H980.413V31.36C980.423 31.648 980.503 31.856 980.653 31.984C980.802 32.112 980.989 32.176 981.213 32.176C981.437 32.176 981.655 32.1387 981.869 32.064C982.082 31.9893 982.253 31.9253 982.381 31.872L982.813 33.568ZM987.017 34.16C986.302 34.16 985.62 34.0427 984.969 33.808C984.318 33.5733 983.758 33.2267 983.289 32.768L984.057 31.376C984.558 31.7813 985.049 32.08 985.529 32.272C986.02 32.464 986.489 32.56 986.937 32.56C987.353 32.56 987.684 32.4853 987.929 32.336C988.185 32.1867 988.313 31.9627 988.313 31.664C988.313 31.4613 988.244 31.3067 988.105 31.2C987.966 31.0827 987.764 30.9813 987.497 30.896C987.241 30.8107 986.926 30.7147 986.553 30.608C985.934 30.4053 985.417 30.208 985.001 30.016C984.585 29.824 984.27 29.584 984.057 29.296C983.854 28.9973 983.753 28.6187 983.753 28.16C983.753 27.6053 983.892 27.1307 984.169 26.736C984.457 26.3307 984.852 26.016 985.353 25.792C985.865 25.568 986.462 25.456 987.145 25.456C987.742 25.456 988.308 25.552 988.841 25.744C989.374 25.9253 989.86 26.224 990.297 26.64L989.433 28C989.006 27.6693 988.601 27.4293 988.217 27.28C987.833 27.12 987.444 27.04 987.049 27.04C986.825 27.04 986.612 27.0667 986.409 27.12C986.217 27.1733 986.057 27.264 985.929 27.392C985.812 27.5093 985.753 27.68 985.753 27.904C985.753 28.1067 985.806 28.2667 985.913 28.384C986.03 28.4907 986.201 28.5867 986.425 28.672C986.66 28.7573 986.942 28.8533 987.273 28.96C987.945 29.152 988.51 29.3493 988.969 29.552C989.438 29.7547 989.79 30.0053 990.025 30.304C990.26 30.592 990.377 30.992 990.377 31.504C990.377 32.336 990.073 32.9867 989.465 33.456C988.857 33.9253 988.041 34.16 987.017 34.16ZM1000.67 27.472C1000.02 27.472 999.439 27.6 998.927 27.856C998.415 28.1013 998.047 28.4587 997.823 28.928V34H995.679V25.616H997.647V27.408C997.946 26.832 998.324 26.3787 998.783 26.048C999.242 25.7173 999.727 25.536 1000.24 25.504C1000.36 25.504 1000.45 25.504 1000.51 25.504C1000.58 25.504 1000.63 25.5093 1000.67 25.52V27.472ZM1005.65 34.16C1004.97 34.16 1004.37 34.048 1003.82 33.824C1003.28 33.5893 1002.81 33.2747 1002.43 32.88C1002.05 32.4747 1001.75 32.016 1001.53 31.504C1001.33 30.9813 1001.23 30.432 1001.23 29.856C1001.23 29.056 1001.41 28.3253 1001.76 27.664C1002.12 27.0027 1002.63 26.4747 1003.29 26.08C1003.97 25.6747 1004.75 25.472 1005.66 25.472C1006.58 25.472 1007.36 25.6747 1008.01 26.08C1008.66 26.4747 1009.16 27.0027 1009.5 27.664C1009.85 28.3147 1010.03 29.0187 1010.03 29.776C1010.03 29.904 1010.02 30.0373 1010.01 30.176C1010 30.304 1009.99 30.4107 1009.98 30.496H1003.5C1003.54 30.9227 1003.67 31.296 1003.87 31.616C1004.08 31.936 1004.35 32.1813 1004.67 32.352C1005 32.512 1005.35 32.592 1005.73 32.592C1006.15 32.592 1006.55 32.4907 1006.93 32.288C1007.31 32.0747 1007.57 31.7973 1007.71 31.456L1009.55 31.968C1009.35 32.3947 1009.05 32.7733 1008.67 33.104C1008.3 33.4347 1007.85 33.696 1007.34 33.888C1006.83 34.0693 1006.26 34.16 1005.65 34.16ZM1003.45 29.136H1007.84C1007.79 28.7093 1007.67 28.3413 1007.47 28.032C1007.28 27.712 1007.02 27.4667 1006.7 27.296C1006.38 27.1147 1006.02 27.024 1005.63 27.024C1005.25 27.024 1004.89 27.1147 1004.57 27.296C1004.26 27.4667 1004.01 27.712 1003.81 28.032C1003.61 28.3413 1003.5 28.7093 1003.45 29.136ZM1014.42 34.16C1013.71 34.16 1013.03 34.0427 1012.38 33.808C1011.72 33.5733 1011.16 33.2267 1010.7 32.768L1011.46 31.376C1011.96 31.7813 1012.46 32.08 1012.94 32.272C1013.43 32.464 1013.9 32.56 1014.34 32.56C1014.76 32.56 1015.09 32.4853 1015.34 32.336C1015.59 32.1867 1015.72 31.9627 1015.72 31.664C1015.72 31.4613 1015.65 31.3067 1015.51 31.2C1015.37 31.0827 1015.17 30.9813 1014.9 30.896C1014.65 30.8107 1014.33 30.7147 1013.96 30.608C1013.34 30.4053 1012.82 30.208 1012.41 30.016C1011.99 29.824 1011.68 29.584 1011.46 29.296C1011.26 28.9973 1011.16 28.6187 1011.16 28.16C1011.16 27.6053 1011.3 27.1307 1011.58 26.736C1011.86 26.3307 1012.26 26.016 1012.76 25.792C1013.27 25.568 1013.87 25.456 1014.55 25.456C1015.15 25.456 1015.71 25.552 1016.25 25.744C1016.78 25.9253 1017.27 26.224 1017.7 26.64L1016.84 28C1016.41 27.6693 1016.01 27.4293 1015.62 27.28C1015.24 27.12 1014.85 27.04 1014.46 27.04C1014.23 27.04 1014.02 27.0667 1013.82 27.12C1013.62 27.1733 1013.46 27.264 1013.34 27.392C1013.22 27.5093 1013.16 27.68 1013.16 27.904C1013.16 28.1067 1013.21 28.2667 1013.32 28.384C1013.44 28.4907 1013.61 28.5867 1013.83 28.672C1014.07 28.7573 1014.35 28.8533 1014.68 28.96C1015.35 29.152 1015.92 29.3493 1016.38 29.552C1016.84 29.7547 1017.2 30.0053 1017.43 30.304C1017.67 30.592 1017.78 30.992 1017.78 31.504C1017.78 32.336 1017.48 32.9867 1016.87 33.456C1016.26 33.9253 1015.45 34.16 1014.42 34.16ZM1023.13 34.16C1022.46 34.16 1021.85 34.048 1021.31 33.824C1020.76 33.5893 1020.3 33.2747 1019.91 32.88C1019.53 32.4747 1019.23 32.016 1019.02 31.504C1018.81 30.9813 1018.71 30.432 1018.71 29.856C1018.71 29.056 1018.89 28.3253 1019.24 27.664C1019.6 27.0027 1020.12 26.4747 1020.78 26.08C1021.45 25.6747 1022.24 25.472 1023.15 25.472C1024.06 25.472 1024.85 25.6747 1025.5 26.08C1026.15 26.4747 1026.64 27.0027 1026.99 27.664C1027.34 28.3147 1027.51 29.0187 1027.51 29.776C1027.51 29.904 1027.51 30.0373 1027.5 30.176C1027.49 30.304 1027.48 30.4107 1027.47 30.496H1020.99C1021.03 30.9227 1021.15 31.296 1021.35 31.616C1021.57 31.936 1021.83 32.1813 1022.15 32.352C1022.48 32.512 1022.84 32.592 1023.21 32.592C1023.64 32.592 1024.04 32.4907 1024.41 32.288C1024.79 32.0747 1025.05 31.7973 1025.19 31.456L1027.03 31.968C1026.83 32.3947 1026.54 32.7733 1026.15 33.104C1025.78 33.4347 1025.34 33.696 1024.83 33.888C1024.31 34.0693 1023.75 34.16 1023.13 34.16ZM1020.94 29.136H1025.32C1025.28 28.7093 1025.16 28.3413 1024.95 28.032C1024.76 27.712 1024.51 27.4667 1024.19 27.296C1023.87 27.1147 1023.51 27.024 1023.11 27.024C1022.73 27.024 1022.38 27.1147 1022.06 27.296C1021.75 27.4667 1021.49 27.712 1021.29 28.032C1021.1 28.3413 1020.98 28.7093 1020.94 29.136ZM1033.81 27.472C1033.16 27.472 1032.58 27.6 1032.07 27.856C1031.56 28.1013 1031.19 28.4587 1030.96 28.928V34H1028.82V25.616H1030.79V27.408C1031.09 26.832 1031.47 26.3787 1031.92 26.048C1032.38 25.7173 1032.87 25.536 1033.38 25.504C1033.5 25.504 1033.59 25.504 1033.65 25.504C1033.72 25.504 1033.77 25.5093 1033.81 25.52V27.472ZM1037.26 34L1034.18 25.616H1036.4L1038.51 32.048L1040.64 25.616H1042.67L1039.6 34H1037.26ZM1047.41 34.16C1046.74 34.16 1046.13 34.048 1045.59 33.824C1045.04 33.5893 1044.58 33.2747 1044.19 32.88C1043.81 32.4747 1043.51 32.016 1043.3 31.504C1043.1 30.9813 1042.99 30.432 1042.99 29.856C1042.99 29.056 1043.17 28.3253 1043.52 27.664C1043.89 27.0027 1044.4 26.4747 1045.06 26.08C1045.73 25.6747 1046.52 25.472 1047.43 25.472C1048.34 25.472 1049.13 25.6747 1049.78 26.08C1050.43 26.4747 1050.93 27.0027 1051.27 27.664C1051.62 28.3147 1051.79 29.0187 1051.79 29.776C1051.79 29.904 1051.79 30.0373 1051.78 30.176C1051.77 30.304 1051.76 30.4107 1051.75 30.496H1045.27C1045.31 30.9227 1045.43 31.296 1045.63 31.616C1045.85 31.936 1046.11 32.1813 1046.43 32.352C1046.77 32.512 1047.12 32.592 1047.49 32.592C1047.92 32.592 1048.32 32.4907 1048.69 32.288C1049.07 32.0747 1049.34 31.7973 1049.47 31.456L1051.31 31.968C1051.11 32.3947 1050.82 32.7733 1050.43 33.104C1050.06 33.4347 1049.62 33.696 1049.11 33.888C1048.59 34.0693 1048.03 34.16 1047.41 34.16ZM1045.22 29.136H1049.6C1049.56 28.7093 1049.44 28.3413 1049.23 28.032C1049.04 27.712 1048.79 27.4667 1048.47 27.296C1048.15 27.1147 1047.79 27.024 1047.39 27.024C1047.01 27.024 1046.66 27.1147 1046.34 27.296C1046.03 27.4667 1045.77 27.712 1045.57 28.032C1045.38 28.3413 1045.26 28.7093 1045.22 29.136ZM1052.59 29.808C1052.59 28.9973 1052.75 28.2667 1053.07 27.616C1053.39 26.9547 1053.83 26.432 1054.4 26.048C1054.96 25.664 1055.61 25.472 1056.33 25.472C1056.95 25.472 1057.51 25.6267 1058 25.936C1058.5 26.2347 1058.89 26.6187 1059.17 27.088V22.32H1061.31V31.6C1061.31 31.824 1061.35 31.984 1061.42 32.08C1061.5 32.176 1061.62 32.2347 1061.81 32.256V34C1061.43 34.0747 1061.13 34.112 1060.89 34.112C1060.51 34.112 1060.19 34.016 1059.93 33.824C1059.69 33.632 1059.55 33.3813 1059.52 33.072L1059.49 32.544C1059.18 33.0667 1058.75 33.4667 1058.22 33.744C1057.7 34.0213 1057.15 34.16 1056.57 34.16C1056 34.16 1055.46 34.048 1054.97 33.824C1054.49 33.6 1054.07 33.2907 1053.71 32.896C1053.36 32.5013 1053.08 32.0427 1052.88 31.52C1052.69 30.9867 1052.59 30.416 1052.59 29.808ZM1059.17 30.928V28.928C1059.06 28.6187 1058.89 28.3413 1058.65 28.096C1058.42 27.8507 1058.16 27.6587 1057.87 27.52C1057.58 27.3707 1057.29 27.296 1057.01 27.296C1056.67 27.296 1056.38 27.3653 1056.11 27.504C1055.84 27.6427 1055.61 27.8293 1055.41 28.064C1055.21 28.2987 1055.06 28.5707 1054.96 28.88C1054.86 29.1893 1054.81 29.5147 1054.81 29.856C1054.81 30.1973 1054.87 30.5227 1054.97 30.832C1055.09 31.1307 1055.26 31.392 1055.47 31.616C1055.68 31.84 1055.93 32.016 1056.21 32.144C1056.49 32.272 1056.8 32.336 1057.13 32.336C1057.34 32.336 1057.54 32.304 1057.74 32.24C1057.95 32.1653 1058.15 32.0693 1058.33 31.952C1058.53 31.824 1058.69 31.6747 1058.83 31.504C1058.98 31.3227 1059.09 31.1307 1059.17 30.928ZM1063.37 34V31.696H1065.13V34H1063.37Z" fill="white"/>
</svg>
