<svg width="23" height="24" viewBox="0 0 23 24" fill="none" xmlns="http://www.w3.org/2000/svg">
<path d="M10.6072 4.99976C10.946 3.95711 12.4211 3.95711 12.7598 4.99976L13.9703 8.72511C14.1218 9.19139 14.5563 9.50709 15.0466 9.50709H18.9637C20.06 9.50709 20.5158 10.91 19.6289 11.5544L16.4599 13.8568C16.0632 14.1449 15.8973 14.6558 16.0488 15.122L17.2592 18.8474C17.598 19.89 16.4046 20.7571 15.5177 20.1127L12.3487 17.8103C11.9521 17.5221 11.415 17.5221 11.0183 17.8103L7.84936 20.1127C6.96243 20.7571 5.76907 19.89 6.10785 18.8474L7.31829 15.122C7.46979 14.6558 7.30382 14.1449 6.90717 13.8568L3.73821 11.5544C2.85127 10.91 3.3071 9.50709 4.40341 9.50709H8.32046C8.81075 9.50709 9.24527 9.19139 9.39678 8.72511L10.6072 4.99976Z" fill="#D4D4D8"/>
</svg>
