<svg width="57" height="58" viewBox="0 0 57 58" fill="none" xmlns="http://www.w3.org/2000/svg">
<g clip-path="url(#clip0_1400_2068)">
<path d="M1.2164 28.6521C1.21506 33.5252 2.47619 38.2834 4.87419 42.4774L0.987061 56.807L15.5114 52.9619C19.5286 55.17 24.0296 56.327 28.6036 56.3273H28.6156C43.715 56.3273 56.0063 43.9218 56.0128 28.6739C56.0157 21.2852 53.1683 14.3373 47.9951 9.11011C42.8228 3.88336 35.9439 1.00337 28.6145 1C13.5133 1 1.22285 13.4048 1.21662 28.6521" fill="url(#paint0_linear_1400_2068)"/>
<path d="M0.238242 28.6439C0.236684 33.6924 1.54301 38.6208 4.02652 42.965L0 57.8082L15.0451 53.8253C19.1905 56.1074 23.8578 57.3105 28.6071 57.3123H28.6193C44.2605 57.3123 56.9933 44.4606 57 28.6668C57.0027 21.0126 54.0529 13.815 48.6949 8.40056C43.3363 2.98678 36.2113 0.00314729 28.6193 0C12.9755 0 0.244477 12.8499 0.238242 28.6439ZM9.19815 42.2168L8.63639 41.3165C6.2749 37.5253 5.02847 33.1443 5.03025 28.6457C5.03515 15.5181 15.6167 4.83783 28.6283 4.83783C34.9294 4.84053 40.8512 7.32059 45.3052 11.8203C49.759 16.3205 52.2098 22.3026 52.2082 28.665C52.2024 41.7926 41.6207 52.4743 28.6193 52.4743H28.61C24.3766 52.472 20.2248 51.3242 16.6039 49.155L15.7422 48.6391L6.81417 51.0025L9.19815 42.2168Z" fill="url(#paint1_linear_1400_2068)"/>
<path d="M21.5259 16.6698C20.9946 15.4776 20.4355 15.4536 19.9303 15.4327C19.5166 15.4147 19.0437 15.416 18.5712 15.416C18.0983 15.416 17.3299 15.5957 16.6804 16.3117C16.0303 17.0283 14.1982 18.7603 14.1982 22.2827C14.1982 25.8055 16.7394 29.2097 17.0937 29.6879C17.4484 30.1651 21.9994 37.6251 29.2073 40.495C35.1976 42.8799 36.4167 42.4056 37.7168 42.286C39.0171 42.1669 41.9125 40.5545 42.5032 38.8827C43.0943 37.211 43.0943 35.7781 42.9171 35.4786C42.7399 35.1803 42.267 35.0012 41.5578 34.6433C40.8484 34.2851 37.3621 32.553 36.7121 32.314C36.062 32.0753 35.5893 31.9562 35.1164 32.6731C34.6434 33.3888 33.2854 35.0012 32.8715 35.4786C32.4581 35.9573 32.0441 36.0168 31.3352 35.6587C30.6256 35.2995 28.3418 34.5443 25.6323 32.1054C23.5242 30.2076 22.101 27.864 21.6873 27.1471C21.2736 26.4313 21.643 26.0433 21.9986 25.6865C22.3172 25.3657 22.7079 24.8505 23.0629 24.4326C23.4164 24.0144 23.5344 23.7161 23.7709 23.2386C24.0076 22.7607 23.8891 22.3425 23.7121 21.9844C23.5344 21.6263 22.1564 18.0854 21.5259 16.6698Z" fill="white"/>
</g>
<defs>
<linearGradient id="paint0_linear_1400_2068" x1="2752.27" y1="5581.7" x2="2752.27" y2="1" gradientUnits="userSpaceOnUse">
<stop stop-color="#1FAF38"/>
<stop offset="1" stop-color="#60D669"/>
</linearGradient>
<linearGradient id="paint1_linear_1400_2068" x1="2850" y1="5780.82" x2="2850" y2="0" gradientUnits="userSpaceOnUse">
<stop stop-color="#F9F9F9"/>
<stop offset="1" stop-color="white"/>
</linearGradient>
<clipPath id="clip0_1400_2068">
<rect width="57" height="58" fill="white"/>
</clipPath>
</defs>
</svg>
