<svg width="42" height="48" viewBox="0 0 42 48" fill="none" xmlns="http://www.w3.org/2000/svg">
<g clip-path="url(#clip0_1399_3731)">
<path d="M9.70972 34.9955C9.70972 34.9955 9.87713 34.8281 10.2119 34.4933C10.5468 34.1585 10.7142 33.5179 10.7142 32.5714C10.7142 31.625 10.3794 30.817 9.70972 30.1473C9.04007 29.4777 8.23204 29.1429 7.28561 29.1429C6.33918 29.1429 5.53115 29.4777 4.8615 30.1473C4.19186 30.817 3.85704 31.625 3.85704 32.5714C3.85704 33.5179 4.19186 34.3259 4.8615 34.9955C5.53115 35.6652 6.33918 36 7.28561 36C8.23204 36 9.04007 35.6652 9.70972 34.9955ZM37.1383 34.9955C37.1383 34.9955 37.3057 34.8281 37.6405 34.4933C37.9753 34.1585 38.1428 33.5179 38.1428 32.5714C38.1428 31.625 37.8079 30.817 37.1383 30.1473C36.4686 29.4777 35.6606 29.1429 34.7142 29.1429C33.7678 29.1429 32.9597 29.4777 32.2901 30.1473C31.6204 30.817 31.2856 31.625 31.2856 32.5714C31.2856 33.5179 31.6204 34.3259 32.2901 34.9955C32.9597 35.6652 33.7678 36 34.7142 36C35.6606 36 36.4686 35.6652 37.1383 34.9955ZM36.9106 21.9643L34.982 11.6786C34.8928 11.2679 34.6919 10.933 34.3794 10.6741C34.0669 10.4152 33.7053 10.2857 33.2945 10.2857H8.70525C8.29454 10.2857 7.93293 10.4152 7.62043 10.6741C7.30793 10.933 7.10704 11.2679 7.01775 11.6786L5.08918 21.9643C4.9999 22.5 5.1249 22.9732 5.46418 23.3839C5.80347 23.7946 6.24097 24 6.77668 24H35.2231C35.7588 24 36.1963 23.7946 36.5356 23.3839C36.8749 22.9732 36.9999 22.5 36.9106 21.9643ZM30.482 6.48214C30.482 6.48214 30.5445 6.41964 30.6695 6.29464C30.7945 6.16964 30.857 5.92857 30.857 5.57143C30.857 5.21429 30.732 4.91071 30.482 4.66071C30.232 4.41071 29.9285 4.28571 29.5713 4.28571H12.4285C12.0713 4.28571 11.7678 4.41071 11.5178 4.66071C11.2678 4.91071 11.1428 5.21429 11.1428 5.57143C11.1428 5.92857 11.2678 6.23214 11.5178 6.48214C11.7678 6.73214 12.0713 6.85714 12.4285 6.85714H29.5713C29.9285 6.85714 30.232 6.73214 30.482 6.48214ZM41.5713 24.9911V41.1429H38.1428V44.5714C38.1428 45.5179 37.8079 46.3259 37.1383 46.9955C36.4686 47.6652 35.6606 48 34.7142 48C33.7678 48 32.9597 47.6652 32.2901 46.9955C31.6204 46.3259 31.2856 45.5179 31.2856 44.5714V41.1429H10.7142V44.5714C10.7142 45.5179 10.3794 46.3259 9.70972 46.9955C9.04007 47.6652 8.23204 48 7.28561 48C6.33918 48 5.53115 47.6652 4.8615 46.9955C4.19186 46.3259 3.85704 45.5179 3.85704 44.5714V41.1429H0.428467V24.9911C0.428467 22.9911 0.651681 21 1.09811 19.0179L3.85704 6.85714C4.01775 5.46429 4.88829 4.24107 6.46865 3.1875C8.049 2.13393 10.1026 1.33929 12.6294 0.80357C15.1561 0.267857 17.9463 0 20.9999 0C24.0535 0 26.8436 0.267857 29.3704 0.80357C31.8972 1.33929 33.9508 2.13393 35.5311 3.1875C37.1115 4.24107 37.982 5.46429 38.1428 6.85714L40.9553 19.0179C41.366 20.8393 41.5713 22.8304 41.5713 24.9911Z" fill="#25396F"/>
</g>
<defs>
<clipPath id="clip0_1399_3731">
<rect width="41.16" height="48" fill="white" transform="matrix(1 0 0 -1 0.419922 48)"/>
</clipPath>
</defs>
</svg>
