<svg width="23" height="23" viewBox="0 0 23 23" fill="none" xmlns="http://www.w3.org/2000/svg">
<path d="M10.241 4.4441C10.5798 3.40145 12.0549 3.40145 12.3936 4.4441L13.6041 8.16944C13.7556 8.63573 14.1901 8.95143 14.6804 8.95143H18.5974C19.6938 8.95143 20.1496 10.3543 19.2626 10.9987L16.0937 13.3011C15.697 13.5893 15.5311 14.1001 15.6826 14.5664L16.893 18.2917C17.2318 19.3344 16.0384 20.2014 15.1515 19.557L11.9825 17.2546C11.5859 16.9664 11.0488 16.9664 10.6521 17.2546L7.48315 19.557C6.59622 20.2014 5.40286 19.3344 5.74164 18.2917L6.95208 14.5664C7.10358 14.1001 6.93761 13.5893 6.54096 13.3011L3.37199 10.9987C2.48506 10.3543 2.94089 8.95143 4.03719 8.95143H7.95425C8.44454 8.95143 8.87906 8.63573 9.03057 8.16944L10.241 4.4441Z" fill="#F59E0B"/>
</svg>
