<svg width="407" height="51" viewBox="0 0 407 51" fill="none" xmlns="http://www.w3.org/2000/svg">
<g clip-path="url(#clip0_1626_1763)">
<path d="M26.9783 15.1512L29.1186 20.0175L30.1557 22.3762L32.8035 22.5888L38.2536 23.035L34.1054 26.4988L32.0974 28.1775L32.6932 30.685L33.9288 35.8063L29.251 33.0863L26.9783 31.7262L24.7056 33.0438L20.0278 35.7638L21.2634 30.6425L21.8592 28.135L19.8512 26.4562L15.703 22.9925L21.1531 22.5462L23.8009 22.3337L24.838 19.975L26.9783 15.1512ZM26.9783 4.25L20.778 18.3387L4.91309 19.635L16.9607 29.6863L13.342 44.625L26.9783 36.6987L40.6146 44.625L36.9959 29.6863L49.0435 19.635L33.1786 18.3387L26.9783 4.25Z" fill="#A4A4B7"/>
</g>
<g clip-path="url(#clip1_1626_1763)">
<path d="M115.239 15.1512L117.379 20.0175L118.416 22.3762L121.064 22.5888L126.514 23.035L122.366 26.4988L120.358 28.1775L120.954 30.685L122.19 35.8063L117.512 33.0863L115.239 31.7262L112.966 33.0438L108.289 35.7638L109.524 30.6425L110.12 28.135L108.112 26.4562L103.964 22.9925L109.414 22.5462L112.062 22.3337L113.099 19.975L115.239 15.1512ZM115.239 4.25L109.039 18.3387L93.1738 19.635L105.221 29.6863L101.603 44.625L115.239 36.6987L128.875 44.625L125.257 29.6863L137.304 19.635L121.439 18.3387L115.239 4.25Z" fill="#A4A4B7"/>
</g>
<g clip-path="url(#clip2_1626_1763)">
<path d="M203.5 15.1512L205.64 20.0175L206.677 22.3762L209.325 22.5888L214.775 23.035L210.627 26.4988L208.619 28.1775L209.215 30.685L210.45 35.8063L205.772 33.0863L203.5 31.7262L201.227 33.0438L196.549 35.7638L197.785 30.6425L198.381 28.135L196.373 26.4562L192.224 22.9925L197.675 22.5462L200.322 22.3337L201.359 19.975L203.5 15.1512ZM203.5 4.25L197.299 18.3387L181.435 19.635L193.482 29.6863L189.863 44.625L203.5 36.6987L217.136 44.625L213.517 29.6863L225.565 19.635L209.7 18.3387L203.5 4.25Z" fill="#A4A4B7"/>
</g>
<g clip-path="url(#clip3_1626_1763)">
<path d="M291.761 15.1512L293.901 20.0175L294.938 22.3762L297.586 22.5888L303.036 23.035L298.888 26.4988L296.88 28.1775L297.475 30.685L298.711 35.8063L294.033 33.0863L291.761 31.7262L289.488 33.0438L284.81 35.7638L286.046 30.6425L286.641 28.135L284.633 26.4562L280.485 22.9925L285.935 22.5462L288.583 22.3337L289.62 19.975L291.761 15.1512ZM291.761 4.25L285.56 18.3387L269.695 19.635L281.743 29.6863L278.124 44.625L291.761 36.6987L305.397 44.625L301.778 29.6863L313.826 19.635L297.961 18.3387L291.761 4.25Z" fill="#A4A4B7"/>
</g>
<g clip-path="url(#clip4_1626_1763)">
<path d="M380.022 15.1512L382.163 20.0175L383.2 22.3762L385.847 22.5888L391.298 23.035L387.149 26.4988L385.141 28.1775L385.737 30.685L386.973 35.8063L382.295 33.0863L380.022 31.7262L377.75 33.0438L373.072 35.7638L374.307 30.6425L374.903 28.135L372.895 26.4562L368.747 22.9925L374.197 22.5462L376.845 22.3337L377.882 19.975L380.022 15.1512ZM380.022 4.25L373.822 18.3387L357.957 19.635L370.005 29.6863L366.386 44.625L380.022 36.6987L393.659 44.625L390.04 29.6863L402.087 19.635L386.223 18.3387L380.022 4.25Z" fill="#A4A4B7"/>
</g>
<defs>
<clipPath id="clip0_1626_1763">
<rect width="52.9565" height="51" fill="white" transform="translate(0.5)"/>
</clipPath>
<clipPath id="clip1_1626_1763">
<rect width="52.9565" height="51" fill="white" transform="translate(88.7607)"/>
</clipPath>
<clipPath id="clip2_1626_1763">
<rect width="52.9565" height="51" fill="white" transform="translate(177.021)"/>
</clipPath>
<clipPath id="clip3_1626_1763">
<rect width="52.9565" height="51" fill="white" transform="translate(265.282)"/>
</clipPath>
<clipPath id="clip4_1626_1763">
<rect width="52.9565" height="51" fill="white" transform="translate(353.544)"/>
</clipPath>
</defs>
</svg>
