<svg width="28" height="48" viewBox="0 0 28 48" fill="none" xmlns="http://www.w3.org/2000/svg">
<g clip-path="url(#clip0_1399_3693)">
<path d="M18.8481 21.9909C18.8481 21.9909 19.183 21.6561 19.8526 20.9865C20.5223 20.3168 20.8571 19.0356 20.8571 17.1427C20.8571 15.2499 20.1874 13.6338 18.8481 12.2945C17.5089 10.9552 15.8928 10.2856 13.9999 10.2856C12.1071 10.2856 10.491 10.9552 9.15172 12.2945C7.81243 13.6338 7.14279 15.2499 7.14279 17.1427C7.14279 19.0356 7.81243 20.6516 9.15172 21.9909C10.491 23.3302 12.1071 23.9999 13.9999 23.9999C15.8928 23.9999 17.5089 23.3302 18.8481 21.9909ZM27.7142 17.1427C27.7142 19.0891 27.4196 20.6874 26.8303 21.9374L17.0803 42.6695C16.7946 43.2588 16.3705 43.7231 15.808 44.0624C15.2455 44.4016 14.6428 44.5713 13.9999 44.5713C13.3571 44.5713 12.7544 44.4016 12.1919 44.0624C11.6294 43.7231 11.2142 43.2588 10.9464 42.6695L1.16957 21.9374C0.580287 20.6874 0.285645 19.0891 0.285645 17.1427C0.285645 13.357 1.62493 10.1249 4.3035 7.44629C6.98207 4.76772 10.2142 3.42843 13.9999 3.42843C17.7856 3.42843 21.0178 4.76772 23.6964 7.44629C26.3749 10.1249 27.7142 13.357 27.7142 17.1427Z" fill="#25396F"/>
</g>
<defs>
<clipPath id="clip0_1399_3693">
<rect width="27.44" height="48" fill="white" transform="matrix(1 0 0 -1 0.280029 48)"/>
</clipPath>
</defs>
</svg>
