<svg width="618" height="612" viewBox="0 0 618 612" fill="none" xmlns="http://www.w3.org/2000/svg">
<path d="M348 199C348 124.442 408.442 64 483 64C557.558 64 618 124.442 618 199C618 273.558 557.558 334 483 334H348V199Z" fill="#CBD400"/>
<g clip-path="url(#clip0_1738_3138)">
<path d="M462.376 157.428C465.082 154.72 468.713 153.137 472.539 152.995C476.364 152.853 480.102 154.163 483.002 156.662C485.9 154.167 489.633 152.859 493.454 152.998C497.275 153.138 500.902 154.716 503.61 157.416C506.317 160.117 507.904 163.74 508.054 167.561C508.204 171.381 506.905 175.118 504.418 178.022L486.299 196.198C485.467 197.031 484.35 197.518 483.174 197.562C481.997 197.606 480.847 197.204 479.955 196.436L479.698 196.201L461.582 178.022C459.096 175.12 457.797 171.387 457.944 167.569C458.091 163.751 459.674 160.129 462.376 157.428ZM465.675 160.727C463.767 162.636 462.667 165.206 462.604 167.904C462.54 170.602 463.518 173.221 465.334 175.217L465.675 175.576L483 192.901L495.374 180.525L487.125 172.277L484.652 174.75C484.002 175.4 483.23 175.916 482.381 176.268C481.532 176.62 480.622 176.802 479.702 176.802C477.846 176.802 476.065 176.065 474.752 174.753C473.438 173.44 472.701 171.66 472.7 169.803C472.7 167.946 473.437 166.165 474.749 164.852L479.654 159.945C477.702 158.387 475.259 157.576 472.763 157.657C470.267 157.738 467.881 158.705 466.034 160.386L465.675 160.727ZM485.476 167.326C485.913 166.888 486.507 166.642 487.125 166.642C487.744 166.642 488.337 166.888 488.775 167.326L498.673 177.224L500.325 175.576C502.265 173.638 503.37 171.017 503.402 168.274C503.435 165.532 502.393 162.885 500.5 160.901C498.607 158.916 496.012 157.752 493.271 157.655C490.53 157.559 487.86 158.539 485.833 160.386L485.476 160.727L478.051 168.152C477.647 168.556 477.405 169.094 477.371 169.665C477.338 170.236 477.515 170.799 477.869 171.248L478.051 171.451C478.455 171.855 478.994 172.097 479.565 172.131C480.135 172.164 480.699 171.987 481.147 171.633L481.35 171.451L485.476 167.326Z" fill="white"/>
</g>
<path d="M444.148 244H440.368L431.809 231.067V244H428.029V225.127H431.809L440.368 238.087V225.127H444.148V244ZM461.788 236.197C461.788 236.737 461.752 237.223 461.68 237.655H450.745C450.835 238.735 451.213 239.581 451.879 240.193C452.545 240.805 453.364 241.111 454.336 241.111C455.74 241.111 456.739 240.508 457.333 239.302H461.41C460.978 240.742 460.15 241.93 458.926 242.866C457.702 243.784 456.199 244.243 454.417 244.243C452.977 244.243 451.681 243.928 450.529 243.298C449.395 242.65 448.504 241.741 447.856 240.571C447.226 239.401 446.911 238.051 446.911 236.521C446.911 234.973 447.226 233.614 447.856 232.444C448.486 231.274 449.368 230.374 450.502 229.744C451.636 229.114 452.941 228.799 454.417 228.799C455.839 228.799 457.108 229.105 458.224 229.717C459.358 230.329 460.231 231.202 460.843 232.336C461.473 233.452 461.788 234.739 461.788 236.197ZM457.873 235.117C457.855 234.145 457.504 233.371 456.82 232.795C456.136 232.201 455.299 231.904 454.309 231.904C453.373 231.904 452.581 232.192 451.933 232.768C451.303 233.326 450.916 234.109 450.772 235.117H457.873ZM468.948 232.147V239.383C468.948 239.887 469.065 240.256 469.299 240.49C469.551 240.706 469.965 240.814 470.541 240.814H472.296V244H469.92C466.734 244 465.141 242.452 465.141 239.356V232.147H463.359V229.042H465.141V225.343H468.948V229.042H472.296V232.147H468.948ZM495.751 229.042L491.377 244H487.3L484.573 233.551L481.846 244H477.742L473.341 229.042H477.175L479.821 240.436L482.683 229.042H486.679L489.487 240.409L492.133 229.042H495.751ZM504.438 244.243C502.998 244.243 501.702 243.928 500.55 243.298C499.398 242.65 498.489 241.741 497.823 240.571C497.175 239.401 496.851 238.051 496.851 236.521C496.851 234.991 497.184 233.641 497.85 232.471C498.534 231.301 499.461 230.401 500.631 229.771C501.801 229.123 503.106 228.799 504.546 228.799C505.986 228.799 507.291 229.123 508.461 229.771C509.631 230.401 510.549 231.301 511.215 232.471C511.899 233.641 512.241 234.991 512.241 236.521C512.241 238.051 511.89 239.401 511.188 240.571C510.504 241.741 509.568 242.65 508.38 243.298C507.21 243.928 505.896 244.243 504.438 244.243ZM504.438 240.949C505.122 240.949 505.761 240.787 506.355 240.463C506.967 240.121 507.453 239.617 507.813 238.951C508.173 238.285 508.353 237.475 508.353 236.521C508.353 235.099 507.975 234.01 507.219 233.254C506.481 232.48 505.572 232.093 504.492 232.093C503.412 232.093 502.503 232.48 501.765 233.254C501.045 234.01 500.685 235.099 500.685 236.521C500.685 237.943 501.036 239.041 501.738 239.815C502.458 240.571 503.358 240.949 504.438 240.949ZM518.794 231.364C519.28 230.572 519.91 229.951 520.684 229.501C521.476 229.051 522.376 228.826 523.384 228.826V232.795H522.385C521.197 232.795 520.297 233.074 519.685 233.632C519.091 234.19 518.794 235.162 518.794 236.548V244H515.014V229.042H518.794V231.364ZM534.786 244L529.71 237.628V244H525.93V224.02H529.71V235.387L534.732 229.042H539.646L533.058 236.548L539.7 244H534.786Z" fill="white"/>
<path d="M70 477C70 402.442 130.442 342 205 342H340V477C340 551.558 279.558 612 205 612C130.442 612 70 551.558 70 477Z" fill="#CBD400"/>
<g clip-path="url(#clip1_1738_3138)">
<path d="M205 444.834L209.937 456.706L222.752 457.732L212.989 466.095L215.971 478.602L205 471.9L194.029 478.602L197.011 466.095L187.248 457.732L200.063 456.706L205 444.834ZM205 456.983L203.276 461.13L198.805 461.487L202.212 464.406L201.169 468.771L205 466.431L208.829 468.771L207.788 464.408L211.193 461.487L206.724 461.13L205 456.983ZM195.667 429.667V450.667H191V429.667H195.667ZM219 429.667V450.667H214.333V429.667H219ZM207.333 429.667V441.334H202.667V429.667H207.333Z" fill="white"/>
</g>
<path d="M157.099 522L152.941 514.656H151.159V522H147.379V503.154H154.453C155.911 503.154 157.153 503.415 158.179 503.937C159.205 504.441 159.97 505.134 160.474 506.016C160.996 506.88 161.257 507.852 161.257 508.932C161.257 510.174 160.897 511.299 160.177 512.307C159.457 513.297 158.386 513.981 156.964 514.359L161.473 522H157.099ZM151.159 511.821H154.318C155.344 511.821 156.109 511.578 156.613 511.092C157.117 510.588 157.369 509.895 157.369 509.013C157.369 508.149 157.117 507.483 156.613 507.015C156.109 506.529 155.344 506.286 154.318 506.286H151.159V511.821ZM178.581 514.197C178.581 514.737 178.545 515.223 178.473 515.655H167.538C167.628 516.735 168.006 517.581 168.672 518.193C169.338 518.805 170.157 519.111 171.129 519.111C172.533 519.111 173.532 518.508 174.126 517.302H178.203C177.771 518.742 176.943 519.93 175.719 520.866C174.495 521.784 172.992 522.243 171.21 522.243C169.77 522.243 168.474 521.928 167.322 521.298C166.188 520.65 165.297 519.741 164.649 518.571C164.019 517.401 163.703 516.051 163.703 514.521C163.703 512.973 164.019 511.614 164.649 510.444C165.279 509.274 166.161 508.374 167.295 507.744C168.429 507.114 169.734 506.799 171.21 506.799C172.632 506.799 173.901 507.105 175.017 507.717C176.151 508.329 177.024 509.202 177.636 510.336C178.266 511.452 178.581 512.739 178.581 514.197ZM174.666 513.117C174.648 512.145 174.297 511.371 173.613 510.795C172.929 510.201 172.092 509.904 171.102 509.904C170.166 509.904 169.374 510.192 168.726 510.768C168.096 511.326 167.709 512.109 167.565 513.117H174.666ZM202.076 507.042L197.702 522H193.625L190.898 511.551L188.171 522H184.067L179.666 507.042H183.5L186.146 518.436L189.008 507.042H193.004L195.812 518.409L198.458 507.042H202.076ZM203.149 514.467C203.149 512.955 203.446 511.614 204.04 510.444C204.652 509.274 205.471 508.374 206.497 507.744C207.541 507.114 208.702 506.799 209.98 506.799C211.096 506.799 212.068 507.024 212.896 507.474C213.742 507.924 214.417 508.491 214.921 509.175V507.042H218.728V522H214.921V519.813C214.435 520.515 213.76 521.1 212.896 521.568C212.05 522.018 211.069 522.243 209.953 522.243C208.693 522.243 207.541 521.919 206.497 521.271C205.471 520.623 204.652 519.714 204.04 518.544C203.446 517.356 203.149 515.997 203.149 514.467ZM214.921 514.521C214.921 513.603 214.741 512.82 214.381 512.172C214.021 511.506 213.535 511.002 212.923 510.66C212.311 510.3 211.654 510.12 210.952 510.12C210.25 510.12 209.602 510.291 209.008 510.633C208.414 510.975 207.928 511.479 207.55 512.145C207.19 512.793 207.01 513.567 207.01 514.467C207.01 515.367 207.19 516.159 207.55 516.843C207.928 517.509 208.414 518.022 209.008 518.382C209.62 518.742 210.268 518.922 210.952 518.922C211.654 518.922 212.311 518.751 212.923 518.409C213.535 518.049 214.021 517.545 214.381 516.897C214.741 516.231 214.921 515.439 214.921 514.521ZM226.2 509.364C226.686 508.572 227.316 507.951 228.09 507.501C228.882 507.051 229.782 506.826 230.79 506.826V510.795H229.791C228.603 510.795 227.703 511.074 227.091 511.632C226.497 512.19 226.2 513.162 226.2 514.548V522H222.42V507.042H226.2V509.364ZM232.364 514.467C232.364 512.955 232.661 511.614 233.255 510.444C233.867 509.274 234.695 508.374 235.739 507.744C236.783 507.114 237.944 506.799 239.222 506.799C240.194 506.799 241.121 507.015 242.003 507.447C242.885 507.861 243.587 508.419 244.109 509.121V502.02H247.943V522H244.109V519.786C243.641 520.524 242.984 521.118 242.138 521.568C241.292 522.018 240.311 522.243 239.195 522.243C237.935 522.243 236.783 521.919 235.739 521.271C234.695 520.623 233.867 519.714 233.255 518.544C232.661 517.356 232.364 515.997 232.364 514.467ZM244.136 514.521C244.136 513.603 243.956 512.82 243.596 512.172C243.236 511.506 242.75 511.002 242.138 510.66C241.526 510.3 240.869 510.12 240.167 510.12C239.465 510.12 238.817 510.291 238.223 510.633C237.629 510.975 237.143 511.479 236.765 512.145C236.405 512.793 236.225 513.567 236.225 514.467C236.225 515.367 236.405 516.159 236.765 516.843C237.143 517.509 237.629 518.022 238.223 518.382C238.835 518.742 239.483 518.922 240.167 518.922C240.869 518.922 241.526 518.751 242.138 518.409C242.75 518.049 243.236 517.545 243.596 516.897C243.956 516.231 244.136 515.439 244.136 514.521ZM257.358 522.243C256.134 522.243 255.036 522.027 254.064 521.595C253.092 521.145 252.318 520.542 251.742 519.786C251.184 519.03 250.878 518.193 250.824 517.275H254.631C254.703 517.851 254.982 518.328 255.468 518.706C255.972 519.084 256.593 519.273 257.331 519.273C258.051 519.273 258.609 519.129 259.005 518.841C259.419 518.553 259.626 518.184 259.626 517.734C259.626 517.248 259.374 516.888 258.87 516.654C258.384 516.402 257.601 516.132 256.521 515.844C255.405 515.574 254.487 515.295 253.767 515.007C253.065 514.719 252.453 514.278 251.931 513.684C251.427 513.09 251.175 512.289 251.175 511.281C251.175 510.453 251.409 509.697 251.877 509.013C252.363 508.329 253.047 507.789 253.929 507.393C254.829 506.997 255.882 506.799 257.088 506.799C258.87 506.799 260.292 507.249 261.354 508.149C262.416 509.031 263.001 510.228 263.109 511.74H259.491C259.437 511.146 259.185 510.678 258.735 510.336C258.303 509.976 257.718 509.796 256.98 509.796C256.296 509.796 255.765 509.922 255.387 510.174C255.027 510.426 254.847 510.777 254.847 511.227C254.847 511.731 255.099 512.118 255.603 512.388C256.107 512.64 256.89 512.901 257.952 513.171C259.032 513.441 259.923 513.72 260.625 514.008C261.327 514.296 261.93 514.746 262.434 515.358C262.956 515.952 263.226 516.744 263.244 517.734C263.244 518.598 263.001 519.372 262.515 520.056C262.047 520.74 261.363 521.28 260.463 521.676C259.581 522.054 258.546 522.243 257.358 522.243Z" fill="white"/>
<path d="M348 342H483C557.558 342 618 402.442 618 477C618 551.558 557.558 612 483 612C408.442 612 348 551.558 348 477V342Z" fill="#CBD400"/>
<g clip-path="url(#clip2_1738_3138)">
<path d="M467.437 432.632C468.993 432.077 470.681 432.007 472.278 432.431C473.876 432.855 475.306 433.754 476.382 435.009C477.457 436.264 478.127 437.815 478.302 439.458C478.477 441.102 478.15 442.759 477.363 444.213L502.35 469.203L499.051 472.502L474.061 447.512C472.607 448.296 470.951 448.621 469.309 448.444C467.667 448.267 466.117 447.598 464.863 446.523C463.61 445.448 462.711 444.018 462.287 442.422C461.862 440.827 461.93 439.14 462.483 437.584L467.703 442.803C468.026 443.138 468.412 443.404 468.839 443.588C469.266 443.771 469.725 443.868 470.19 443.872C470.654 443.876 471.115 443.787 471.545 443.611C471.976 443.435 472.366 443.175 472.695 442.847C473.024 442.518 473.284 442.127 473.46 441.697C473.636 441.267 473.724 440.806 473.72 440.341C473.716 439.877 473.619 439.417 473.436 438.99C473.253 438.563 472.986 438.177 472.652 437.854L467.434 432.63L467.437 432.632ZM491.626 437.028L499.051 432.903L502.35 436.202L498.225 443.627L494.1 444.453L489.153 449.402L485.851 446.103L490.8 441.154L491.626 437.028ZM475.951 456.003L479.25 459.302L466.877 471.676C466.456 472.098 465.89 472.343 465.294 472.361C464.699 472.378 464.119 472.168 463.674 471.772C463.229 471.376 462.952 470.825 462.9 470.231C462.848 469.637 463.025 469.047 463.395 468.58L463.577 468.377L475.951 456.003Z" fill="white"/>
</g>
<path d="M456.631 522.189C455.317 522.189 454.129 521.964 453.067 521.514C452.023 521.064 451.195 520.416 450.583 519.57C449.971 518.724 449.656 517.725 449.638 516.573H453.688C453.742 517.347 454.012 517.959 454.498 518.409C455.002 518.859 455.686 519.084 456.55 519.084C457.432 519.084 458.125 518.877 458.629 518.463C459.133 518.031 459.385 517.473 459.385 516.789C459.385 516.231 459.214 515.772 458.872 515.412C458.53 515.052 458.098 514.773 457.576 514.575C457.072 514.359 456.37 514.125 455.47 513.873C454.246 513.513 453.247 513.162 452.473 512.82C451.717 512.46 451.06 511.929 450.502 511.227C449.962 510.507 449.692 509.553 449.692 508.365C449.692 507.249 449.971 506.277 450.529 505.449C451.087 504.621 451.87 503.991 452.878 503.559C453.886 503.109 455.038 502.884 456.334 502.884C458.278 502.884 459.853 503.361 461.059 504.315C462.283 505.251 462.958 506.565 463.084 508.257H458.926C458.89 507.609 458.611 507.078 458.089 506.664C457.585 506.232 456.91 506.016 456.064 506.016C455.326 506.016 454.732 506.205 454.282 506.583C453.85 506.961 453.634 507.51 453.634 508.23C453.634 508.734 453.796 509.157 454.12 509.499C454.462 509.823 454.876 510.093 455.362 510.309C455.866 510.507 456.568 510.741 457.468 511.011C458.692 511.371 459.691 511.731 460.465 512.091C461.239 512.451 461.905 512.991 462.463 513.711C463.021 514.431 463.3 515.376 463.3 516.546C463.3 517.554 463.039 518.49 462.517 519.354C461.995 520.218 461.23 520.911 460.222 521.433C459.214 521.937 458.017 522.189 456.631 522.189ZM475.433 522L470.357 515.628V522H466.577V502.02H470.357V513.387L475.379 507.042H480.293L473.705 514.548L480.347 522H475.433ZM484.262 505.26C483.596 505.26 483.038 505.053 482.588 504.639C482.156 504.207 481.94 503.676 481.94 503.046C481.94 502.416 482.156 501.894 482.588 501.48C483.038 501.048 483.596 500.832 484.262 500.832C484.928 500.832 485.477 501.048 485.909 501.48C486.359 501.894 486.584 502.416 486.584 503.046C486.584 503.676 486.359 504.207 485.909 504.639C485.477 505.053 484.928 505.26 484.262 505.26ZM486.125 507.042V522H482.345V507.042H486.125ZM493.64 502.02V522H489.86V502.02H493.64ZM501.154 502.02V522H497.374V502.02H501.154ZM510.613 522.243C509.389 522.243 508.291 522.027 507.319 521.595C506.347 521.145 505.573 520.542 504.997 519.786C504.439 519.03 504.133 518.193 504.079 517.275H507.886C507.958 517.851 508.237 518.328 508.723 518.706C509.227 519.084 509.848 519.273 510.586 519.273C511.306 519.273 511.864 519.129 512.26 518.841C512.674 518.553 512.881 518.184 512.881 517.734C512.881 517.248 512.629 516.888 512.125 516.654C511.639 516.402 510.856 516.132 509.776 515.844C508.66 515.574 507.742 515.295 507.022 515.007C506.32 514.719 505.708 514.278 505.186 513.684C504.682 513.09 504.43 512.289 504.43 511.281C504.43 510.453 504.664 509.697 505.132 509.013C505.618 508.329 506.302 507.789 507.184 507.393C508.084 506.997 509.137 506.799 510.343 506.799C512.125 506.799 513.547 507.249 514.609 508.149C515.671 509.031 516.256 510.228 516.364 511.74H512.746C512.692 511.146 512.44 510.678 511.99 510.336C511.558 509.976 510.973 509.796 510.235 509.796C509.551 509.796 509.02 509.922 508.642 510.174C508.282 510.426 508.102 510.777 508.102 511.227C508.102 511.731 508.354 512.118 508.858 512.388C509.362 512.64 510.145 512.901 511.207 513.171C512.287 513.441 513.178 513.72 513.88 514.008C514.582 514.296 515.185 514.746 515.689 515.358C516.211 515.952 516.481 516.744 516.499 517.734C516.499 518.598 516.256 519.372 515.77 520.056C515.302 520.74 514.618 521.28 513.718 521.676C512.836 522.054 511.801 522.243 510.613 522.243Z" fill="white"/>
<g filter="url(#filter0_d_1738_3138)">
<path d="M20 174C20 85.6344 91.6344 14 180 14C268.366 14 340 85.6345 340 174V334H180C91.6345 334 20 262.366 20 174Z" fill="#CBD400"/>
<g clip-path="url(#clip3_1738_3138)">
<path d="M166.47 170C165.48 165.757 161.013 162.287 159.18 160C156.041 156.078 154.073 151.348 153.504 146.356C152.935 141.365 153.788 136.314 155.964 131.786C158.14 127.258 161.551 123.436 165.805 120.762C170.058 118.088 174.98 116.669 180.004 116.67C185.028 116.671 189.949 118.091 194.201 120.766C198.454 123.442 201.863 127.265 204.038 131.793C206.213 136.322 207.064 141.373 206.493 146.365C205.923 151.356 203.954 156.085 200.813 160.007C198.98 162.29 194.52 165.76 193.53 170H166.467H166.47ZM193.333 176.667V180C193.333 181.768 192.631 183.464 191.381 184.714C190.13 185.964 188.435 186.667 186.667 186.667H173.333C171.565 186.667 169.87 185.964 168.619 184.714C167.369 183.464 166.667 181.768 166.667 180V176.667H193.333ZM183.333 143.35V130L168.333 150.017H176.667V163.35L191.667 143.35H183.333Z" fill="white"/>
</g>
<path d="M111.564 212.154V231H107.784V212.154H111.564ZM123.588 215.826C125.37 215.826 126.81 216.393 127.908 217.527C129.006 218.643 129.555 220.209 129.555 222.225V231H125.775V222.738C125.775 221.55 125.478 220.641 124.884 220.011C124.29 219.363 123.48 219.039 122.454 219.039C121.41 219.039 120.582 219.363 119.97 220.011C119.376 220.641 119.079 221.55 119.079 222.738V231H115.299V216.042H119.079V217.905C119.583 217.257 120.222 216.753 120.996 216.393C121.788 216.015 122.652 215.826 123.588 215.826ZM138.874 231.243C137.65 231.243 136.552 231.027 135.58 230.595C134.608 230.145 133.834 229.542 133.258 228.786C132.7 228.03 132.394 227.193 132.34 226.275H136.147C136.219 226.851 136.498 227.328 136.984 227.706C137.488 228.084 138.109 228.273 138.847 228.273C139.567 228.273 140.125 228.129 140.521 227.841C140.935 227.553 141.142 227.184 141.142 226.734C141.142 226.248 140.89 225.888 140.386 225.654C139.9 225.402 139.117 225.132 138.037 224.844C136.921 224.574 136.003 224.295 135.283 224.007C134.581 223.719 133.969 223.278 133.447 222.684C132.943 222.09 132.691 221.289 132.691 220.281C132.691 219.453 132.925 218.697 133.393 218.013C133.879 217.329 134.563 216.789 135.445 216.393C136.345 215.997 137.398 215.799 138.604 215.799C140.386 215.799 141.808 216.249 142.87 217.149C143.932 218.031 144.517 219.228 144.625 220.74H141.007C140.953 220.146 140.701 219.678 140.251 219.336C139.819 218.976 139.234 218.796 138.496 218.796C137.812 218.796 137.281 218.922 136.903 219.174C136.543 219.426 136.363 219.777 136.363 220.227C136.363 220.731 136.615 221.118 137.119 221.388C137.623 221.64 138.406 221.901 139.468 222.171C140.548 222.441 141.439 222.72 142.141 223.008C142.843 223.296 143.446 223.746 143.95 224.358C144.472 224.952 144.742 225.744 144.76 226.734C144.76 227.598 144.517 228.372 144.031 229.056C143.563 229.74 142.879 230.28 141.979 230.676C141.097 231.054 140.062 231.243 138.874 231.243ZM151.643 218.202C152.129 217.518 152.795 216.951 153.641 216.501C154.505 216.033 155.486 215.799 156.584 215.799C157.862 215.799 159.014 216.114 160.04 216.744C161.084 217.374 161.903 218.274 162.497 219.444C163.109 220.596 163.415 221.937 163.415 223.467C163.415 224.997 163.109 226.356 162.497 227.544C161.903 228.714 161.084 229.623 160.04 230.271C159.014 230.919 157.862 231.243 156.584 231.243C155.486 231.243 154.514 231.018 153.668 230.568C152.84 230.118 152.165 229.551 151.643 228.867V238.128H147.863V216.042H151.643V218.202ZM159.554 223.467C159.554 222.567 159.365 221.793 158.987 221.145C158.627 220.479 158.141 219.975 157.529 219.633C156.935 219.291 156.287 219.12 155.585 219.12C154.901 219.12 154.253 219.3 153.641 219.66C153.047 220.002 152.561 220.506 152.183 221.172C151.823 221.838 151.643 222.621 151.643 223.521C151.643 224.421 151.823 225.204 152.183 225.87C152.561 226.536 153.047 227.049 153.641 227.409C154.253 227.751 154.901 227.922 155.585 227.922C156.287 227.922 156.935 227.742 157.529 227.382C158.141 227.022 158.627 226.509 158.987 225.843C159.365 225.177 159.554 224.385 159.554 223.467ZM168.078 214.26C167.412 214.26 166.854 214.053 166.404 213.639C165.972 213.207 165.756 212.676 165.756 212.046C165.756 211.416 165.972 210.894 166.404 210.48C166.854 210.048 167.412 209.832 168.078 209.832C168.744 209.832 169.293 210.048 169.725 210.48C170.175 210.894 170.4 211.416 170.4 212.046C170.4 212.676 170.175 213.207 169.725 213.639C169.293 214.053 168.744 214.26 168.078 214.26ZM169.941 216.042V231H166.161V216.042H169.941ZM177.456 218.364C177.942 217.572 178.572 216.951 179.346 216.501C180.138 216.051 181.038 215.826 182.046 215.826V219.795H181.047C179.859 219.795 178.959 220.074 178.347 220.632C177.753 221.19 177.456 222.162 177.456 223.548V231H173.676V216.042H177.456V218.364ZM183.62 223.467C183.62 221.955 183.917 220.614 184.511 219.444C185.123 218.274 185.942 217.374 186.968 216.744C188.012 216.114 189.173 215.799 190.451 215.799C191.567 215.799 192.539 216.024 193.367 216.474C194.213 216.924 194.888 217.491 195.392 218.175V216.042H199.199V231H195.392V228.813C194.906 229.515 194.231 230.1 193.367 230.568C192.521 231.018 191.54 231.243 190.424 231.243C189.164 231.243 188.012 230.919 186.968 230.271C185.942 229.623 185.123 228.714 184.511 227.544C183.917 226.356 183.62 224.997 183.62 223.467ZM195.392 223.521C195.392 222.603 195.212 221.82 194.852 221.172C194.492 220.506 194.006 220.002 193.394 219.66C192.782 219.3 192.125 219.12 191.423 219.12C190.721 219.12 190.073 219.291 189.479 219.633C188.885 219.975 188.399 220.479 188.021 221.145C187.661 221.793 187.481 222.567 187.481 223.467C187.481 224.367 187.661 225.159 188.021 225.843C188.399 226.509 188.885 227.022 189.479 227.382C190.091 227.742 190.739 227.922 191.423 227.922C192.125 227.922 192.782 227.751 193.394 227.409C194.006 227.049 194.492 226.545 194.852 225.897C195.212 225.231 195.392 224.439 195.392 223.521ZM207.292 219.147V226.383C207.292 226.887 207.409 227.256 207.643 227.49C207.895 227.706 208.309 227.814 208.885 227.814H210.64V231H208.264C205.078 231 203.485 229.452 203.485 226.356V219.147H201.703V216.042H203.485V212.343H207.292V216.042H210.64V219.147H207.292ZM215.276 214.26C214.61 214.26 214.052 214.053 213.602 213.639C213.17 213.207 212.954 212.676 212.954 212.046C212.954 211.416 213.17 210.894 213.602 210.48C214.052 210.048 214.61 209.832 215.276 209.832C215.942 209.832 216.491 210.048 216.923 210.48C217.373 210.894 217.598 211.416 217.598 212.046C217.598 212.676 217.373 213.207 216.923 213.639C216.491 214.053 215.942 214.26 215.276 214.26ZM217.139 216.042V231H213.359V216.042H217.139ZM227.515 231.243C226.075 231.243 224.779 230.928 223.627 230.298C222.475 229.65 221.566 228.741 220.9 227.571C220.252 226.401 219.928 225.051 219.928 223.521C219.928 221.991 220.261 220.641 220.927 219.471C221.611 218.301 222.538 217.401 223.708 216.771C224.878 216.123 226.183 215.799 227.623 215.799C229.063 215.799 230.368 216.123 231.538 216.771C232.708 217.401 233.626 218.301 234.292 219.471C234.976 220.641 235.318 221.991 235.318 223.521C235.318 225.051 234.967 226.401 234.265 227.571C233.581 228.741 232.645 229.65 231.457 230.298C230.287 230.928 228.973 231.243 227.515 231.243ZM227.515 227.949C228.199 227.949 228.838 227.787 229.432 227.463C230.044 227.121 230.53 226.617 230.89 225.951C231.25 225.285 231.43 224.475 231.43 223.521C231.43 222.099 231.052 221.01 230.296 220.254C229.558 219.48 228.649 219.093 227.569 219.093C226.489 219.093 225.58 219.48 224.842 220.254C224.122 221.01 223.762 222.099 223.762 223.521C223.762 224.943 224.113 226.041 224.815 226.815C225.535 227.571 226.435 227.949 227.515 227.949ZM246.38 215.826C248.162 215.826 249.602 216.393 250.7 217.527C251.798 218.643 252.347 220.209 252.347 222.225V231H248.567V222.738C248.567 221.55 248.27 220.641 247.676 220.011C247.082 219.363 246.272 219.039 245.246 219.039C244.202 219.039 243.374 219.363 242.762 220.011C242.168 220.641 241.871 221.55 241.871 222.738V231H238.091V216.042H241.871V217.905C242.375 217.257 243.014 216.753 243.788 216.393C244.58 216.015 245.444 215.826 246.38 215.826Z" fill="white"/>
</g>
<defs>
<filter id="filter0_d_1738_3138" x="0" y="0" width="360" height="360" filterUnits="userSpaceOnUse" color-interpolation-filters="sRGB">
<feFlood flood-opacity="0" result="BackgroundImageFix"/>
<feColorMatrix in="SourceAlpha" type="matrix" values="0 0 0 0 0 0 0 0 0 0 0 0 0 0 0 0 0 0 127 0" result="hardAlpha"/>
<feOffset dy="6"/>
<feGaussianBlur stdDeviation="10"/>
<feColorMatrix type="matrix" values="0 0 0 0 0.796078 0 0 0 0 0.831373 0 0 0 0 0 0 0 0 0.78 0"/>
<feBlend mode="normal" in2="BackgroundImageFix" result="effect1_dropShadow_1738_3138"/>
<feBlend mode="normal" in="SourceGraphic" in2="effect1_dropShadow_1738_3138" result="shape"/>
</filter>
<clipPath id="clip0_1738_3138">
<rect width="56" height="56" fill="white" transform="translate(455 147)"/>
</clipPath>
<clipPath id="clip1_1738_3138">
<rect width="56" height="56" fill="white" transform="translate(177 425)"/>
</clipPath>
<clipPath id="clip2_1738_3138">
<rect width="56" height="56" fill="white" transform="translate(455 425)"/>
</clipPath>
<clipPath id="clip3_1738_3138">
<rect width="80" height="80" fill="white" transform="translate(140 110)"/>
</clipPath>
</defs>
</svg>
