<svg width="300" height="40" viewBox="0 0 300 40" fill="none" xmlns="http://www.w3.org/2000/svg">
<g clip-path="url(#clip0_2000_4558)">
<path d="M19.5651 11.625L21.1466 15.3587L21.9129 17.1685L23.8694 17.3315L27.8966 17.6739L24.8314 20.3315L23.3477 21.6196L23.7879 23.5435L24.701 27.4728L21.2444 25.3859L19.5651 24.3424L17.8857 25.3533L14.4292 27.4402L15.3423 23.5109L15.7825 21.5869L14.2988 20.2989L11.2336 17.6413L15.2607 17.2989L17.2173 17.1359L17.9836 15.3261L19.5651 11.625ZM19.5651 3.26086L14.9836 14.0706L3.26074 15.0652L12.1629 22.7772L9.489 34.2391L19.5651 28.1576L29.6412 34.2391L26.9673 22.7772L35.8694 15.0652L24.1466 14.0706L19.5651 3.26086Z" fill="#A4A4B7"/>
</g>
<g clip-path="url(#clip1_2000_4558)">
<path d="M84.7829 11.625L86.3644 15.3587L87.1307 17.1685L89.0872 17.3315L93.1144 17.6739L90.0492 20.3315L88.5655 21.6196L89.0057 23.5435L89.9187 27.4728L86.4622 25.3859L84.7829 24.3424L83.1035 25.3533L79.647 27.4402L80.56 23.5109L81.0003 21.5869L79.5166 20.2989L76.4513 17.6413L80.4785 17.2989L82.435 17.1359L83.2013 15.3261L84.7829 11.625ZM84.7829 3.26086L80.2013 14.0706L68.4785 15.0652L77.3807 22.7772L74.7068 34.2391L84.7829 28.1576L94.8589 34.2391L92.185 22.7772L101.087 15.0652L89.3644 14.0706L84.7829 3.26086Z" fill="#A4A4B7"/>
</g>
<g clip-path="url(#clip2_2000_4558)">
<path d="M150 11.625L151.581 15.3587L152.347 17.1685L154.304 17.3315L158.331 17.6739L155.266 20.3315L153.782 21.6196L154.222 23.5435L155.136 27.4728L151.679 25.3859L150 24.3424L148.32 25.3533L144.864 27.4402L145.777 23.5109L146.217 21.5869L144.733 20.2989L141.668 17.6413L145.695 17.2989L147.652 17.1359L148.418 15.3261L150 11.625ZM150 3.26086L145.418 14.0706L133.695 15.0652L142.597 22.7772L139.924 34.2391L150 28.1576L160.076 34.2391L157.402 22.7772L166.304 15.0652L154.581 14.0706L150 3.26086Z" fill="#A4A4B7"/>
</g>
<g clip-path="url(#clip3_2000_4558)">
<path d="M215.217 11.625L216.799 15.3587L217.565 17.1685L219.522 17.3315L223.549 17.6739L220.484 20.3315L219 21.6196L219.44 23.5435L220.353 27.4728L216.897 25.3859L215.217 24.3424L213.538 25.3533L210.082 27.4402L210.995 23.5109L211.435 21.5869L209.951 20.2989L206.886 17.6413L210.913 17.2989L212.87 17.1359L213.636 15.3261L215.217 11.625ZM215.217 3.26086L210.636 14.0706L198.913 15.0652L207.815 22.7772L205.141 34.2391L215.217 28.1576L225.294 34.2391L222.62 22.7772L231.522 15.0652L219.799 14.0706L215.217 3.26086Z" fill="#A4A4B7"/>
</g>
<g clip-path="url(#clip4_2000_4558)">
<path d="M280.434 11.625L282.016 15.3587L282.782 17.1685L284.739 17.3315L288.766 17.6739L285.701 20.3315L284.217 21.6196L284.657 23.5435L285.57 27.4728L282.114 25.3859L280.434 24.3424L278.755 25.3533L275.298 27.4402L276.211 23.5109L276.652 21.5869L275.168 20.2989L272.103 17.6413L276.13 17.2989L278.086 17.1359L278.853 15.3261L280.434 11.625ZM280.434 3.26086L275.853 14.0706L264.13 15.0652L273.032 22.7772L270.358 34.2391L280.434 28.1576L290.51 34.2391L287.836 22.7772L296.739 15.0652L285.016 14.0706L280.434 3.26086Z" fill="#A4A4B7"/>
</g>
<defs>
<clipPath id="clip0_2000_4558">
<rect width="39.1304" height="39.1304" fill="white"/>
</clipPath>
<clipPath id="clip1_2000_4558">
<rect width="39.1304" height="39.1304" fill="white" transform="translate(65.2178)"/>
</clipPath>
<clipPath id="clip2_2000_4558">
<rect width="39.1304" height="39.1304" fill="white" transform="translate(130.435)"/>
</clipPath>
<clipPath id="clip3_2000_4558">
<rect width="39.1304" height="39.1304" fill="white" transform="translate(195.652)"/>
</clipPath>
<clipPath id="clip4_2000_4558">
<rect width="39.1304" height="39.1304" fill="white" transform="translate(260.869)"/>
</clipPath>
</defs>
</svg>
