<svg width="42" height="48" viewBox="0 0 42 48" fill="none" xmlns="http://www.w3.org/2000/svg">
<g clip-path="url(#clip0_1399_3740)">
<path d="M36.4285 0C36.8928 0 37.2945 0.169643 37.6338 0.508926C37.9731 0.848213 38.1428 1.25 38.1428 1.71429V46.2857C38.1428 46.75 37.9731 47.1518 37.6338 47.4911C37.2945 47.8304 36.8928 48 36.4285 48H2.14275C1.67847 48 1.27668 47.8304 0.937395 47.4911C0.59811 47.1518 0.428467 46.75 0.428467 46.2857V1.71429C0.428467 1.25 0.59811 0.848213 0.937395 0.508926C1.27668 0.169643 1.67847 0 2.14275 0H36.4285ZM14.1428 7.71429V9.42857C14.1428 9.67857 14.2231 9.88393 14.3838 10.0446C14.5445 10.2054 14.7499 10.2857 14.9999 10.2857H16.7142C16.9642 10.2857 17.1695 10.2054 17.3303 10.0446C17.491 9.88393 17.5713 9.67857 17.5713 9.42857V7.71429C17.5713 7.46429 17.491 7.25893 17.3303 7.09821C17.1695 6.9375 16.9642 6.85714 16.7142 6.85714H14.9999C14.7499 6.85714 14.5445 6.9375 14.3838 7.09821C14.2231 7.25893 14.1428 7.46429 14.1428 7.71429ZM14.1428 14.5714V16.2857C14.1428 16.5357 14.2231 16.7411 14.3838 16.9018C14.5445 17.0625 14.7499 17.1429 14.9999 17.1429H16.7142C16.9642 17.1429 17.1695 17.0625 17.3303 16.9018C17.491 16.7411 17.5713 16.5357 17.5713 16.2857V14.5714C17.5713 14.3214 17.491 14.1161 17.3303 13.9554C17.1695 13.7946 16.9642 13.7143 16.7142 13.7143H14.9999C14.7499 13.7143 14.5445 13.7946 14.3838 13.9554C14.2231 14.1161 14.1428 14.3214 14.1428 14.5714ZM14.1428 21.4286V23.1429C14.1428 23.3929 14.2231 23.5982 14.3838 23.7589C14.5445 23.9196 14.7499 24 14.9999 24H16.7142C16.9642 24 17.1695 23.9196 17.3303 23.7589C17.491 23.5982 17.5713 23.3929 17.5713 23.1429V21.4286C17.5713 21.1786 17.491 20.9732 17.3303 20.8125C17.1695 20.6518 16.9642 20.5714 16.7142 20.5714H14.9999C14.7499 20.5714 14.5445 20.6518 14.3838 20.8125C14.2231 20.9732 14.1428 21.1786 14.1428 21.4286ZM14.1428 28.2857V30C14.1428 30.25 14.2231 30.4554 14.3838 30.6161C14.5445 30.7768 14.7499 30.8571 14.9999 30.8571H16.7142C16.9642 30.8571 17.1695 30.7768 17.3303 30.6161C17.491 30.4554 17.5713 30.25 17.5713 30V28.2857C17.5713 28.0357 17.491 27.8304 17.3303 27.6696C17.1695 27.5089 16.9642 27.4286 16.7142 27.4286H14.9999C14.7499 27.4286 14.5445 27.5089 14.3838 27.6696C14.2231 27.8304 14.1428 28.0357 14.1428 28.2857ZM10.7142 36.8571V35.1429C10.7142 34.8929 10.6338 34.6875 10.4731 34.5268C10.3124 34.3661 10.107 34.2857 9.85704 34.2857H8.14275C7.89275 34.2857 7.6874 34.3661 7.52668 34.5268C7.36597 34.6875 7.28561 34.8929 7.28561 35.1429V36.8571C7.28561 37.1071 7.36597 37.3125 7.52668 37.4732C7.6874 37.6339 7.89275 37.7143 8.14275 37.7143H9.85704C10.107 37.7143 10.3124 37.6339 10.4731 37.4732C10.6338 37.3125 10.7142 37.1071 10.7142 36.8571ZM10.7142 30V28.2857C10.7142 28.0357 10.6338 27.8304 10.4731 27.6696C10.3124 27.5089 10.107 27.4286 9.85704 27.4286H8.14275C7.89275 27.4286 7.6874 27.5089 7.52668 27.6696C7.36597 27.8304 7.28561 28.0357 7.28561 28.2857V30C7.28561 30.25 7.36597 30.4554 7.52668 30.6161C7.6874 30.7768 7.89275 30.8571 8.14275 30.8571H9.85704C10.107 30.8571 10.3124 30.7768 10.4731 30.6161C10.6338 30.4554 10.7142 30.25 10.7142 30ZM10.7142 23.1429V21.4286C10.7142 21.1786 10.6338 20.9732 10.4731 20.8125C10.3124 20.6518 10.107 20.5714 9.85704 20.5714H8.14275C7.89275 20.5714 7.6874 20.6518 7.52668 20.8125C7.36597 20.9732 7.28561 21.1786 7.28561 21.4286V23.1429C7.28561 23.3929 7.36597 23.5982 7.52668 23.7589C7.6874 23.9196 7.89275 24 8.14275 24H9.85704C10.107 24 10.3124 23.9196 10.4731 23.7589C10.6338 23.5982 10.7142 23.3929 10.7142 23.1429ZM10.7142 16.2857V14.5714C10.7142 14.3214 10.6338 14.1161 10.4731 13.9554C10.3124 13.7946 10.107 13.7143 9.85704 13.7143H8.14275C7.89275 13.7143 7.6874 13.7946 7.52668 13.9554C7.36597 14.1161 7.28561 14.3214 7.28561 14.5714V16.2857C7.28561 16.5357 7.36597 16.7411 7.52668 16.9018C7.6874 17.0625 7.89275 17.1429 8.14275 17.1429H9.85704C10.107 17.1429 10.3124 17.0625 10.4731 16.9018C10.6338 16.7411 10.7142 16.5357 10.7142 16.2857ZM10.7142 9.42857V7.71429C10.7142 7.46429 10.6338 7.25893 10.4731 7.09821C10.3124 6.9375 10.107 6.85714 9.85704 6.85714H8.14275C7.89275 6.85714 7.6874 6.9375 7.52668 7.09821C7.36597 7.25893 7.28561 7.46429 7.28561 7.71429V9.42857C7.28561 9.67857 7.36597 9.88393 7.52668 10.0446C7.6874 10.2054 7.89275 10.2857 8.14275 10.2857H9.85704C10.107 10.2857 10.3124 10.2054 10.4731 10.0446C10.6338 9.88393 10.7142 9.67857 10.7142 9.42857ZM24.4285 43.7143V38.5714C24.4285 38.3214 24.3481 38.1161 24.1874 37.9554C24.0267 37.7946 23.8213 37.7143 23.5713 37.7143H14.9999C14.7499 37.7143 14.5445 37.7946 14.3838 37.9554C14.2231 38.1161 14.1428 38.3214 14.1428 38.5714V43.7143C14.1428 43.9643 14.2231 44.1696 14.3838 44.3304C14.5445 44.4911 14.7499 44.5714 14.9999 44.5714H23.5713C23.8213 44.5714 24.0267 44.4911 24.1874 44.3304C24.3481 44.1696 24.4285 43.9643 24.4285 43.7143ZM24.4285 30V28.2857C24.4285 28.0357 24.3481 27.8304 24.1874 27.6696C24.0267 27.5089 23.8213 27.4286 23.5713 27.4286H21.857C21.607 27.4286 21.4017 27.5089 21.241 27.6696C21.0803 27.8304 20.9999 28.0357 20.9999 28.2857V30C20.9999 30.25 21.0803 30.4554 21.241 30.6161C21.4017 30.7768 21.607 30.8571 21.857 30.8571H23.5713C23.8213 30.8571 24.0267 30.7768 24.1874 30.6161C24.3481 30.4554 24.4285 30.25 24.4285 30ZM24.4285 23.1429V21.4286C24.4285 21.1786 24.3481 20.9732 24.1874 20.8125C24.0267 20.6518 23.8213 20.5714 23.5713 20.5714H21.857C21.607 20.5714 21.4017 20.6518 21.241 20.8125C21.0803 20.9732 20.9999 21.1786 20.9999 21.4286V23.1429C20.9999 23.3929 21.0803 23.5982 21.241 23.7589C21.4017 23.9196 21.607 24 21.857 24H23.5713C23.8213 24 24.0267 23.9196 24.1874 23.7589C24.3481 23.5982 24.4285 23.3929 24.4285 23.1429ZM24.4285 16.2857V14.5714C24.4285 14.3214 24.3481 14.1161 24.1874 13.9554C24.0267 13.7946 23.8213 13.7143 23.5713 13.7143H21.857C21.607 13.7143 21.4017 13.7946 21.241 13.9554C21.0803 14.1161 20.9999 14.3214 20.9999 14.5714V16.2857C20.9999 16.5357 21.0803 16.7411 21.241 16.9018C21.4017 17.0625 21.607 17.1429 21.857 17.1429H23.5713C23.8213 17.1429 24.0267 17.0625 24.1874 16.9018C24.3481 16.7411 24.4285 16.5357 24.4285 16.2857ZM24.4285 9.42857V7.71429C24.4285 7.46429 24.3481 7.25893 24.1874 7.09821C24.0267 6.9375 23.8213 6.85714 23.5713 6.85714H21.857C21.607 6.85714 21.4017 6.9375 21.241 7.09821C21.0803 7.25893 20.9999 7.46429 20.9999 7.71429V9.42857C20.9999 9.67857 21.0803 9.88393 21.241 10.0446C21.4017 10.2054 21.607 10.2857 21.857 10.2857H23.5713C23.8213 10.2857 24.0267 10.2054 24.1874 10.0446C24.3481 9.88393 24.4285 9.67857 24.4285 9.42857ZM31.2856 36.8571V35.1429C31.2856 34.8929 31.2053 34.6875 31.0445 34.5268C30.8838 34.3661 30.6785 34.2857 30.4285 34.2857H28.7142C28.4642 34.2857 28.2588 34.3661 28.0981 34.5268C27.9374 34.6875 27.857 34.8929 27.857 35.1429V36.8571C27.857 37.1071 27.9374 37.3125 28.0981 37.4732C28.2588 37.6339 28.4642 37.7143 28.7142 37.7143H30.4285C30.6785 37.7143 30.8838 37.6339 31.0445 37.4732C31.2053 37.3125 31.2856 37.1071 31.2856 36.8571ZM31.2856 30V28.2857C31.2856 28.0357 31.2053 27.8304 31.0445 27.6696C30.8838 27.5089 30.6785 27.4286 30.4285 27.4286H28.7142C28.4642 27.4286 28.2588 27.5089 28.0981 27.6696C27.9374 27.8304 27.857 28.0357 27.857 28.2857V30C27.857 30.25 27.9374 30.4554 28.0981 30.6161C28.2588 30.7768 28.4642 30.8571 28.7142 30.8571H30.4285C30.6785 30.8571 30.8838 30.7768 31.0445 30.6161C31.2053 30.4554 31.2856 30.25 31.2856 30ZM31.2856 23.1429V21.4286C31.2856 21.1786 31.2053 20.9732 31.0445 20.8125C30.8838 20.6518 30.6785 20.5714 30.4285 20.5714H28.7142C28.4642 20.5714 28.2588 20.6518 28.0981 20.8125C27.9374 20.9732 27.857 21.1786 27.857 21.4286V23.1429C27.857 23.3929 27.9374 23.5982 28.0981 23.7589C28.2588 23.9196 28.4642 24 28.7142 24H30.4285C30.6785 24 30.8838 23.9196 31.0445 23.7589C31.2053 23.5982 31.2856 23.3929 31.2856 23.1429ZM31.2856 16.2857V14.5714C31.2856 14.3214 31.2053 14.1161 31.0445 13.9554C30.8838 13.7946 30.6785 13.7143 30.4285 13.7143H28.7142C28.4642 13.7143 28.2588 13.7946 28.0981 13.9554C27.9374 14.1161 27.857 14.3214 27.857 14.5714V16.2857C27.857 16.5357 27.9374 16.7411 28.0981 16.9018C28.2588 17.0625 28.4642 17.1429 28.7142 17.1429H30.4285C30.6785 17.1429 30.8838 17.0625 31.0445 16.9018C31.2053 16.7411 31.2856 16.5357 31.2856 16.2857ZM31.2856 9.42857V7.71429C31.2856 7.46429 31.2053 7.25893 31.0445 7.09821C30.8838 6.9375 30.6785 6.85714 30.4285 6.85714H28.7142C28.4642 6.85714 28.2588 6.9375 28.0981 7.09821C27.9374 7.25893 27.857 7.46429 27.857 7.71429V9.42857C27.857 9.67857 27.9374 9.88393 28.0981 10.0446C28.2588 10.2054 28.4642 10.2857 28.7142 10.2857H30.4285C30.6785 10.2857 30.8838 10.2054 31.0445 10.0446C31.2053 9.88393 31.2856 9.67857 31.2856 9.42857Z" fill="#25396F"/>
</g>
<defs>
<clipPath id="clip0_1399_3740">
<rect width="41.16" height="48" fill="white" transform="matrix(1 0 0 -1 0.419922 48)"/>
</clipPath>
</defs>
</svg>
