<svg width="24" height="24" viewBox="0 0 24 24" fill="none" xmlns="http://www.w3.org/2000/svg">
<path d="M12 24C18.6274 24 24 18.6274 24 12C24 5.37258 18.6274 0 12 0C5.37258 0 0 5.37258 0 12C0 18.6274 5.37258 24 12 24Z" fill="#1977F3"/>
<path d="M16.6711 15.4696L17.2027 12H13.8749V9.74885C13.8749 8.80046 14.3389 7.87401 15.8307 7.87401H17.3444V4.92084C17.3444 4.92084 15.9708 4.68627 14.6579 4.68627C11.9173 4.68627 10.1252 6.3468 10.1252 9.35565V12H7.07751V15.4696H10.1252V23.8549C10.7361 23.9511 11.3621 24 12 24C12.6379 24 13.264 23.9494 13.8749 23.8549V15.4696H16.6711Z" fill="white"/>
</svg>
