<svg width="320" height="320" viewBox="0 0 320 320" fill="none" xmlns="http://www.w3.org/2000/svg">
<mask id="path-1-inside-1_1011_818" fill="white">
<path d="M160 10C195.715 10 230.259 22.7438 257.417 45.9391C284.575 69.1344 302.566 101.259 308.153 136.535C313.74 171.811 306.557 207.922 287.896 238.375C269.235 268.827 240.32 291.622 206.353 302.658C172.385 313.695 135.594 312.25 102.597 298.582C69.6007 284.914 42.5635 259.921 26.349 228.099C10.1345 196.276 5.8069 159.712 14.1445 124.983C22.4821 90.2546 42.9378 59.6405 71.8322 38.6475L89.497 62.9609C66.3917 79.7479 50.0344 104.228 43.3672 131.999C36.7001 159.77 40.1607 189.008 53.1265 214.455C66.0924 239.902 87.7126 259.887 114.098 270.817C140.484 281.746 169.904 282.902 197.066 274.076C224.228 265.251 247.349 247.023 262.272 222.672C277.194 198.321 282.938 169.444 278.47 141.236C274.002 113.028 259.616 87.3397 237.899 68.7917C216.182 50.2436 188.56 40.0531 160 40.0531V10Z"/>
</mask>
<path d="M160 10C195.715 10 230.259 22.7438 257.417 45.9391C284.575 69.1344 302.566 101.259 308.153 136.535C313.74 171.811 306.557 207.922 287.896 238.375C269.235 268.827 240.32 291.622 206.353 302.658C172.385 313.695 135.594 312.25 102.597 298.582C69.6007 284.914 42.5635 259.921 26.349 228.099C10.1345 196.276 5.8069 159.712 14.1445 124.983C22.4821 90.2546 42.9378 59.6405 71.8322 38.6475L89.497 62.9609C66.3917 79.7479 50.0344 104.228 43.3672 131.999C36.7001 159.77 40.1607 189.008 53.1265 214.455C66.0924 239.902 87.7126 259.887 114.098 270.817C140.484 281.746 169.904 282.902 197.066 274.076C224.228 265.251 247.349 247.023 262.272 222.672C277.194 198.321 282.938 169.444 278.47 141.236C274.002 113.028 259.616 87.3397 237.899 68.7917C216.182 50.2436 188.56 40.0531 160 40.0531V10Z" stroke="#CBD400" stroke-width="60" mask="url(#path-1-inside-1_1011_818)"/>
</svg>
