<svg width="26" height="24" viewBox="0 0 26 24" fill="none" xmlns="http://www.w3.org/2000/svg">
<g clip-path="url(#clip0_1399_5456)">
<path d="M7.94489 12C6.49847 12.0446 5.31543 12.6161 4.39579 13.7143H2.60114C1.869 13.7143 1.25293 13.5335 0.75293 13.1719C0.25293 12.8103 0.00292969 12.2812 0.00292969 11.5848C0.00292969 8.43304 0.556501 6.85714 1.66364 6.85714C1.71722 6.85714 1.91141 6.95089 2.24623 7.13839C2.58105 7.32589 3.01632 7.51562 3.55204 7.70759C4.08775 7.89955 4.619 7.99553 5.14579 7.99553C5.744 7.99553 6.33775 7.89286 6.92704 7.6875C6.88239 8.01786 6.86007 8.3125 6.86007 8.57143C6.86007 9.8125 7.22168 10.9554 7.94489 12ZM22.2886 20.5312C22.2886 21.6027 21.9628 22.4487 21.311 23.0692C20.6592 23.6897 19.7931 24 18.7128 24H7.00739C5.92704 24 5.06097 23.6897 4.40918 23.0692C3.75739 22.4487 3.4315 21.6027 3.4315 20.5312C3.4315 20.058 3.44713 19.596 3.47838 19.1451C3.50963 18.6942 3.57213 18.2076 3.66588 17.6853C3.75963 17.1629 3.87793 16.6786 4.02079 16.2321C4.16364 15.7857 4.35561 15.3504 4.59668 14.9263C4.83775 14.5022 5.11454 14.1406 5.42704 13.8415C5.73954 13.5424 6.12123 13.3036 6.57213 13.125C7.02302 12.9464 7.52079 12.8571 8.06543 12.8571C8.15472 12.8571 8.34668 12.9531 8.64132 13.1451C8.93597 13.3371 9.26186 13.5513 9.619 13.7879C9.97614 14.0246 10.4538 14.2388 11.052 14.4308C11.6503 14.6228 12.2529 14.7188 12.8601 14.7188C13.4672 14.7188 14.0699 14.6228 14.6681 14.4308C15.2663 14.2388 15.744 14.0246 16.1011 13.7879C16.4583 13.5513 16.7842 13.3371 17.0788 13.1451C17.3735 12.9531 17.5654 12.8571 17.6547 12.8571C18.1994 12.8571 18.6971 12.9464 19.148 13.125C19.5989 13.3036 19.9806 13.5424 20.2931 13.8415C20.6056 14.1406 20.8824 14.5022 21.1235 14.9263C21.3645 15.3504 21.5565 15.7857 21.6994 16.2321C21.8422 16.6786 21.9605 17.1629 22.0543 17.6853C22.148 18.2076 22.2105 18.6942 22.2418 19.1451C22.273 19.596 22.2886 20.058 22.2886 20.5312ZM7.56989 1.00446C7.56989 1.00446 7.7373 1.17188 8.07213 1.5067C8.40695 1.84152 8.57436 2.48214 8.57436 3.42857C8.57436 4.375 8.23954 5.18303 7.56989 5.85268C6.90025 6.52232 6.09222 6.85714 5.14579 6.85714C4.19936 6.85714 3.39132 6.52232 2.72168 5.85268C2.05204 5.18303 1.71722 4.375 1.71722 3.42857C1.71722 2.48214 2.05204 1.67411 2.72168 1.00446C3.39132 0.334822 4.19936 0 5.14579 0C6.09222 0 6.90025 0.334822 7.56989 1.00446ZM16.4962 4.93527C16.4962 4.93527 16.7473 5.18638 17.2496 5.68862C17.7518 6.19085 18.0029 7.15178 18.0029 8.57143C18.0029 9.99107 17.5007 11.2031 16.4962 12.2076C15.4918 13.2121 14.2797 13.7143 12.8601 13.7143C11.4404 13.7143 10.2284 13.2121 9.22391 12.2076C8.21945 11.2031 7.71722 9.99107 7.71722 8.57143C7.71722 7.15178 8.21945 5.93973 9.22391 4.93527C10.2284 3.9308 11.4404 3.42857 12.8601 3.42857C14.2797 3.42857 15.4918 3.9308 16.4962 4.93527ZM25.7172 11.5848C25.7172 12.2812 25.4672 12.8103 24.9672 13.1719C24.4672 13.5335 23.8511 13.7143 23.119 13.7143H21.3244C20.4047 12.6161 19.2217 12.0446 17.7753 12C18.4985 10.9554 18.8601 9.8125 18.8601 8.57143C18.8601 8.3125 18.8378 8.01786 18.7931 7.6875C19.3824 7.89286 19.9761 7.99553 20.5744 7.99553C21.1011 7.99553 21.6324 7.89955 22.1681 7.70759C22.7038 7.51562 23.1391 7.32589 23.4739 7.13839C23.8087 6.95089 24.0029 6.85714 24.0565 6.85714C25.1636 6.85714 25.7172 8.43304 25.7172 11.5848ZM22.9985 1.00446C22.9985 1.00446 23.1659 1.17188 23.5007 1.5067C23.8355 1.84152 24.0029 2.48214 24.0029 3.42857C24.0029 4.375 23.6681 5.18303 22.9985 5.85268C22.3288 6.52232 21.5208 6.85714 20.5744 6.85714C19.6279 6.85714 18.8199 6.52232 18.1503 5.85268C17.4806 5.18303 17.1458 4.375 17.1458 3.42857C17.1458 2.48214 17.4806 1.67411 18.1503 1.00446C18.8199 0.334822 19.6279 0 20.5744 0C21.5208 0 22.3288 0.334822 22.9985 1.00446Z" fill="white"/>
</g>
<defs>
<clipPath id="clip0_1399_5456">
<rect width="25.72" height="24" fill="white" transform="matrix(1 0 0 -1 0 24)"/>
</clipPath>
</defs>
</svg>
