<svg width="21" height="25" viewBox="0 0 21 25" fill="none" xmlns="http://www.w3.org/2000/svg">
<path fill-rule="evenodd" clip-rule="evenodd" d="M1.75 22.1H19.25C19.5815 22.1 19.8995 22.2264 20.1339 22.4515C20.3683 22.6765 20.5 22.9817 20.5 23.3C20.5 23.6183 20.3683 23.9235 20.1339 24.1485C19.8995 24.3736 19.5815 24.5 19.25 24.5H1.75C1.41848 24.5 1.10054 24.3736 0.866117 24.1485C0.631696 23.9235 0.5 23.6183 0.5 23.3C0.5 22.9817 0.631696 22.6765 0.866117 22.4515C1.10054 22.2264 1.41848 22.1 1.75 22.1ZM0.5 16.1L13 4.1L16.75 7.7L4.25 19.7H0.5V16.1ZM14.25 2.9L16.75 0.5L20.5 4.1L17.9988 6.5012L14.25 2.9Z" fill="white"/>
</svg>
