<svg width="81" height="81" viewBox="0 0 81 81" fill="none" xmlns="http://www.w3.org/2000/svg">
<path d="M40.6147 80.2377C18.5227 80.2377 0.614746 62.3297 0.614746 40.2377C0.614746 18.1497 18.5227 0.237732 40.6147 0.237732C62.7067 0.237732 80.6147 18.1497 80.6147 40.2377C80.6147 62.3297 62.7067 80.2377 40.6147 80.2377ZM40.6147 20.2377C39.5539 20.2377 38.5365 20.6592 37.7863 21.4093C37.0362 22.1594 36.6147 23.1769 36.6147 24.2377V44.2377C36.6147 45.2986 37.0362 46.316 37.7863 47.0662C38.5365 47.8163 39.5539 48.2377 40.6147 48.2377C41.6756 48.2377 42.693 47.8163 43.4432 47.0662C44.1933 46.316 44.6147 45.2986 44.6147 44.2377V24.2377C44.6147 23.1769 44.1933 22.1594 43.4432 21.4093C42.693 20.6592 41.6756 20.2377 40.6147 20.2377ZM40.6147 60.2377C41.6756 60.2377 42.693 59.8163 43.4432 59.0662C44.1933 58.316 44.6147 57.2986 44.6147 56.2377C44.6147 55.1769 44.1933 54.1595 43.4432 53.4093C42.693 52.6592 41.6756 52.2377 40.6147 52.2377C39.5539 52.2377 38.5365 52.6592 37.7863 53.4093C37.0362 54.1595 36.6147 55.1769 36.6147 56.2377C36.6147 57.2986 37.0362 58.316 37.7863 59.0662C38.5365 59.8163 39.5539 60.2377 40.6147 60.2377Z" fill="black"/>
</svg>
