<svg width="121" height="42" viewBox="0 0 121 42" fill="none" xmlns="http://www.w3.org/2000/svg">
<g clip-path="url(#clip0_1218_317)">
<path d="M72.7971 0.695984C72.8541 0.980984 72.9621 1.26898 72.9621 1.55698C72.9711 6.25198 72.9681 10.947 72.9711 15.642C72.9711 15.828 72.9891 16.011 73.0011 16.194C73.0371 16.209 73.0731 16.224 73.1121 16.239C73.2261 16.119 73.3461 16.005 73.4511 15.879C74.6541 14.445 76.0971 13.359 77.9121 12.81C79.1511 12.432 80.4261 12.339 81.7101 12.402C83.4411 12.483 85.1001 12.843 86.6181 13.719C88.7031 14.922 90.1101 16.707 90.9891 18.915C92.1351 21.792 92.4141 24.795 92.2191 27.864C92.1111 29.58 91.8651 31.272 91.2981 32.898C90.2091 36.012 88.3911 38.484 85.1721 39.681C83.1231 40.443 81.0051 40.551 78.8751 40.194C76.5681 39.807 74.5971 38.769 73.0971 36.918C73.0551 36.864 72.9861 36.831 72.8511 36.723C72.8241 36.945 72.7911 37.089 72.7911 37.236C72.7851 37.893 72.7791 38.547 72.7911 39.204C72.8001 39.594 72.6621 39.774 72.2451 39.771C70.3371 39.759 68.4291 39.768 66.5241 39.765C65.9781 39.765 65.9481 39.732 65.9451 39.177C65.9451 35.034 65.9451 30.891 65.9451 26.748C65.9451 18.342 65.9451 9.93898 65.9541 1.53298C65.9541 1.25698 66.0981 0.977984 66.1761 0.701984C68.3871 0.695984 70.5921 0.695984 72.7971 0.695984ZM73.0341 25.941C73.0401 28.203 73.3371 30.027 74.1891 31.728C75.1701 33.69 76.7091 34.893 78.9531 34.968C81.0741 35.04 82.6311 34.041 83.6421 32.199C84.3411 30.93 84.6831 29.55 84.8421 28.116C85.1361 25.458 84.8991 22.881 83.6331 20.475C83.0061 19.287 82.0701 18.384 80.7591 18.021C78.3201 17.343 76.2111 18.123 74.7561 20.226C73.4871 22.056 73.0611 24.135 73.0341 25.941Z" fill="white"/>
<path d="M120.08 39.738C119.915 39.747 119.783 39.762 119.654 39.762C117.686 39.762 115.718 39.762 113.753 39.762C113.204 39.762 113.171 39.729 113.171 39.177C113.171 34.287 113.192 29.4 113.156 24.513C113.15 23.388 113.021 22.254 112.82 21.147C112.421 18.945 110.81 17.718 108.554 17.781C106.193 17.844 104.627 19.08 103.658 21.144C102.833 22.902 102.572 24.783 102.572 26.709C102.572 30.852 102.572 34.995 102.572 39.138C102.572 39.729 102.536 39.771 101.939 39.771C100.031 39.771 98.123 39.765 96.218 39.762C95.642 39.762 95.615 39.741 95.615 39.156C95.615 35.28 95.615 31.407 95.615 27.531C95.615 22.926 95.615 18.321 95.615 13.716C95.615 13.017 95.615 13.014 96.29 13.014C98.093 13.014 99.896 13.023 101.699 13.014C102.074 13.014 102.236 13.119 102.221 13.524C102.197 14.343 102.212 15.165 102.215 15.984C102.215 16.128 102.227 16.272 102.242 16.545C102.422 16.386 102.536 16.311 102.617 16.209C103.934 14.526 105.59 13.311 107.675 12.81C110.618 12.105 113.537 12.063 116.216 13.746C117.962 14.844 118.952 16.518 119.555 18.453C119.696 18.909 119.906 19.344 120.071 19.794C120.11 19.902 120.107 20.028 120.107 20.148C120.107 26.571 120.107 32.994 120.107 39.417C120.107 39.507 120.092 39.594 120.08 39.738Z" fill="white"/>
<path d="M48.026 25.758C48.026 23.403 48.026 21.048 48.026 18.693C48.026 18.087 47.993 18.054 47.399 18.051C46.088 18.051 44.777 18.036 43.466 18.057C43.031 18.063 42.86 17.946 42.869 17.481C42.899 16.2 42.878 14.919 42.878 13.638C42.878 13.05 42.902 13.029 43.475 13.026C44.801 13.023 46.127 13.008 47.453 13.026C47.879 13.032 48.035 12.891 48.029 12.459C48.011 11.028 48.032 9.59697 48.017 8.16897C48.014 7.77297 48.167 7.60197 48.548 7.48497C50.126 7.00497 51.692 6.47997 53.261 5.97297C53.672 5.84097 54.083 5.70597 54.497 5.58897C54.962 5.45697 55.043 5.52297 55.043 6.02397C55.046 8.11197 55.043 10.197 55.043 12.282C55.043 12.999 55.061 13.017 55.763 13.02C57.389 13.023 59.012 13.023 60.635 13.029C61.244 13.029 61.247 13.035 61.247 13.659C61.247 14.955 61.235 16.251 61.256 17.547C61.262 17.937 61.151 18.066 60.755 18.06C59.072 18.042 57.389 18.051 55.703 18.054C55.094 18.054 55.043 18.111 55.043 18.723C55.043 22.671 55.04 26.622 55.046 30.57C55.046 31.527 55.157 32.481 55.574 33.357C56.198 34.665 57.335 35.094 58.916 34.938C59.675 34.863 60.419 34.614 61.16 34.407C61.529 34.302 61.538 34.515 61.547 34.749C61.577 35.715 61.598 36.684 61.625 37.653C61.64 38.175 61.658 38.694 61.688 39.216C61.706 39.555 61.625 39.789 61.238 39.855C60.536 39.978 59.843 40.203 59.135 40.251C57.263 40.38 55.382 40.548 53.54 40.011C51.101 39.3 49.427 37.755 48.575 35.349C48.125 34.083 48.005 32.769 48.014 31.434C48.035 29.544 48.026 27.651 48.026 25.758Z" fill="white"/>
<path d="M82.7 3.53696C83.111 3.53696 83.435 3.53696 83.801 3.53696C83.801 5.17196 83.801 6.78596 83.801 8.43296C83.306 8.53196 82.8799 8.53496 82.5079 8.02796C81.8839 7.18196 81.182 6.39296 80.426 5.47496C80.426 6.54896 80.426 7.49096 80.426 8.45396C80.039 8.45396 79.703 8.45396 79.325 8.45396C79.325 6.82496 79.325 5.19896 79.325 3.55196C79.853 3.47996 80.282 3.47696 80.651 3.99596C81.254 4.83896 81.956 5.61296 82.7 6.51596C82.7 5.45396 82.7 4.51496 82.7 3.53696Z" fill="white"/>
<path d="M101.327 8.43298C100.715 8.58898 100.304 8.41498 99.941 7.90498C99.434 7.19098 98.837 6.53998 98.279 5.86498C98.201 5.76898 98.111 5.67898 97.961 5.51998C97.961 6.54598 97.961 7.47598 97.961 8.44198C97.583 8.44198 97.235 8.44198 96.854 8.44198C96.854 6.81898 96.854 5.19598 96.854 3.55198C97.388 3.47698 97.814 3.47998 98.186 3.99598C98.789 4.83898 99.491 5.61298 100.229 6.50998C100.229 5.45998 100.229 4.52398 100.229 3.55198C100.616 3.55198 100.952 3.55198 101.33 3.55198C101.327 5.17198 101.327 6.79798 101.327 8.43298Z" fill="white"/>
<path d="M84.98 3.55199C85.898 3.55199 86.777 3.50399 87.65 3.56399C88.973 3.65399 89.849 4.60199 89.897 5.89199C89.945 7.20299 89.177 8.22899 87.854 8.38799C86.918 8.49899 85.961 8.40899 84.98 8.40899C84.98 6.82499 84.98 5.20199 84.98 3.55199ZM86.099 7.50299C86.6 7.50299 87.047 7.54499 87.488 7.49399C88.271 7.40399 88.745 6.83099 88.766 6.02999C88.787 5.25899 88.352 4.64699 87.596 4.51799C87.113 4.43399 86.606 4.46099 86.099 4.43999C86.099 5.50499 86.099 6.49499 86.099 7.50299Z" fill="white"/>
<path d="M93.11 3.43497C94.682 3.47397 95.792 4.55997 95.768 6.02697C95.744 7.51497 94.565 8.59797 93.005 8.56497C91.451 8.53197 90.317 7.42197 90.347 5.96697C90.374 4.46697 91.547 3.39297 93.11 3.43497ZM93.023 7.59897C93.929 7.61397 94.601 6.95997 94.622 6.03897C94.643 5.09997 93.974 4.38897 93.068 4.38297C92.18 4.37697 91.502 5.06097 91.493 5.97597C91.481 6.89997 92.126 7.58097 93.023 7.59897Z" fill="white"/>
<path d="M118.649 8.47501C118.331 8.47501 118.004 8.50801 117.692 8.46001C117.569 8.44201 117.437 8.25001 117.374 8.11201C117.062 7.40701 117.071 7.40401 116.297 7.40401C115.823 7.40401 115.346 7.40701 114.869 7.41001C114.842 7.41001 114.812 7.42501 114.797 7.42801C114.623 7.77601 114.533 8.22301 114.26 8.42701C114.041 8.59201 113.603 8.46001 113.222 8.46001C113.249 8.35501 113.261 8.25901 113.3 8.17501C113.942 6.72301 114.593 5.27401 115.229 3.81601C115.328 3.58801 115.463 3.47101 115.7 3.52201C116.006 3.58501 116.411 3.31501 116.609 3.75301C117.299 5.28301 117.98 6.81601 118.661 8.34901C118.67 8.37301 118.655 8.40601 118.649 8.47501ZM115.931 4.64401C115.655 5.31301 115.415 5.89201 115.157 6.51001C115.694 6.51001 116.165 6.51001 116.702 6.51001C116.447 5.89201 116.207 5.31601 115.931 4.64401Z" fill="white"/>
<path d="M102.566 8.45699C102.566 6.81899 102.566 5.20499 102.566 3.55499C103.793 3.55499 105.005 3.55499 106.25 3.55499C106.25 3.83699 106.25 4.10999 106.25 4.43699C105.395 4.43699 104.555 4.43699 103.691 4.43699C103.691 4.81199 103.691 5.13299 103.691 5.49899C104.447 5.49899 105.185 5.49899 105.947 5.49899C105.947 5.80799 105.947 6.06899 105.947 6.39599C105.209 6.39599 104.462 6.39599 103.691 6.39599C103.691 6.80999 103.691 7.15799 103.691 7.56299C104.579 7.56299 105.449 7.56299 106.346 7.56299C106.346 7.88999 106.346 8.16299 106.346 8.45699C105.08 8.45699 103.838 8.45699 102.566 8.45699Z" fill="white"/>
<path d="M106.613 8.01301C106.757 7.69501 106.871 7.44001 106.97 7.21801C107.453 7.36201 107.909 7.53601 108.383 7.62301C108.662 7.67401 108.98 7.62601 109.256 7.54501C109.406 7.50001 109.589 7.29001 109.598 7.14601C109.607 7.00501 109.442 6.78901 109.298 6.71401C109.037 6.58201 108.737 6.53401 108.452 6.45001C108.155 6.36001 107.849 6.28501 107.558 6.17401C107.039 5.97301 106.73 5.58901 106.715 5.02501C106.7 4.46101 106.952 4.02301 107.453 3.74101C108.26 3.28501 109.619 3.33901 110.534 3.87901C110.432 4.14001 110.327 4.40701 110.21 4.70701C110.057 4.64701 109.931 4.56901 109.793 4.54801C109.343 4.47901 108.887 4.37401 108.44 4.39801C108.239 4.40701 107.951 4.65601 107.885 4.86001C107.78 5.18101 108.107 5.31001 108.362 5.38801C108.83 5.53201 109.31 5.63701 109.775 5.78401C110.348 5.96701 110.726 6.32401 110.753 6.96601C110.777 7.56901 110.462 8.09101 109.859 8.32801C108.746 8.76301 107.681 8.59501 106.613 8.01301Z" fill="white"/>
<path d="M78.1609 8.45699C77.7919 8.45699 77.4559 8.45699 77.0989 8.45699C77.0989 6.81899 77.0989 5.20199 77.0989 3.55499C77.4499 3.55499 77.7829 3.55499 78.1609 3.55499C78.1609 5.17199 78.1609 6.79799 78.1609 8.45699Z" fill="white"/>
<path d="M112.697 8.45699C112.322 8.45699 111.986 8.45699 111.623 8.45699C111.623 6.82199 111.623 5.20499 111.623 3.55499C111.977 3.55499 112.322 3.55499 112.697 3.55499C112.697 5.18699 112.697 6.80399 112.697 8.45699Z" fill="white"/>
<path d="M32.306 19.563C33.3084 19.563 34.121 18.7504 34.121 17.748C34.121 16.7456 33.3084 15.933 32.306 15.933C31.3036 15.933 30.491 16.7456 30.491 17.748C30.491 18.7504 31.3036 19.563 32.306 19.563Z" fill="#C9D32C"/>
<path d="M31.2169 12.834C32.3883 12.834 33.3379 11.8844 33.3379 10.713C33.3379 9.54158 32.3883 8.59198 31.2169 8.59198C30.0456 8.59198 29.0959 9.54158 29.0959 10.713C29.0959 11.8844 30.0456 12.834 31.2169 12.834Z" fill="#C9D32C"/>
<path d="M25.112 8.08197C26.7092 8.08197 28.004 6.78718 28.004 5.18997C28.004 3.59277 26.7092 2.29797 25.112 2.29797C23.5148 2.29797 22.22 3.59277 22.22 5.18997C22.22 6.78718 23.5148 8.08197 25.112 8.08197Z" fill="#C9D32C"/>
<path d="M15.2511 7.88998C17.2376 7.88998 18.8481 6.27955 18.8481 4.29298C18.8481 2.30642 17.2376 0.695984 15.2511 0.695984C13.2645 0.695984 11.6541 2.30642 11.6541 4.29298C11.6541 6.27955 13.2645 7.88998 15.2511 7.88998Z" fill="#C9D32C"/>
<path d="M6.39213 16.749C9.2005 16.749 11.4771 14.4723 11.4771 11.664C11.4771 8.85561 9.2005 6.57898 6.39213 6.57898C3.58376 6.57898 1.30713 8.85561 1.30713 11.664C1.30713 14.4723 3.58376 16.749 6.39213 16.749Z" fill="#C9D32C"/>
<path d="M6.68905 30.672C9.94145 30.672 12.578 28.0354 12.578 24.783C12.578 21.5306 9.94145 18.894 6.68905 18.894C3.43664 18.894 0.800049 21.5306 0.800049 24.783C0.800049 28.0354 3.43664 30.672 6.68905 30.672Z" fill="#C9D32C"/>
<path d="M18.3771 40.593C22.3038 40.593 25.4871 37.4097 25.4871 33.483C25.4871 29.5562 22.3038 26.373 18.3771 26.373C14.4503 26.373 11.2671 29.5562 11.2671 33.483C11.2671 37.4097 14.4503 40.593 18.3771 40.593Z" fill="#C9D32C"/>
<path d="M33.7882 37.701C37.9203 37.701 41.2702 34.3149 41.2702 30.138C41.2702 25.9611 37.9203 22.575 33.7882 22.575C29.656 22.575 26.3062 25.9611 26.3062 30.138C26.3062 34.3149 29.656 37.701 33.7882 37.701Z" fill="#C9D32C"/>
</g>
<defs>
<clipPath id="clip0_1218_317">
<rect width="120" height="41.208" fill="white" transform="translate(0.5 0.395996)"/>
</clipPath>
</defs>
</svg>
