<svg width="120" height="42" viewBox="0 0 120 42" fill="none" xmlns="http://www.w3.org/2000/svg">
<path d="M72.2971 0.300049C72.3541 0.585049 72.4621 0.873049 72.4621 1.16105C72.4711 5.85605 72.4681 10.551 72.4711 15.246C72.4711 15.432 72.4891 15.615 72.5011 15.798C72.5371 15.813 72.5731 15.828 72.6121 15.843C72.7261 15.723 72.8461 15.609 72.9511 15.483C74.1541 14.049 75.5971 12.963 77.4121 12.414C78.6511 12.036 79.9261 11.943 81.2101 12.006C82.9411 12.087 84.6001 12.447 86.1181 13.323C88.2031 14.526 89.6101 16.311 90.4891 18.519C91.6351 21.396 91.9141 24.399 91.7191 27.468C91.6111 29.184 91.3651 30.876 90.7981 32.502C89.7091 35.616 87.8911 38.088 84.6721 39.285C82.6231 40.047 80.5051 40.155 78.3751 39.798C76.0681 39.411 74.0971 38.373 72.5971 36.522C72.5551 36.468 72.4861 36.435 72.3511 36.327C72.3241 36.549 72.2911 36.693 72.2911 36.84C72.2851 37.497 72.2791 38.151 72.2911 38.808C72.3001 39.198 72.1621 39.378 71.7451 39.375C69.8371 39.363 67.9291 39.372 66.0241 39.369C65.4781 39.369 65.4481 39.336 65.4451 38.781C65.4451 34.638 65.4451 30.495 65.4451 26.352C65.4451 17.946 65.4451 9.54305 65.4541 1.13705C65.4541 0.861049 65.5981 0.582049 65.6761 0.306049C67.8871 0.300049 70.0921 0.300049 72.2971 0.300049ZM72.5341 25.545C72.5401 27.807 72.8371 29.631 73.6891 31.332C74.6701 33.294 76.2091 34.497 78.4531 34.572C80.5741 34.644 82.1311 33.645 83.1421 31.803C83.8411 30.534 84.1831 29.154 84.3421 27.72C84.6361 25.062 84.3991 22.485 83.1331 20.079C82.5061 18.891 81.5701 17.988 80.2591 17.625C77.8201 16.947 75.7111 17.727 74.2561 19.83C72.9871 21.66 72.5611 23.739 72.5341 25.545Z" fill="black"/>
<path d="M119.58 39.3419C119.415 39.3509 119.283 39.3659 119.154 39.3659C117.186 39.3659 115.218 39.3659 113.253 39.3659C112.704 39.3659 112.671 39.3329 112.671 38.7809C112.671 33.8909 112.692 29.0039 112.656 24.1169C112.65 22.9919 112.521 21.8579 112.32 20.7509C111.921 18.5489 110.31 17.3219 108.054 17.3849C105.693 17.4479 104.127 18.6839 103.158 20.7479C102.333 22.5059 102.072 24.3869 102.072 26.3129C102.072 30.4559 102.072 34.5989 102.072 38.7419C102.072 39.3329 102.036 39.3749 101.439 39.3749C99.531 39.3749 97.623 39.3689 95.718 39.3659C95.142 39.3659 95.115 39.3449 95.115 38.7599C95.115 34.8839 95.115 31.0109 95.115 27.1349C95.115 22.5299 95.115 17.9249 95.115 13.3199C95.115 12.6209 95.115 12.6179 95.79 12.6179C97.593 12.6179 99.396 12.6269 101.199 12.6179C101.574 12.6179 101.736 12.7229 101.721 13.1279C101.697 13.9469 101.712 14.7689 101.715 15.5879C101.715 15.7319 101.727 15.8759 101.742 16.1489C101.922 15.9899 102.036 15.9149 102.117 15.8129C103.434 14.1299 105.09 12.9149 107.175 12.4139C110.118 11.7089 113.037 11.6669 115.716 13.3499C117.462 14.4479 118.452 16.1219 119.055 18.0569C119.196 18.5129 119.406 18.9479 119.571 19.3979C119.61 19.5059 119.607 19.6319 119.607 19.7519C119.607 26.1749 119.607 32.5979 119.607 39.0209C119.607 39.1109 119.592 39.1979 119.58 39.3419Z" fill="black"/>
<path d="M47.526 25.3619C47.526 23.0069 47.526 20.6519 47.526 18.2969C47.526 17.6909 47.493 17.6579 46.899 17.6549C45.588 17.6549 44.277 17.6399 42.966 17.6609C42.531 17.6669 42.36 17.5499 42.369 17.0849C42.399 15.8039 42.378 14.5229 42.378 13.2419C42.378 12.6539 42.402 12.6329 42.975 12.6299C44.301 12.6269 45.627 12.6119 46.953 12.6299C47.379 12.6359 47.535 12.4949 47.529 12.0629C47.511 10.6319 47.532 9.20092 47.517 7.77292C47.514 7.37692 47.667 7.20591 48.048 7.08892C49.626 6.60892 51.192 6.08392 52.761 5.57692C53.172 5.44492 53.583 5.30992 53.997 5.19292C54.462 5.06092 54.543 5.12692 54.543 5.62792C54.546 7.71592 54.543 9.80092 54.543 11.8859C54.543 12.6029 54.561 12.6209 55.263 12.6239C56.889 12.6269 58.512 12.6269 60.135 12.6329C60.744 12.6329 60.747 12.6389 60.747 13.2629C60.747 14.5589 60.735 15.8549 60.756 17.1509C60.762 17.5409 60.651 17.6699 60.255 17.6639C58.572 17.6459 56.889 17.6549 55.203 17.6579C54.594 17.6579 54.543 17.7149 54.543 18.3269C54.543 22.2749 54.54 26.2259 54.546 30.1739C54.546 31.1309 54.657 32.0849 55.074 32.9609C55.698 34.2689 56.835 34.6979 58.416 34.5419C59.175 34.4669 59.919 34.2179 60.66 34.0109C61.029 33.9059 61.038 34.1189 61.047 34.3529C61.077 35.3189 61.098 36.2879 61.125 37.2569C61.14 37.7789 61.158 38.2979 61.188 38.8199C61.206 39.1589 61.125 39.3929 60.738 39.4589C60.036 39.5819 59.343 39.8069 58.635 39.8549C56.763 39.9839 54.882 40.1519 53.04 39.6149C50.601 38.9039 48.927 37.3589 48.075 34.9529C47.625 33.6869 47.505 32.3729 47.514 31.0379C47.535 29.1479 47.526 27.2549 47.526 25.3619Z" fill="black"/>
<path d="M82.2 3.14115C82.611 3.14115 82.935 3.14115 83.301 3.14115C83.301 4.77615 83.301 6.39015 83.301 8.03715C82.806 8.13615 82.3799 8.13915 82.0079 7.63215C81.3839 6.78615 80.682 5.99715 79.926 5.07915C79.926 6.15315 79.926 7.09515 79.926 8.05815C79.539 8.05815 79.203 8.05815 78.825 8.05815C78.825 6.42915 78.825 4.80315 78.825 3.15615C79.353 3.08415 79.782 3.08115 80.151 3.60015C80.754 4.44315 81.456 5.21715 82.2 6.12015C82.2 5.05815 82.2 4.11915 82.2 3.14115Z" fill="black"/>
<path d="M100.827 8.03698C100.215 8.19298 99.804 8.01898 99.441 7.50898C98.934 6.79498 98.337 6.14398 97.779 5.46898C97.701 5.37298 97.611 5.28298 97.461 5.12398C97.461 6.14998 97.461 7.07998 97.461 8.04598C97.083 8.04598 96.735 8.04598 96.354 8.04598C96.354 6.42298 96.354 4.79998 96.354 3.15598C96.888 3.08098 97.314 3.08398 97.686 3.59998C98.289 4.44298 98.991 5.21698 99.729 6.11398C99.729 5.06398 99.729 4.12798 99.729 3.15598C100.116 3.15598 100.452 3.15598 100.83 3.15598C100.827 4.77598 100.827 6.40198 100.827 8.03698Z" fill="black"/>
<path d="M84.48 3.15612C85.398 3.15612 86.277 3.10812 87.15 3.16812C88.473 3.25812 89.349 4.20612 89.397 5.49612C89.445 6.80712 88.677 7.83312 87.354 7.99212C86.418 8.10312 85.461 8.01312 84.48 8.01312C84.48 6.42912 84.48 4.80612 84.48 3.15612ZM85.599 7.10712C86.1 7.10712 86.547 7.14912 86.988 7.09812C87.771 7.00812 88.245 6.43512 88.266 5.63412C88.287 4.86312 87.852 4.25112 87.096 4.12212C86.613 4.03812 86.106 4.06512 85.599 4.04412C85.599 5.10912 85.599 6.09912 85.599 7.10712Z" fill="black"/>
<path d="M92.61 3.03903C94.182 3.07803 95.292 4.16403 95.268 5.63103C95.244 7.11903 94.065 8.20203 92.505 8.16903C90.951 8.13603 89.817 7.02603 89.847 5.57103C89.874 4.07103 91.047 2.99703 92.61 3.03903ZM92.523 7.20303C93.429 7.21803 94.101 6.56403 94.122 5.64303C94.143 4.70403 93.474 3.99303 92.568 3.98703C91.68 3.98103 91.002 4.66503 90.993 5.58003C90.981 6.50403 91.626 7.18503 92.523 7.20303Z" fill="black"/>
<path d="M118.149 8.07907C117.831 8.07907 117.504 8.11207 117.192 8.06407C117.069 8.04607 116.937 7.85407 116.874 7.71607C116.562 7.01107 116.571 7.00807 115.797 7.00807C115.323 7.00807 114.846 7.01107 114.369 7.01407C114.342 7.01407 114.312 7.02907 114.297 7.03207C114.123 7.38007 114.033 7.82707 113.76 8.03107C113.541 8.19607 113.103 8.06407 112.722 8.06407C112.749 7.95907 112.761 7.86307 112.8 7.77907C113.442 6.32707 114.093 4.87807 114.729 3.42007C114.828 3.19207 114.963 3.07507 115.2 3.12607C115.506 3.18907 115.911 2.91907 116.109 3.35707C116.799 4.88707 117.48 6.42007 118.161 7.95307C118.17 7.97707 118.155 8.01007 118.149 8.07907ZM115.431 4.24807C115.155 4.91707 114.915 5.49607 114.657 6.11407C115.194 6.11407 115.665 6.11407 116.202 6.11407C115.947 5.49607 115.707 4.92007 115.431 4.24807Z" fill="black"/>
<path d="M102.066 8.06094C102.066 6.42294 102.066 4.80894 102.066 3.15894C103.293 3.15894 104.505 3.15894 105.75 3.15894C105.75 3.44094 105.75 3.71394 105.75 4.04094C104.895 4.04094 104.055 4.04094 103.191 4.04094C103.191 4.41594 103.191 4.73694 103.191 5.10294C103.947 5.10294 104.685 5.10294 105.447 5.10294C105.447 5.41194 105.447 5.67294 105.447 5.99994C104.709 5.99994 103.962 5.99994 103.191 5.99994C103.191 6.41394 103.191 6.76194 103.191 7.16693C104.079 7.16693 104.949 7.16693 105.846 7.16693C105.846 7.49394 105.846 7.76694 105.846 8.06094C104.58 8.06094 103.338 8.06094 102.066 8.06094Z" fill="black"/>
<path d="M106.113 7.61708C106.257 7.29908 106.371 7.04408 106.47 6.82208C106.953 6.96608 107.409 7.14008 107.883 7.22708C108.162 7.27808 108.48 7.23008 108.756 7.14908C108.906 7.10408 109.089 6.89408 109.098 6.75008C109.107 6.60908 108.942 6.39308 108.798 6.31808C108.537 6.18608 108.237 6.13808 107.952 6.05408C107.655 5.96408 107.349 5.88908 107.058 5.77808C106.539 5.57708 106.23 5.19308 106.215 4.62908C106.2 4.06508 106.452 3.62708 106.953 3.34508C107.76 2.88908 109.119 2.94308 110.034 3.48308C109.932 3.74408 109.827 4.01108 109.71 4.31108C109.557 4.25108 109.431 4.17308 109.293 4.15208C108.843 4.08308 108.387 3.97808 107.94 4.00208C107.739 4.01108 107.451 4.26008 107.385 4.46408C107.28 4.78508 107.607 4.91408 107.862 4.99208C108.33 5.13608 108.81 5.24108 109.275 5.38808C109.848 5.57108 110.226 5.92808 110.253 6.57008C110.277 7.17308 109.962 7.69508 109.359 7.93208C108.246 8.36708 107.181 8.19908 106.113 7.61708Z" fill="black"/>
<path d="M77.6609 8.06094C77.2919 8.06094 76.9559 8.06094 76.5989 8.06094C76.5989 6.42294 76.5989 4.80594 76.5989 3.15894C76.9499 3.15894 77.2829 3.15894 77.6609 3.15894C77.6609 4.77594 77.6609 6.40194 77.6609 8.06094Z" fill="black"/>
<path d="M112.197 8.06094C111.822 8.06094 111.486 8.06094 111.123 8.06094C111.123 6.42594 111.123 4.80894 111.123 3.15894C111.477 3.15894 111.822 3.15894 112.197 3.15894C112.197 4.79094 112.197 6.40794 112.197 8.06094Z" fill="black"/>
<path d="M31.806 19.1671C32.8084 19.1671 33.621 18.3545 33.621 17.3521C33.621 16.3497 32.8084 15.5371 31.806 15.5371C30.8036 15.5371 29.991 16.3497 29.991 17.3521C29.991 18.3545 30.8036 19.1671 31.806 19.1671Z" fill="#C9D32C"/>
<path d="M30.7169 12.4383C31.8883 12.4383 32.8379 11.4887 32.8379 10.3173C32.8379 9.14589 31.8883 8.19629 30.7169 8.19629C29.5456 8.19629 28.5959 9.14589 28.5959 10.3173C28.5959 11.4887 29.5456 12.4383 30.7169 12.4383Z" fill="#C9D32C"/>
<path d="M24.612 7.6861C26.2092 7.6861 27.504 6.39131 27.504 4.7941C27.504 3.19689 26.2092 1.9021 24.612 1.9021C23.0148 1.9021 21.72 3.19689 21.72 4.7941C21.72 6.39131 23.0148 7.6861 24.612 7.6861Z" fill="#C9D32C"/>
<path d="M14.7511 7.49405C16.7376 7.49405 18.3481 5.88362 18.3481 3.89705C18.3481 1.91048 16.7376 0.300049 14.7511 0.300049C12.7645 0.300049 11.1541 1.91048 11.1541 3.89705C11.1541 5.88362 12.7645 7.49405 14.7511 7.49405Z" fill="#C9D32C"/>
<path d="M5.89213 16.3531C8.7005 16.3531 10.9771 14.0765 10.9771 11.2681C10.9771 8.45974 8.7005 6.18311 5.89213 6.18311C3.08376 6.18311 0.807129 8.45974 0.807129 11.2681C0.807129 14.0765 3.08376 16.3531 5.89213 16.3531Z" fill="#C9D32C"/>
<path d="M6.18905 30.276C9.44145 30.276 12.078 27.6395 12.078 24.387C12.078 21.1346 9.44145 18.498 6.18905 18.498C2.93664 18.498 0.300049 21.1346 0.300049 24.387C0.300049 27.6395 2.93664 30.276 6.18905 30.276Z" fill="#C9D32C"/>
<path d="M17.8771 40.1971C21.8038 40.1971 24.9871 37.0138 24.9871 33.0871C24.9871 29.1603 21.8038 25.9771 17.8771 25.9771C13.9503 25.9771 10.7671 29.1603 10.7671 33.0871C10.7671 37.0138 13.9503 40.1971 17.8771 40.1971Z" fill="#C9D32C"/>
<path d="M33.2882 37.3052C37.4203 37.3052 40.7702 33.9191 40.7702 29.7422C40.7702 25.5653 37.4203 22.1792 33.2882 22.1792C29.156 22.1792 25.8062 25.5653 25.8062 29.7422C25.8062 33.9191 29.156 37.3052 33.2882 37.3052Z" fill="#C9D32C"/>
</svg>
