<svg width="512" height="21" viewBox="0 0 512 21" fill="none" xmlns="http://www.w3.org/2000/svg">
<rect opacity="0.25" y="10.25" width="196.5" height="0.5" fill="#313131"/>
<path opacity="0.5" d="M218.002 15.098C217.097 15.098 216.271 14.888 215.524 14.468C214.777 14.0387 214.185 13.446 213.746 12.69C213.317 11.9247 213.102 11.066 213.102 10.114C213.102 9.162 213.317 8.308 213.746 7.552C214.185 6.78667 214.777 6.194 215.524 5.774C216.271 5.34467 217.097 5.13 218.002 5.13C218.917 5.13 219.747 5.34467 220.494 5.774C221.241 6.194 221.829 6.782 222.258 7.538C222.687 8.294 222.902 9.15267 222.902 10.114C222.902 11.0753 222.687 11.934 222.258 12.69C221.829 13.446 221.241 14.0387 220.494 14.468C219.747 14.888 218.917 15.098 218.002 15.098ZM218.002 13.992C218.683 13.992 219.295 13.8333 219.836 13.516C220.387 13.1987 220.816 12.746 221.124 12.158C221.441 11.57 221.6 10.8887 221.6 10.114C221.6 9.33 221.441 8.64867 221.124 8.07C220.816 7.482 220.391 7.02933 219.85 6.712C219.309 6.39467 218.693 6.236 218.002 6.236C217.311 6.236 216.695 6.39467 216.154 6.712C215.613 7.02933 215.183 7.482 214.866 8.07C214.558 8.64867 214.404 9.33 214.404 10.114C214.404 10.8887 214.558 11.57 214.866 12.158C215.183 12.746 215.613 13.1987 216.154 13.516C216.705 13.8333 217.321 13.992 218.002 13.992ZM225.858 8.574C226.082 8.13533 226.399 7.79467 226.81 7.552C227.23 7.30933 227.739 7.188 228.336 7.188V8.504H228C226.572 8.504 225.858 9.27867 225.858 10.828V15H224.584V7.328H225.858V8.574ZM234.813 4.64V15H233.539V4.64H234.813ZM240.33 15.126C239.612 15.126 238.958 14.9627 238.37 14.636C237.792 14.3093 237.334 13.8473 236.998 13.25C236.672 12.6433 236.508 11.9433 236.508 11.15C236.508 10.366 236.676 9.67533 237.012 9.078C237.358 8.47133 237.824 8.00933 238.412 7.692C239 7.36533 239.658 7.202 240.386 7.202C241.114 7.202 241.772 7.36533 242.36 7.692C242.948 8.00933 243.41 8.46667 243.746 9.064C244.092 9.66133 244.264 10.3567 244.264 11.15C244.264 11.9433 244.087 12.6433 243.732 13.25C243.387 13.8473 242.916 14.3093 242.318 14.636C241.721 14.9627 241.058 15.126 240.33 15.126ZM240.33 14.006C240.788 14.006 241.217 13.8987 241.618 13.684C242.02 13.4693 242.342 13.1473 242.584 12.718C242.836 12.2887 242.962 11.766 242.962 11.15C242.962 10.534 242.841 10.0113 242.598 9.582C242.356 9.15267 242.038 8.83533 241.646 8.63C241.254 8.41533 240.83 8.308 240.372 8.308C239.906 8.308 239.476 8.41533 239.084 8.63C238.702 8.83533 238.394 9.15267 238.16 9.582C237.927 10.0113 237.81 10.534 237.81 11.15C237.81 11.7753 237.922 12.3027 238.146 12.732C238.38 13.1613 238.688 13.4833 239.07 13.698C239.453 13.9033 239.873 14.006 240.33 14.006ZM249.103 7.202C249.766 7.202 250.345 7.34667 250.839 7.636C251.343 7.92533 251.717 8.28933 251.959 8.728V7.328H253.247V15.168C253.247 15.868 253.098 16.4887 252.799 17.03C252.501 17.5807 252.071 18.01 251.511 18.318C250.961 18.626 250.317 18.78 249.579 18.78C248.571 18.78 247.731 18.542 247.059 18.066C246.387 17.59 245.991 16.9413 245.869 16.12H247.129C247.269 16.5867 247.559 16.96 247.997 17.24C248.436 17.5293 248.963 17.674 249.579 17.674C250.279 17.674 250.849 17.4547 251.287 17.016C251.735 16.5773 251.959 15.9613 251.959 15.168V13.558C251.707 14.006 251.334 14.3793 250.839 14.678C250.345 14.9767 249.766 15.126 249.103 15.126C248.422 15.126 247.801 14.958 247.241 14.622C246.691 14.286 246.257 13.8147 245.939 13.208C245.622 12.6013 245.463 11.9107 245.463 11.136C245.463 10.352 245.622 9.666 245.939 9.078C246.257 8.48067 246.691 8.01867 247.241 7.692C247.801 7.36533 248.422 7.202 249.103 7.202ZM251.959 11.15C251.959 10.5713 251.843 10.0673 251.609 9.638C251.376 9.20867 251.059 8.882 250.657 8.658C250.265 8.42467 249.831 8.308 249.355 8.308C248.879 8.308 248.445 8.42 248.053 8.644C247.661 8.868 247.349 9.19467 247.115 9.624C246.882 10.0533 246.765 10.5573 246.765 11.136C246.765 11.724 246.882 12.2373 247.115 12.676C247.349 13.1053 247.661 13.4367 248.053 13.67C248.445 13.894 248.879 14.006 249.355 14.006C249.831 14.006 250.265 13.894 250.657 13.67C251.059 13.4367 251.376 13.1053 251.609 12.676C251.843 12.2373 251.959 11.7287 251.959 11.15ZM256.058 6.082C255.816 6.082 255.61 5.998 255.442 5.83C255.274 5.662 255.19 5.45667 255.19 5.214C255.19 4.97133 255.274 4.766 255.442 4.598C255.61 4.43 255.816 4.346 256.058 4.346C256.292 4.346 256.488 4.43 256.646 4.598C256.814 4.766 256.898 4.97133 256.898 5.214C256.898 5.45667 256.814 5.662 256.646 5.83C256.488 5.998 256.292 6.082 256.058 6.082ZM256.674 7.328V15H255.4V7.328H256.674ZM262.584 7.188C263.517 7.188 264.273 7.47267 264.852 8.042C265.43 8.602 265.72 9.414 265.72 10.478V15H264.46V10.66C264.46 9.89467 264.268 9.31133 263.886 8.91C263.503 8.49933 262.98 8.294 262.318 8.294C261.646 8.294 261.109 8.504 260.708 8.924C260.316 9.344 260.12 9.95533 260.12 10.758V15H258.846V7.328H260.12V8.42C260.372 8.028 260.712 7.72467 261.142 7.51C261.58 7.29533 262.061 7.188 262.584 7.188ZM281.753 7.328L279.359 15H278.043L276.195 8.91L274.347 15H273.031L270.623 7.328H271.925L273.689 13.768L275.593 7.328H276.895L278.757 13.782L280.493 7.328H281.753ZM283.675 6.082C283.433 6.082 283.227 5.998 283.059 5.83C282.891 5.662 282.807 5.45667 282.807 5.214C282.807 4.97133 282.891 4.766 283.059 4.598C283.227 4.43 283.433 4.346 283.675 4.346C283.909 4.346 284.105 4.43 284.263 4.598C284.431 4.766 284.515 4.97133 284.515 5.214C284.515 5.45667 284.431 5.662 284.263 5.83C284.105 5.998 283.909 6.082 283.675 6.082ZM284.291 7.328V15H283.017V7.328H284.291ZM288.017 8.378V12.9C288.017 13.2733 288.096 13.5393 288.255 13.698C288.413 13.8473 288.689 13.922 289.081 13.922H290.019V15H288.871C288.161 15 287.629 14.8367 287.275 14.51C286.92 14.1833 286.743 13.6467 286.743 12.9V8.378H285.749V7.328H286.743V5.396H288.017V7.328H290.019V8.378H288.017ZM295.37 7.188C295.949 7.188 296.472 7.314 296.938 7.566C297.405 7.80867 297.769 8.17733 298.03 8.672C298.301 9.16667 298.436 9.76867 298.436 10.478V15H297.176V10.66C297.176 9.89467 296.985 9.31133 296.602 8.91C296.22 8.49933 295.697 8.294 295.034 8.294C294.362 8.294 293.826 8.504 293.424 8.924C293.032 9.344 292.836 9.95533 292.836 10.758V15H291.562V4.64H292.836V8.42C293.088 8.028 293.434 7.72467 293.872 7.51C294.32 7.29533 294.82 7.188 295.37 7.188Z" fill="#313131"/>
<rect opacity="0.25" x="315.5" y="10.25" width="196.5" height="0.5" fill="#313131"/>
</svg>
