<svg width="30" height="31" viewBox="0 0 30 31" fill="none" xmlns="http://www.w3.org/2000/svg">
<path d="M28.125 13.3587H5.8875L12.6938 4.01665C13.012 3.57909 13.1651 3.01496 13.1194 2.44839C13.0737 1.88181 12.8329 1.35919 12.45 0.995496C12.0671 0.631803 11.5734 0.456829 11.0776 0.509067C10.5818 0.561304 10.1245 0.836475 9.80625 1.27404L0.43125 14.13C0.368176 14.2323 0.311774 14.3397 0.2625 14.4514C0.2625 14.5586 0.2625 14.6228 0.13125 14.73C0.0462631 14.9757 0.0017646 15.2372 0 15.5013C0.0017646 15.7655 0.0462631 16.027 0.13125 16.2727C0.13125 16.3798 0.13125 16.4441 0.2625 16.5512C0.311774 16.663 0.368176 16.7704 0.43125 16.8726L9.80625 29.7286C9.98254 29.9705 10.2033 30.165 10.4528 30.2983C10.7024 30.4317 10.9745 30.5005 11.25 30.5C11.6881 30.501 12.1127 30.3266 12.45 30.0072C12.6399 29.8273 12.7968 29.6064 12.9118 29.3571C13.0269 29.1078 13.0977 28.835 13.1204 28.5544C13.143 28.2738 13.117 27.9908 13.0438 27.7216C12.9706 27.4525 12.8516 27.2025 12.6938 26.986L5.8875 17.644H28.125C28.6223 17.644 29.0992 17.4183 29.4508 17.0164C29.8025 16.6146 30 16.0696 30 15.5013C30 14.9331 29.8025 14.3881 29.4508 13.9862C29.0992 13.5844 28.6223 13.3587 28.125 13.3587Z" fill="black"/>
</svg>
