<svg width="320" height="320" viewBox="0 0 320 320" fill="none" xmlns="http://www.w3.org/2000/svg">
<mask id="path-1-inside-1_1131_789" fill="white">
<path d="M160 10C195.715 10 230.259 22.7438 257.417 45.9391C284.575 69.1344 302.566 101.259 308.153 136.535C313.74 171.811 306.557 207.922 287.896 238.375C269.235 268.827 240.32 291.622 206.353 302.658C172.385 313.695 135.594 312.25 102.597 298.582C69.6007 284.914 42.5635 259.921 26.349 228.099C10.1345 196.276 5.8069 159.712 14.1445 124.983C22.4821 90.2546 42.9378 59.6405 71.8322 38.6475L89.497 62.9609C66.3917 79.7479 50.0344 104.228 43.3672 131.999C36.7001 159.77 40.1607 189.008 53.1265 214.455C66.0924 239.902 87.7126 259.887 114.098 270.817C140.484 281.746 169.904 282.902 197.066 274.076C224.228 265.251 247.349 247.023 262.272 222.672C277.194 198.321 282.938 169.444 278.47 141.236C274.002 113.028 259.616 87.3397 237.899 68.7917C216.182 50.2436 188.56 40.0531 160 40.0531V10Z"/>
</mask>
<path d="M160 10C195.715 10 230.259 22.7438 257.417 45.9391C284.575 69.1344 302.566 101.259 308.153 136.535C313.74 171.811 306.557 207.922 287.896 238.375C269.235 268.827 240.32 291.622 206.353 302.658C172.385 313.695 135.594 312.25 102.597 298.582C69.6007 284.914 42.5635 259.921 26.349 228.099C10.1345 196.276 5.8069 159.712 14.1445 124.983C22.4821 90.2546 42.9378 59.6405 71.8322 38.6475L89.497 62.9609C66.3917 79.7479 50.0344 104.228 43.3672 131.999C36.7001 159.77 40.1607 189.008 53.1265 214.455C66.0924 239.902 87.7126 259.887 114.098 270.817C140.484 281.746 169.904 282.902 197.066 274.076C224.228 265.251 247.349 247.023 262.272 222.672C277.194 198.321 282.938 169.444 278.47 141.236C274.002 113.028 259.616 87.3397 237.899 68.7917C216.182 50.2436 188.56 40.0531 160 40.0531V10Z" stroke="#CBD400" stroke-width="60" mask="url(#path-1-inside-1_1131_789)"/>
<path d="M112.969 134.016C113.529 136.965 115.246 138.44 118.121 138.44C120.099 138.44 121.499 137.563 122.321 135.808C123.142 134.053 123.553 131.197 123.553 127.24C122.731 128.397 121.611 129.293 120.193 129.928C118.774 130.563 117.187 130.88 115.433 130.88C113.043 130.88 110.915 130.395 109.049 129.424C107.182 128.416 105.707 126.941 104.625 125C103.579 123.021 103.057 120.632 103.057 117.832C103.057 115.069 103.617 112.661 104.737 110.608C105.894 108.555 107.518 106.968 109.609 105.848C111.737 104.728 114.238 104.168 117.113 104.168C122.638 104.168 126.502 105.885 128.705 109.32C130.907 112.755 132.009 117.813 132.009 124.496C132.009 129.349 131.561 133.363 130.665 136.536C129.806 139.672 128.331 142.061 126.241 143.704C124.187 145.347 121.369 146.168 117.785 146.168C114.947 146.168 112.521 145.608 110.505 144.488C108.526 143.368 106.995 141.893 105.913 140.064C104.867 138.235 104.27 136.219 104.121 134.016H112.969ZM117.617 123.32C119.185 123.32 120.435 122.853 121.369 121.92C122.302 120.949 122.769 119.643 122.769 118C122.769 116.208 122.283 114.827 121.313 113.856C120.342 112.885 119.035 112.4 117.393 112.4C115.75 112.4 114.443 112.904 113.473 113.912C112.539 114.883 112.073 116.227 112.073 117.944C112.073 119.549 112.539 120.856 113.473 121.864C114.443 122.835 115.825 123.32 117.617 123.32ZM137.118 125C137.118 118.579 138.35 113.52 140.814 109.824C143.315 106.128 147.328 104.28 152.854 104.28C158.379 104.28 162.374 106.128 164.838 109.824C167.339 113.52 168.59 118.579 168.59 125C168.59 131.496 167.339 136.592 164.838 140.288C162.374 143.984 158.379 145.832 152.854 145.832C147.328 145.832 143.315 143.984 140.814 140.288C138.35 136.592 137.118 131.496 137.118 125ZM159.182 125C159.182 121.229 158.771 118.336 157.95 116.32C157.128 114.267 155.43 113.24 152.854 113.24C150.278 113.24 148.579 114.267 147.758 116.32C146.936 118.336 146.526 121.229 146.526 125C146.526 127.539 146.675 129.648 146.974 131.328C147.272 132.971 147.87 134.315 148.766 135.36C149.699 136.368 151.062 136.872 152.854 136.872C154.646 136.872 155.99 136.368 156.886 135.36C157.819 134.315 158.435 132.971 158.734 131.328C159.032 129.648 159.182 127.539 159.182 125ZM172.865 115.424C172.865 112.4 173.724 110.067 175.441 108.424C177.196 106.781 179.454 105.96 182.217 105.96C184.98 105.96 187.22 106.781 188.937 108.424C190.654 110.067 191.513 112.4 191.513 115.424C191.513 118.448 190.654 120.781 188.937 122.424C187.22 124.067 184.98 124.888 182.217 124.888C179.454 124.888 177.196 124.067 175.441 122.424C173.724 120.781 172.865 118.448 172.865 115.424ZM210.889 106.576L189.329 146H180.089L201.649 106.576H210.889ZM182.161 111.56C180.369 111.56 179.473 112.848 179.473 115.424C179.473 117.963 180.369 119.232 182.161 119.232C183.02 119.232 183.692 118.915 184.177 118.28C184.662 117.645 184.905 116.693 184.905 115.424C184.905 112.848 183.99 111.56 182.161 111.56ZM199.521 137.152C199.521 134.128 200.38 131.795 202.097 130.152C203.814 128.509 206.054 127.688 208.817 127.688C211.58 127.688 213.82 128.509 215.537 130.152C217.254 131.795 218.113 134.128 218.113 137.152C218.113 140.176 217.254 142.509 215.537 144.152C213.82 145.795 211.58 146.616 208.817 146.616C206.054 146.616 203.814 145.795 202.097 144.152C200.38 142.509 199.521 140.176 199.521 137.152ZM208.761 133.288C207.902 133.288 207.23 133.605 206.745 134.24C206.297 134.875 206.073 135.845 206.073 137.152C206.073 139.691 206.969 140.96 208.761 140.96C209.62 140.96 210.292 140.643 210.777 140.008C211.262 139.373 211.505 138.421 211.505 137.152C211.505 135.883 211.262 134.931 210.777 134.296C210.292 133.624 209.62 133.288 208.761 133.288ZM112.89 160.752C112.554 160.136 112.092 159.667 111.504 159.345C110.916 159.023 110.23 158.862 109.446 158.862C108.578 158.862 107.808 159.058 107.136 159.45C106.464 159.842 105.939 160.402 105.561 161.13C105.183 161.858 104.994 162.698 104.994 163.65C104.994 164.63 105.183 165.484 105.561 166.212C105.953 166.94 106.492 167.5 107.178 167.892C107.864 168.284 108.662 168.48 109.572 168.48C110.692 168.48 111.609 168.186 112.323 167.598C113.037 166.996 113.506 166.163 113.73 165.099H108.69V162.852H116.628V165.414C116.432 166.436 116.012 167.381 115.368 168.249C114.724 169.117 113.891 169.817 112.869 170.349C111.861 170.867 110.727 171.126 109.467 171.126C108.053 171.126 106.772 170.811 105.624 170.181C104.49 169.537 103.594 168.648 102.936 167.514C102.292 166.38 101.97 165.092 101.97 163.65C101.97 162.208 102.292 160.92 102.936 159.786C103.594 158.638 104.49 157.749 105.624 157.119C106.772 156.475 108.046 156.153 109.446 156.153C111.098 156.153 112.533 156.559 113.751 157.371C114.969 158.169 115.809 159.296 116.271 160.752H112.89ZM121.743 155.46V171H118.803V155.46H121.743ZM129.814 171.189C128.694 171.189 127.686 170.944 126.79 170.454C125.894 169.95 125.187 169.243 124.669 168.333C124.165 167.423 123.913 166.373 123.913 165.183C123.913 163.993 124.172 162.943 124.69 162.033C125.222 161.123 125.943 160.423 126.853 159.933C127.763 159.429 128.778 159.177 129.898 159.177C131.018 159.177 132.033 159.429 132.943 159.933C133.853 160.423 134.567 161.123 135.085 162.033C135.617 162.943 135.883 163.993 135.883 165.183C135.883 166.373 135.61 167.423 135.064 168.333C134.532 169.243 133.804 169.95 132.88 170.454C131.97 170.944 130.948 171.189 129.814 171.189ZM129.814 168.627C130.346 168.627 130.843 168.501 131.305 168.249C131.781 167.983 132.159 167.591 132.439 167.073C132.719 166.555 132.859 165.925 132.859 165.183C132.859 164.077 132.565 163.23 131.977 162.642C131.403 162.04 130.696 161.739 129.856 161.739C129.016 161.739 128.309 162.04 127.735 162.642C127.175 163.23 126.895 164.077 126.895 165.183C126.895 166.289 127.168 167.143 127.714 167.745C128.274 168.333 128.974 168.627 129.814 168.627ZM140.979 161.067C141.357 160.507 141.875 160.052 142.533 159.702C143.205 159.352 143.968 159.177 144.822 159.177C145.816 159.177 146.712 159.422 147.51 159.912C148.322 160.402 148.959 161.102 149.421 162.012C149.897 162.908 150.135 163.951 150.135 165.141C150.135 166.331 149.897 167.388 149.421 168.312C148.959 169.222 148.322 169.929 147.51 170.433C146.712 170.937 145.816 171.189 144.822 171.189C143.954 171.189 143.191 171.021 142.533 170.685C141.889 170.335 141.371 169.887 140.979 169.341V171H138.039V155.46H140.979V161.067ZM147.132 165.141C147.132 164.441 146.985 163.839 146.691 163.335C146.411 162.817 146.033 162.425 145.557 162.159C145.095 161.893 144.591 161.76 144.045 161.76C143.513 161.76 143.009 161.9 142.533 162.18C142.071 162.446 141.693 162.838 141.399 163.356C141.119 163.874 140.979 164.483 140.979 165.183C140.979 165.883 141.119 166.492 141.399 167.01C141.693 167.528 142.071 167.927 142.533 168.207C143.009 168.473 143.513 168.606 144.045 168.606C144.591 168.606 145.095 168.466 145.557 168.186C146.033 167.906 146.411 167.507 146.691 166.989C146.985 166.471 147.132 165.855 147.132 165.141ZM151.516 165.141C151.516 163.965 151.747 162.922 152.209 162.012C152.685 161.102 153.322 160.402 154.12 159.912C154.932 159.422 155.835 159.177 156.829 159.177C157.697 159.177 158.453 159.352 159.097 159.702C159.755 160.052 160.28 160.493 160.672 161.025V159.366H163.633V171H160.672V169.299C160.294 169.845 159.769 170.3 159.097 170.664C158.439 171.014 157.676 171.189 156.808 171.189C155.828 171.189 154.932 170.937 154.12 170.433C153.322 169.929 152.685 169.222 152.209 168.312C151.747 167.388 151.516 166.331 151.516 165.141ZM160.672 165.183C160.672 164.469 160.532 163.86 160.252 163.356C159.972 162.838 159.594 162.446 159.118 162.18C158.642 161.9 158.131 161.76 157.585 161.76C157.039 161.76 156.535 161.893 156.073 162.159C155.611 162.425 155.233 162.817 154.939 163.335C154.659 163.839 154.519 164.441 154.519 165.141C154.519 165.841 154.659 166.457 154.939 166.989C155.233 167.507 155.611 167.906 156.073 168.186C156.549 168.466 157.053 168.606 157.585 168.606C158.131 168.606 158.642 168.473 159.118 168.207C159.594 167.927 159.972 167.535 160.252 167.031C160.532 166.513 160.672 165.897 160.672 165.183ZM169.444 155.46V171H166.504V155.46H169.444ZM182.414 171.147C181.392 171.147 180.468 170.972 179.642 170.622C178.83 170.272 178.186 169.768 177.71 169.11C177.234 168.452 176.989 167.675 176.975 166.779H180.125C180.167 167.381 180.377 167.857 180.755 168.207C181.147 168.557 181.679 168.732 182.351 168.732C183.037 168.732 183.576 168.571 183.968 168.249C184.36 167.913 184.556 167.479 184.556 166.947C184.556 166.513 184.423 166.156 184.157 165.876C183.891 165.596 183.555 165.379 183.149 165.225C182.757 165.057 182.211 164.875 181.511 164.679C180.559 164.399 179.782 164.126 179.18 163.86C178.592 163.58 178.081 163.167 177.647 162.621C177.227 162.061 177.017 161.319 177.017 160.395C177.017 159.527 177.234 158.771 177.668 158.127C178.102 157.483 178.711 156.993 179.495 156.657C180.279 156.307 181.175 156.132 182.183 156.132C183.695 156.132 184.92 156.503 185.858 157.245C186.81 157.973 187.335 158.995 187.433 160.311H184.199C184.171 159.807 183.954 159.394 183.548 159.072C183.156 158.736 182.631 158.568 181.973 158.568C181.399 158.568 180.937 158.715 180.587 159.009C180.251 159.303 180.083 159.73 180.083 160.29C180.083 160.682 180.209 161.011 180.461 161.277C180.727 161.529 181.049 161.739 181.427 161.907C181.819 162.061 182.365 162.243 183.065 162.453C184.017 162.733 184.794 163.013 185.396 163.293C185.998 163.573 186.516 163.993 186.95 164.553C187.384 165.113 187.601 165.848 187.601 166.758C187.601 167.542 187.398 168.27 186.992 168.942C186.586 169.614 185.991 170.153 185.207 170.559C184.423 170.951 183.492 171.147 182.414 171.147ZM206.131 156.342V171H203.191V161.466L199.264 171H197.038L193.09 161.466V171H190.15V156.342H193.489L198.151 167.241L202.813 156.342H206.131ZM211.977 158.715V162.39H216.912V164.721H211.977V168.606H217.542V171H209.037V156.321H217.542V158.715H211.977ZM122.566 188.482C123.392 188.636 124.071 189.049 124.603 189.721C125.135 190.393 125.401 191.163 125.401 192.031C125.401 192.815 125.205 193.508 124.813 194.11C124.435 194.698 123.882 195.16 123.154 195.496C122.426 195.832 121.565 196 120.571 196H114.25V181.342H120.298C121.292 181.342 122.146 181.503 122.86 181.825C123.588 182.147 124.134 182.595 124.498 183.169C124.876 183.743 125.065 184.394 125.065 185.122C125.065 185.976 124.834 186.69 124.372 187.264C123.924 187.838 123.322 188.244 122.566 188.482ZM117.19 187.39H119.878C120.578 187.39 121.117 187.236 121.495 186.928C121.873 186.606 122.062 186.151 122.062 185.563C122.062 184.975 121.873 184.52 121.495 184.198C121.117 183.876 120.578 183.715 119.878 183.715H117.19V187.39ZM120.151 193.606C120.865 193.606 121.418 193.438 121.81 193.102C122.216 192.766 122.419 192.29 122.419 191.674C122.419 191.044 122.209 190.554 121.789 190.204C121.369 189.84 120.802 189.658 120.088 189.658H117.19V193.606H120.151ZM138.727 184.366V196H135.766V194.53C135.388 195.034 134.891 195.433 134.275 195.727C133.673 196.007 133.015 196.147 132.301 196.147C131.391 196.147 130.586 195.958 129.886 195.58C129.186 195.188 128.633 194.621 128.227 193.879C127.835 193.123 127.639 192.227 127.639 191.191V184.366H130.579V190.771C130.579 191.695 130.81 192.409 131.272 192.913C131.734 193.403 132.364 193.648 133.162 193.648C133.974 193.648 134.611 193.403 135.073 192.913C135.535 192.409 135.766 191.695 135.766 190.771V184.366H138.727ZM146.08 196.189C145.128 196.189 144.274 196.021 143.518 195.685C142.762 195.335 142.16 194.866 141.712 194.278C141.278 193.69 141.04 193.039 140.998 192.325H143.959C144.015 192.773 144.232 193.144 144.61 193.438C145.002 193.732 145.485 193.879 146.059 193.879C146.619 193.879 147.053 193.767 147.361 193.543C147.683 193.319 147.844 193.032 147.844 192.682C147.844 192.304 147.648 192.024 147.256 191.842C146.878 191.646 146.269 191.436 145.429 191.212C144.561 191.002 143.847 190.785 143.287 190.561C142.741 190.337 142.265 189.994 141.859 189.532C141.467 189.07 141.271 188.447 141.271 187.663C141.271 187.019 141.453 186.431 141.817 185.899C142.195 185.367 142.727 184.947 143.413 184.639C144.113 184.331 144.932 184.177 145.87 184.177C147.256 184.177 148.362 184.527 149.188 185.227C150.014 185.913 150.469 186.844 150.553 188.02H147.739C147.697 187.558 147.501 187.194 147.151 186.928C146.815 186.648 146.36 186.508 145.786 186.508C145.254 186.508 144.841 186.606 144.547 186.802C144.267 186.998 144.127 187.271 144.127 187.621C144.127 188.013 144.323 188.314 144.715 188.524C145.107 188.72 145.716 188.923 146.542 189.133C147.382 189.343 148.075 189.56 148.621 189.784C149.167 190.008 149.636 190.358 150.028 190.834C150.434 191.296 150.644 191.912 150.658 192.682C150.658 193.354 150.469 193.956 150.091 194.488C149.727 195.02 149.195 195.44 148.495 195.748C147.809 196.042 147.004 196.189 146.08 196.189ZM154.563 182.98C154.045 182.98 153.611 182.819 153.261 182.497C152.925 182.161 152.757 181.748 152.757 181.258C152.757 180.768 152.925 180.362 153.261 180.04C153.611 179.704 154.045 179.536 154.563 179.536C155.081 179.536 155.508 179.704 155.844 180.04C156.194 180.362 156.369 180.768 156.369 181.258C156.369 181.748 156.194 182.161 155.844 182.497C155.508 182.819 155.081 182.98 154.563 182.98ZM156.012 184.366V196H153.072V184.366H156.012ZM165.363 184.198C166.749 184.198 167.869 184.639 168.723 185.521C169.577 186.389 170.004 187.607 170.004 189.175V196H167.064V189.574C167.064 188.65 166.833 187.943 166.371 187.453C165.909 186.949 165.279 186.697 164.481 186.697C163.669 186.697 163.025 186.949 162.549 187.453C162.087 187.943 161.856 188.65 161.856 189.574V196H158.916V184.366H161.856V185.815C162.248 185.311 162.745 184.919 163.347 184.639C163.963 184.345 164.635 184.198 165.363 184.198ZM183.615 189.931C183.615 190.351 183.587 190.729 183.531 191.065H175.026C175.096 191.905 175.39 192.563 175.908 193.039C176.426 193.515 177.063 193.753 177.819 193.753C178.911 193.753 179.688 193.284 180.15 192.346H183.321C182.985 193.466 182.341 194.39 181.389 195.118C180.437 195.832 179.268 196.189 177.882 196.189C176.762 196.189 175.754 195.944 174.858 195.454C173.976 194.95 173.283 194.243 172.779 193.333C172.289 192.423 172.044 191.373 172.044 190.183C172.044 188.979 172.289 187.922 172.779 187.012C173.269 186.102 173.955 185.402 174.837 184.912C175.719 184.422 176.734 184.177 177.882 184.177C178.988 184.177 179.975 184.415 180.843 184.891C181.725 185.367 182.404 186.046 182.88 186.928C183.37 187.796 183.615 188.797 183.615 189.931ZM180.57 189.091C180.556 188.335 180.283 187.733 179.751 187.285C179.219 186.823 178.568 186.592 177.798 186.592C177.07 186.592 176.454 186.816 175.95 187.264C175.46 187.698 175.159 188.307 175.047 189.091H180.57ZM190.213 196.189C189.261 196.189 188.407 196.021 187.651 195.685C186.895 195.335 186.293 194.866 185.845 194.278C185.411 193.69 185.173 193.039 185.131 192.325H188.092C188.148 192.773 188.365 193.144 188.743 193.438C189.135 193.732 189.618 193.879 190.192 193.879C190.752 193.879 191.186 193.767 191.494 193.543C191.816 193.319 191.977 193.032 191.977 192.682C191.977 192.304 191.781 192.024 191.389 191.842C191.011 191.646 190.402 191.436 189.562 191.212C188.694 191.002 187.98 190.785 187.42 190.561C186.874 190.337 186.398 189.994 185.992 189.532C185.6 189.07 185.404 188.447 185.404 187.663C185.404 187.019 185.586 186.431 185.95 185.899C186.328 185.367 186.86 184.947 187.546 184.639C188.246 184.331 189.065 184.177 190.003 184.177C191.389 184.177 192.495 184.527 193.321 185.227C194.147 185.913 194.602 186.844 194.686 188.02H191.872C191.83 187.558 191.634 187.194 191.284 186.928C190.948 186.648 190.493 186.508 189.919 186.508C189.387 186.508 188.974 186.606 188.68 186.802C188.4 186.998 188.26 187.271 188.26 187.621C188.26 188.013 188.456 188.314 188.848 188.524C189.24 188.72 189.849 188.923 190.675 189.133C191.515 189.343 192.208 189.56 192.754 189.784C193.3 190.008 193.769 190.358 194.161 190.834C194.567 191.296 194.777 191.912 194.791 192.682C194.791 193.354 194.602 193.956 194.224 194.488C193.86 195.02 193.328 195.44 192.628 195.748C191.942 196.042 191.137 196.189 190.213 196.189ZM201.656 196.189C200.704 196.189 199.85 196.021 199.094 195.685C198.338 195.335 197.736 194.866 197.288 194.278C196.854 193.69 196.616 193.039 196.574 192.325H199.535C199.591 192.773 199.808 193.144 200.186 193.438C200.578 193.732 201.061 193.879 201.635 193.879C202.195 193.879 202.629 193.767 202.937 193.543C203.259 193.319 203.42 193.032 203.42 192.682C203.42 192.304 203.224 192.024 202.832 191.842C202.454 191.646 201.845 191.436 201.005 191.212C200.137 191.002 199.423 190.785 198.863 190.561C198.317 190.337 197.841 189.994 197.435 189.532C197.043 189.07 196.847 188.447 196.847 187.663C196.847 187.019 197.029 186.431 197.393 185.899C197.771 185.367 198.303 184.947 198.989 184.639C199.689 184.331 200.508 184.177 201.446 184.177C202.832 184.177 203.938 184.527 204.764 185.227C205.59 185.913 206.045 186.844 206.129 188.02H203.315C203.273 187.558 203.077 187.194 202.727 186.928C202.391 186.648 201.936 186.508 201.362 186.508C200.83 186.508 200.417 186.606 200.123 186.802C199.843 186.998 199.703 187.271 199.703 187.621C199.703 188.013 199.899 188.314 200.291 188.524C200.683 188.72 201.292 188.923 202.118 189.133C202.958 189.343 203.651 189.56 204.197 189.784C204.743 190.008 205.212 190.358 205.604 190.834C206.01 191.296 206.22 191.912 206.234 192.682C206.234 193.354 206.045 193.956 205.667 194.488C205.303 195.02 204.771 195.44 204.071 195.748C203.385 196.042 202.58 196.189 201.656 196.189ZM114.326 210.878C114.326 211.662 114.137 212.397 113.759 213.083C113.395 213.769 112.814 214.322 112.016 214.742C111.232 215.162 110.238 215.372 109.034 215.372H106.577V221H103.637V206.342H109.034C110.168 206.342 111.134 206.538 111.932 206.93C112.73 207.322 113.325 207.861 113.717 208.547C114.123 209.233 114.326 210.01 114.326 210.878ZM108.908 212.999C109.72 212.999 110.322 212.817 110.714 212.453C111.106 212.075 111.302 211.55 111.302 210.878C111.302 209.45 110.504 208.736 108.908 208.736H106.577V212.999H108.908ZM121.58 221.189C120.46 221.189 119.452 220.944 118.556 220.454C117.66 219.95 116.953 219.243 116.435 218.333C115.931 217.423 115.679 216.373 115.679 215.183C115.679 213.993 115.938 212.943 116.456 212.033C116.988 211.123 117.709 210.423 118.619 209.933C119.529 209.429 120.544 209.177 121.664 209.177C122.784 209.177 123.799 209.429 124.709 209.933C125.619 210.423 126.333 211.123 126.851 212.033C127.383 212.943 127.649 213.993 127.649 215.183C127.649 216.373 127.376 217.423 126.83 218.333C126.298 219.243 125.57 219.95 124.646 220.454C123.736 220.944 122.714 221.189 121.58 221.189ZM121.58 218.627C122.112 218.627 122.609 218.501 123.071 218.249C123.547 217.983 123.925 217.591 124.205 217.073C124.485 216.555 124.625 215.925 124.625 215.183C124.625 214.077 124.331 213.23 123.743 212.642C123.169 212.04 122.462 211.739 121.622 211.739C120.782 211.739 120.075 212.04 119.501 212.642C118.941 213.23 118.661 214.077 118.661 215.183C118.661 216.289 118.934 217.143 119.48 217.745C120.04 218.333 120.74 218.627 121.58 218.627ZM132.745 211.046C133.123 210.514 133.641 210.073 134.299 209.723C134.971 209.359 135.734 209.177 136.588 209.177C137.582 209.177 138.478 209.422 139.276 209.912C140.088 210.402 140.725 211.102 141.187 212.012C141.663 212.908 141.901 213.951 141.901 215.141C141.901 216.331 141.663 217.388 141.187 218.312C140.725 219.222 140.088 219.929 139.276 220.433C138.478 220.937 137.582 221.189 136.588 221.189C135.734 221.189 134.978 221.014 134.32 220.664C133.676 220.314 133.151 219.873 132.745 219.341V226.544H129.805V209.366H132.745V211.046ZM138.898 215.141C138.898 214.441 138.751 213.839 138.457 213.335C138.177 212.817 137.799 212.425 137.323 212.159C136.861 211.893 136.357 211.76 135.811 211.76C135.279 211.76 134.775 211.9 134.299 212.18C133.837 212.446 133.459 212.838 133.165 213.356C132.885 213.874 132.745 214.483 132.745 215.183C132.745 215.883 132.885 216.492 133.165 217.01C133.459 217.528 133.837 217.927 134.299 218.207C134.775 218.473 135.279 218.606 135.811 218.606C136.357 218.606 136.861 218.466 137.323 218.186C137.799 217.906 138.177 217.507 138.457 216.989C138.751 216.471 138.898 215.855 138.898 215.141ZM155.021 209.366V221H152.06V219.53C151.682 220.034 151.185 220.433 150.569 220.727C149.967 221.007 149.309 221.147 148.595 221.147C147.685 221.147 146.88 220.958 146.18 220.58C145.48 220.188 144.927 219.621 144.521 218.879C144.129 218.123 143.933 217.227 143.933 216.191V209.366H146.873V215.771C146.873 216.695 147.104 217.409 147.566 217.913C148.028 218.403 148.658 218.648 149.456 218.648C150.268 218.648 150.905 218.403 151.367 217.913C151.829 217.409 152.06 216.695 152.06 215.771V209.366H155.021ZM160.862 205.46V221H157.922V205.46H160.862ZM163.01 215.141C163.01 213.965 163.241 212.922 163.703 212.012C164.179 211.102 164.816 210.402 165.614 209.912C166.426 209.422 167.329 209.177 168.323 209.177C169.191 209.177 169.947 209.352 170.591 209.702C171.249 210.052 171.774 210.493 172.166 211.025V209.366H175.127V221H172.166V219.299C171.788 219.845 171.263 220.3 170.591 220.664C169.933 221.014 169.17 221.189 168.302 221.189C167.322 221.189 166.426 220.937 165.614 220.433C164.816 219.929 164.179 219.222 163.703 218.312C163.241 217.388 163.01 216.331 163.01 215.141ZM172.166 215.183C172.166 214.469 172.026 213.86 171.746 213.356C171.466 212.838 171.088 212.446 170.612 212.18C170.136 211.9 169.625 211.76 169.079 211.76C168.533 211.76 168.029 211.893 167.567 212.159C167.105 212.425 166.727 212.817 166.433 213.335C166.153 213.839 166.013 214.441 166.013 215.141C166.013 215.841 166.153 216.457 166.433 216.989C166.727 217.507 167.105 217.906 167.567 218.186C168.043 218.466 168.547 218.606 169.079 218.606C169.625 218.606 170.136 218.473 170.612 218.207C171.088 217.927 171.466 217.535 171.746 217.031C172.026 216.513 172.166 215.897 172.166 215.183ZM181.422 211.781V217.409C181.422 217.801 181.513 218.088 181.695 218.27C181.891 218.438 182.213 218.522 182.661 218.522H184.026V221H182.178C179.7 221 178.461 219.796 178.461 217.388V211.781H177.075V209.366H178.461V206.489H181.422V209.366H184.026V211.781H181.422ZM187.631 207.98C187.113 207.98 186.679 207.819 186.329 207.497C185.993 207.161 185.825 206.748 185.825 206.258C185.825 205.768 185.993 205.362 186.329 205.04C186.679 204.704 187.113 204.536 187.631 204.536C188.149 204.536 188.576 204.704 188.912 205.04C189.262 205.362 189.437 205.768 189.437 206.258C189.437 206.748 189.262 207.161 188.912 207.497C188.576 207.819 188.149 207.98 187.631 207.98ZM189.08 209.366V221H186.14V209.366H189.08ZM197.151 221.189C196.031 221.189 195.023 220.944 194.127 220.454C193.231 219.95 192.524 219.243 192.006 218.333C191.502 217.423 191.25 216.373 191.25 215.183C191.25 213.993 191.509 212.943 192.027 212.033C192.559 211.123 193.28 210.423 194.19 209.933C195.1 209.429 196.115 209.177 197.235 209.177C198.355 209.177 199.37 209.429 200.28 209.933C201.19 210.423 201.904 211.123 202.422 212.033C202.954 212.943 203.22 213.993 203.22 215.183C203.22 216.373 202.947 217.423 202.401 218.333C201.869 219.243 201.141 219.95 200.217 220.454C199.307 220.944 198.285 221.189 197.151 221.189ZM197.151 218.627C197.683 218.627 198.18 218.501 198.642 218.249C199.118 217.983 199.496 217.591 199.776 217.073C200.056 216.555 200.196 215.925 200.196 215.183C200.196 214.077 199.902 213.23 199.314 212.642C198.74 212.04 198.033 211.739 197.193 211.739C196.353 211.739 195.646 212.04 195.072 212.642C194.512 213.23 194.232 214.077 194.232 215.183C194.232 216.289 194.505 217.143 195.051 217.745C195.611 218.333 196.311 218.627 197.151 218.627ZM211.824 209.198C213.21 209.198 214.33 209.639 215.184 210.521C216.038 211.389 216.465 212.607 216.465 214.175V221H213.525V214.574C213.525 213.65 213.294 212.943 212.832 212.453C212.37 211.949 211.74 211.697 210.942 211.697C210.13 211.697 209.486 211.949 209.01 212.453C208.548 212.943 208.317 213.65 208.317 214.574V221H205.377V209.366H208.317V210.815C208.709 210.311 209.206 209.919 209.808 209.639C210.424 209.345 211.096 209.198 211.824 209.198Z" fill="white"/>
</svg>
